<svg xmlns="http://www.w3.org/2000/svg" viewBox="0 0 109 38" style="enable-background:new 0 0 109 38" xml:space="preserve"><path d="M108.4 0v30.1H13.5l-8.7 7.5v-7.5H0V0h108.4zM68.7 17.8c-.6 0-1.1.5-1.1 1.1 0 .6.5 1.1 1.1 1.1s1.1-.5 1.1-1.1c0-.6-.5-1.1-1.1-1.1zm-53.9-7.5h-2.7v1.3h1v7.8c.5.3 1.7.5 2.7.5 2.4 0 3.6-1.6 3.6-3.8 0-1.8-1-3-2.5-3-1.1 0-1.8.5-2.2 1.4l.1-1.5v-2.7zm7.7 3h-2.6v1.3h.9v3.2c0 1.2.7 2.2 2.2 2.2 1.1 0 1.8-.5 2.2-1.5a3 3 0 0 0-.2 1.3h2.4v-1.3h-.8v-5.2h-2.5v1.3h.9V17c0 1-.6 1.6-1.4 1.6-.8 0-1.1-.3-1.1-1.5v-3.8zm41.1-.1c-1.7 0-2.8.8-2.8 2.1 0 .9.5 1.5 1.7 1.7 2 .3 2.3.4 2.3.9s-.6.8-1.3.8l-1.1-.2v-.8h-1.5v1.8c.6.2 1.8.4 2.5.4 2 0 3-.9 3-2.2 0-1.2-.6-1.7-2.1-2-1.7-.2-1.9-.2-1.9-.7 0-.3.4-.7 1.1-.7l1 .2v.7h1.6v-1.6a8 8 0 0 0-2.5-.4zm16.9 0c-2 0-3.4 1.5-3.4 3.4 0 2.1 1.2 3.3 3.4 3.3 2 0 3.4-1.4 3.4-3.3-.1-2.2-1.2-3.4-3.4-3.4zm-49.3 0c-1.7 0-2.8.8-2.8 2.1 0 .9.5 1.5 1.7 1.7 2 .3 2.3.4 2.3.9s-.6.8-1.3.8l-1.1-.2v-.8h-1.5v1.8c.6.2 1.8.4 2.5.4 2 0 3-.9 3-2.2 0-1.2-.6-1.7-2.1-2-1.7-.2-1.9-.2-1.9-.7 0-.3.4-.7 1.1-.7l1 .2v.7h1.6v-1.6a8 8 0 0 0-2.5-.4zm19.1 0c-2 0-3.2 1.4-3.2 3.4s1.3 3.3 3.6 3.3c.9 0 1.5-.1 2.3-.4l.1-1.4c-.8.3-1.3.5-2.1.5-1.2 0-2-.6-2-1.7h4.5c-.1-2.5-1.3-3.7-3.2-3.7zm6.8 0c-1.7 0-2.8.8-2.8 2.1 0 .9.5 1.5 1.7 1.7 2 .3 2.3.4 2.3.9s-.6.8-1.3.8l-1.1-.2v-.8h-1.5v1.8c.6.2 1.8.4 2.5.4 2 0 3-.9 3-2.2 0-1.2-.6-1.7-2.1-2-1.7-.2-1.9-.2-1.9-.7 0-.3.4-.7 1.1-.7l1 .2v.7h1.6v-1.6a8 8 0 0 0-2.5-.4zm17.3 0c-2.1 0-3.4 1.3-3.4 3.4 0 2 1.3 3.4 3.4 3.4.9 0 1.2-.1 1.9-.3l.1-1.4c-.5.2-1.1.4-1.6.4-1.3 0-2-.8-2-2.1 0-1.1.6-1.9 1.6-1.9l.6.1v.9h1.5v-1.9c-.7-.5-1.4-.6-2.1-.6zm19 0c-1.1 0-1.9.5-2.2 1.4-.2-1-.8-1.4-1.8-1.4-1.1 0-1.9.5-2.2 1.4l.1-1.3h-2.5v1.3h.8v3.9h-.7v1.3H88v-1.3h-.8v-2.2c0-.9.5-1.7 1.4-1.7.7 0 1.1.4 1.1 1.2v2.7H89v1.3h3.1v-1.3h-.8v-2.2c0-.9.5-1.7 1.4-1.7.7 0 1.1.4 1.1 1.2v2.7h-.6v1.3h3.1v-1.3h-.8v-2.9c.1-1.4-.6-2.4-2.1-2.4zm-49.8 0c-1.1 0-1.9.6-2.2 1.5l.1-1.3H39v1.3h.8v3.9h-.6v1.3h3.1v-1.3h-.8v-2.2c0-1 .5-1.7 1.5-1.7.7 0 1.1.4 1.1 1.2v2.7h-.7v1.3h3.2v-1.3h-.7v-2.9c0-1.5-.7-2.5-2.3-2.5zm-6.2.1h-2.6v1.3h.8v3.9H35v1.3h3.2v-1.3h-.8v-5.2zm-21.2 1.3c.9 0 1.4.7 1.4 1.7 0 1.3-.6 2.2-1.8 2.2l-1.1-.2v-2.1c.1-1 .6-1.6 1.5-1.6zm64.2 0c1.1 0 1.5.7 1.5 2.1 0 1.2-.5 1.9-1.5 1.9-1.1 0-1.5-.7-1.5-1.9 0-1.4.7-2.1 1.5-2.1zm-30.1-.2c.8 0 1.3.5 1.3 1.4H49c.1-1 .5-1.4 1.3-1.4zm-13.8-4.3c-.6 0-1.1.5-1.1 1.1s.5 1.1 1.1 1.1 1.1-.5 1.1-1.1-.5-1.1-1.1-1.1z"/></svg>