<svg width="56" height="56" xmlns="http://www.w3.org/2000/svg"><g fill="none" fill-rule="evenodd"><path d="M0 0h56v56H0z"/><path d="M28 0c15.4 0 28 10.2 28 22.8 0 12.5-12.6 22.7-28 22.7l-3-.1-12.3 10.2A1.7 1.7 0 0 1 10 54l1.8-12.8A21.7 21.7 0 0 1 0 22.7C0 10.3 12.6 0 28 0Zm0 3.5c-13.5 0-24.5 8.6-24.5 19.3 0 6.4 4 12.3 10.9 16 .7.3 1 1 1 1.7L14 50l9.3-7.8c.4-.3.9-.5 1.3-.4l3.4.2c13.5 0 24.5-8.6 24.5-19.3 0-10.6-11-19.2-24.5-19.2ZM21 21a1.8 1.8 0 1 1 0 3.5 1.8 1.8 0 0 1 0-3.5Zm7 0a1.8 1.8 0 1 1 0 3.5 1.8 1.8 0 0 1 0-3.5Zm7 0a1.8 1.8 0 1 1 0 3.5 1.8 1.8 0 0 1 0-3.5Z" fill="#3079ED" fill-rule="nonzero"/></g></svg>