<svg xmlns="http://www.w3.org/2000/svg" viewBox="0 0 110 28" style="enable-background:new 0 0 110 28" xml:space="preserve"><path d="M29.5 7.6c6.3 0 9.5 4.3 9.5 10 0 5.4-3.5 10-9.9 10-6.3 0-9.5-4.3-9.5-10 0-5.5 3.5-10 9.9-10zm56.5 0c5.3 0 7.8 3.9 7.8 9.1H82c-.1 4.7 2.1 8.1 6.7 8.1 2 0 3-.5 4.3-1.4l.5.6a9.4 9.4 0 0 1-7.6 3.5c-5.7 0-9.7-4-9.7-9.9 0-5.1 3.3-10 9.8-10zM62.6 0l-.1 7.1V9a8.7 8.7 0 0 1 4.6-1.1c4.3 0 7.6 3.8 7.6 9 0 6.6-4 10.7-10.7 10.7-2.4 0-4.8-.4-7.1-.9l.1-12v-1.9l-.1-8c-.3-1.5-.6-2.1-1.8-2.4l-.9-.1v-.8L62.6 0zM103 7.6c2.3 0 4.3.4 5.8 1l.1 4.9-.9.3c-1.1-3.4-2.7-4.8-4.9-4.8-1.5 0-2.7 1.1-2.7 2.8 0 1.6 1.3 2.5 4.8 3.9 3.3 1.3 4.7 2.8 4.7 5.4 0 3.9-3.2 6.4-8.1 6.4-2.4 0-5.2-.5-6.7-1.1l-.1-5.6.9-.3c1.4 3.8 3.2 5.2 5.6 5.2 2 0 3.2-1.4 3.2-2.9s-.9-2.4-4-3.5c-3-1-5.2-2.4-5.2-5.7s2.9-6 7.5-6zM47.4 12c2-4.6 5.8-5.2 8-3.9l-2 5.2c-2.5-1.6-5.3-.9-5.9 0-.1 3-.1 7.8.1 10.2.1 1.5.5 2.3 1.8 2.4l1.5.1v1H39.1v-1l.9-.1c1.1-.1 1.6-.9 1.8-2.4.1-2.7.3-8 0-11-.1-1.6-.6-2.3-1.8-2.4l-.9-.1v-.8l8.5-1.6-.2 4.4zM22.3.5l.1 7.5-1.3.4c-1.3-3.8-3-5.9-6.4-5.9h-4.4c-.1 2.4-.3 6.4-.3 10.7l3-.1c1.9 0 2.8-1.5 3.2-3.7h1.1v9h-1.1c-.4-2.1-1.3-3.7-3.2-3.7l-3-.1c0 3.3.1 5.9.3 7.6.3 2.4.9 3.5 2.5 3.7l1.5.3v1H0v-1l1.3-.3c1.6-.1 2.3-1.3 2.5-3.7.3-3.9.4-12.1 0-16.7-.3-2.4-.9-3.4-2.5-3.7L0 1.7V.5h22.3zm6.8 8.3c-2.8 0-3.5 3.8-3.5 8.7 0 4.8 1.3 8.7 3.8 8.7 2.9 0 3.7-3.8 3.7-8.7-.1-4.7-1.4-8.7-4-8.7zm35.3 1.1a5 5 0 0 0-1.9.4v4.4l.2 11.4 1.5.1c2.7 0 4.6-3.9 4.6-9-.1-4.1-1.7-7.3-4.4-7.3zm21.1-1.1c-2.1 0-3.3 3.5-3.4 6.4l5.9-.1c0-2.5-.4-6.3-2.5-6.3z"/></svg>