<?xml version="1.0" encoding="UTF-8"?>
<svg width="30px" height="30px" viewBox="0 0 30 30" version="1.1" xmlns="http://www.w3.org/2000/svg" xmlns:xlink="http://www.w3.org/1999/xlink">
    <title>free</title>
    <g id="free" stroke="none" stroke-width="1" fill="none" fill-rule="evenodd">
        <g id="Group-4" transform="translate(15.500000, 14.666667) rotate(-34.000000) translate(-15.500000, -14.666667) translate(1.000000, 5.000000)">
            <path d="M21.8937434,1 C22.4736551,1 23.0275916,1.16713743 23.4985549,1.46532449 C23.9695183,1.76351155 24.3575085,2.19274822 24.6055277,2.71694671 L24.6055277,2.71694671 L27.8937173,9.66666667 L24.6055277,16.6163866 C24.3575085,17.1405851 23.9695183,17.5698218 23.4985549,17.8680088 C23.0275916,18.1661959 22.4736551,18.3333333 21.8937434,18.3333333 L21.8937434,18.3333333 L4,18.3333333 C3.17157288,18.3333333 2.42157288,17.9975469 1.87867966,17.4546537 C1.33578644,16.9117605 1,16.1617605 1,15.3333333 L1,15.3333333 L1,4 C1,3.17157288 1.33578644,2.42157288 1.87867966,1.87867966 C2.42157288,1.33578644 3.17157288,1 4,1 L4,1 Z" id="Rectangle" stroke="#3079ED" stroke-width="2"></path>
            <path d="M21.9781624,0 C23.4730459,0 24.8340127,0.861686331 25.4733511,2.21295354 L29,9.66666667 L25.4733511,17.1203798 C24.8340127,18.471647 23.4730459,19.3333333 21.9781624,19.3333333 L3.86666667,19.3333333 C1.73116563,19.3333333 0,17.6021677 0,15.4666667 L0,3.86666667 C0,1.73116563 1.73116563,0 3.86666667,0 L21.9781624,0 Z M21.9781624,1.93333333 L3.86666667,1.93333333 C2.84745026,1.93333333 2.01244038,2.7220152 1.93863621,3.72237973 L1.93333333,3.86666667 L1.93333333,15.4666667 C1.93333333,16.4858831 2.7220152,17.320893 3.72237973,17.3946971 L3.86666667,17.4 L21.9781624,17.4 C22.6722155,17.4 23.308534,17.0285077 23.6518407,16.4344873 L23.7257568,16.2935232 L26.8607667,9.6657 L23.7257568,3.0398101 C23.4289211,2.41243604 22.8209752,1.99613129 22.1371966,1.93986007 L21.9781624,1.93333333 Z" id="Rectangle-Copy" fill="#3079ED" fill-rule="nonzero"></path>
            <circle id="Oval" fill="#3079ED" cx="21.7999211" cy="9.40825591" r="2.14814815"></circle>
        </g>
    </g>
</svg>