<svg width="56" height="56" xmlns="http://www.w3.org/2000/svg"><g fill="#3079ED" fill-rule="nonzero"><path d="M51.6 56H32.4C30 56 28 54 28 51.6v-28c0-2.4 2.6-4.6 5-4.6h18c2.4 0 5 2.2 5 4.6v28c0 2.4-2 4.4-4.4 4.4ZM33 23c-.5 0-1 .5-1 1v27c0 .5.5 1 1 1h18c.5 0 1-1 1-1V24c0-.5-.5-1-1-1H33Z"/><path d="M23.2 56H4.4C2 56 0 54 0 51.6V4.4C0 2 2 0 4.4 0h35C41.8 0 44 1.6 44 4v10c0 1-1 1.8-2 1.8s-2-.8-2-1.8V5c0-.5-.5-1-1-1H5c-.5 0-1 .5-1 1v46c0 .5.5 1 1 1h18c1 0 2 1 2 2s-.8 2-1.8 2ZM42 49c-.5 0-1-.2-1.2-.5-.4-.3-.5-.8-.5-1.3 0-.4.1-.9.5-1.2.6-.6 1.8-.6 2.4 0 .4.3.5.8.5 1.3 0 .4-.1.9-.5 1.2-.3.3-.7.5-1.2.5Z"/></g></svg>