<svg version="1.1" id="Layer_1" xmlns="http://www.w3.org/2000/svg" x="0" y="0" viewBox="0 0 300 300" style="enable-background:new 0 0 300 300" xml:space="preserve"><style>.st0{fill:#fff}.st2{stroke:#fff;stroke-width:2.098;stroke-miterlimit:3.863}.st2,.st4{fill:none}</style><path class="st0" d="M149.9 281.3c-4.9 0-13.7-.7-13.7-.7l.3 1.1c.2.5 3.7 11.6 14 11.6 9 0 12.8-8.5 13.9-11.9v-.7c-1.3.1-9.6.6-14.5.6zm.7 9.8c-8.4 0-11.8-9.5-11.8-9.5s7.1.4 11.1.4 6.6 0 7.8-.1c-1.4 2-2.3 1.9-4 1.9-.9 0-2.1.7-2.1 2 0 1 .9 1.8 2.2 1.8 3.1 0 5.4-4.2 6-6 0 0 1.8-.1 2.3-.1.1 0-3.1 9.6-11.5 9.6z"/><path class="st0" d="m109.9 275.8-2.1.3c2.5 6.6 7 13.9 15.9 13.9 8.6 0 13.2-5.3 15.1-8.3l1-.9c.1 0-14.8-.5-29.9-5zm14 12c-8.4 0-11.6-7.6-12.9-10 5.4 1.4 9.3 2.7 18.5 3.8 0 0-.3.9-2.3.9-.8 0-.9-.2-1.1-.3-.6-.1-1.4.5-1.4 1.5.1.7.7 1.6 2.7 1.6s4.4-1.7 5.6-3.2c0 0 1.2.3 2.5.3 0-.1-3.9 5.4-11.6 5.4zM208.8 233.3l-2.5 1.4 9.1 15.7 2.3-1.3c4.8-2.8 5.5-6.8 2.3-12.3-2.1-3.9-5.4-6.8-11.2-3.5z"/><path id="path7506" class="st0" d="M172.9 169.3V165s-1.1-1.8-4-1.8c-2.8 0-4.5.9-4.5 1.6 0 1.2 2.6 4.5 8.5 4.5m-22.3-38.1 4.3-7.5 3.4 7.5h5.6c-3.3 3.1-4.7 7.9-4.7 11v3.4c0 1.5-.7 3.9-.7 3.9s4.8 3.7 5.6 4.3c.3.2.6.4.4 1-.4 1.1-3.7 2.6-4 2.8-.7.7-.9 1.1-.7 1.7.2.6.8.7 2.1.3 1.3-.4 3.9-1.8 6.1-2.7 2.2-1 5.1-.7 5.1-.7V152h-8.3v-13.4l-1.5-2.4 3.7-6.5 3.7 6.6-1.4 2.3v7h4.2v-7l-1.5-2.3 3.7-6.5 3.7 6.5-1.4 2.3v7h4.3v-7l-1.5-2.3 3.7-6.5 3.7 6.5-1.5 2.3.1 13.4h-8.4v6.2c1.9 1.8 3.7 5.8 3.7 8.2 0 2.4-1.6 3.5-1.6 3.5.5 1.9.4 2.7.2 4.4-.2 1.8-2.4 4.5-2.4 4.5v32c0 2.2-5 2-5 .1v-31.4c-2.8-3.1-10.6-5.6-10.6-5.6-2.8 2.8-4.6 7.8-4.6 7.8 1.2.9 3.2 0 3.9-.8.7-.8 2.2-1.1 3-.5.8.5 1 .7.7 2-.3 1.3-.8 3.4-.8 4.8 0 1.5 1.7 1.2 2.9 1.3 2.5.2 2.9 3 2.7 4.6-.2 1.6-.9 4.9-.9 7 0 2.1.1 4.2.3 5.3.2 1.1.6 2.4.5 3.9-.1 2-1.3 2.3-2.6 1-1.3-1.3-18.8-19.9-18.8-19.9-1.2 3.8 3.7 10.3 5.2 12.3 1.6 2 1.5 3.5.1 4.8-1.3 1.4-4 2.1-4.5 3.4-.5 1.2 1.3 5 4.9 9.7 3.7 4.7-4.2 7.9-8.9 8.8-4.7.9-4.7-2.3-4.4-4.1.3-1.8.3-2.8.2-4.4-.1-1.6-1.6-3.8-3.6-6.4-2-2.6-2-5-1.2-11.1s.6-10 .6-10-2.1.1-5.1 0c-3-.1-5.5-1.9-5.8-9.2-.2-7.3-.4-24.8-.9-26.7-.5-1.8-2.4-2.1-3.3-2.4-.9-.2-.9-1.5-.1-1.9 2.2-1.1 4.8-3.8 3.8-5.4-1-1.7-4.8-1.3-7.4-.1-2.6 1.3-5.3 4-6 4.7-.7.7-1.3.7-1.2-.1.1-.9-.5-4.9-.8-6.2-.4-1.4-1.6-4-2-4.7-.4-.7 0-1 .7-.7.7.3 2.2.9 3.7 1.3s2.9-.3 3.5-1.7c.7-1.4 2.1-4.4 2.8-5.7.7-1.3 1.8-1 2.7-.8.9.2 1.7.8 2.6 1.1.8.3 1.5.3 1.8-.1.3-.4.6-.6 1.1-1.6.5-1 1.1-.5 1.2-.1 2.5 15 9 15.7 9 15.7-1 2.5-3.3 6.5-3.8 7.5-.6.9-.8 2.3-1 3.3-.1 1 .4 11 1.1 14.6.7 3.6 2.9 2.2 3.7 1.1.7-1.1 2.9-5.7 2.9-5.7s.5-1.3.5-2.3c0-1.1-1.8-3.3-2.2-4-.4-.7-2-2.1-2-5.6 0-3.5 3.1-5.9 4.3-6.8 1.1-.9 1.1-2.2 1-3-.5-2.7-3.4-8.4-4.7-10.6-1.4-2.2-4.1-6.3-4.1-6.3h5.7l3.6-7.6 4 7.6 3.9.2zm-.9 23c1.8-3.1 2.6-6.2 2.6-6.2H147c0-.1.8 3.2 2.7 6.2m-5.6-15.4c.2 1.6 1.4 2.2 2.3 1.7.9-.5.7-1.8.1-2.8-.6-1-1.9-2.1-2.3-1.9-.5.2-.2 2.1-.1 3m10.6-3c-.4-.2-1.8.9-2.4 1.9-.6 1-.8 2.3.1 2.8s2-.2 2.3-1.7c.1-.9.4-2.8 0-3"/><path id="path7932_2_" class="st0" d="M194.4 115.3h-87.1l-7.5-.1v6h102.1v-6l-7.5.1z"/><path class="st0" d="M99.8 83.8v26.8h106.1V86.8c0-1.7-1.3-3-3-3H99.8zm29.6 6.9v3l-4.2 11.8-7.8-1.9 12-12.9zm52.4 19.9h-66.2l-2.3-6.4 11.7 2.7h11.7v-3h-6.1V90.4h5.6l1.9-3.7 1.9 3.7h5.6v13.4h-6.1v3h14.8v-3h-6.1V90.4h5.5l1.9-3.7 1.9 3.7h5.6v13.4h-6v3h14.5v-3h-6.1V90.4h5.6l1.9-3.7 1.9 3.7h5.6v13.4h-6v3h7.4M139.7 12.1c-6.9-5.5-13.8-9.2-20.6-9.2-4.3 0-13.2 3.2-15.1 18.6l2.4-.7c10-3.4 19.1-6.4 31.5-7.5l1.8-1.2zm-32.9 7.2c.7-4.2 1.7-6.7 3.4-9.2-.1 2.2 1.7 4.5 5.2 4.5 3.6 0 5.6-2.1 5.6-3.3 0-1.2-.7-3-2.7-3-1.9 0-2.3 1.4-2.2 1.9.1.5-.3.7-.8.8-.5.1-2-.7-1.5-2.6.6-2.1 3.2-3.2 6.2-3.2 5.7 0 10.7 3.3 16.3 7.2-12.2 1-19.7 3.6-29.5 6.9zM255.4 92.3l-1.5-1.6-6.2 5.6 1.1 1.2c1.9 2.1 4.4 2.5 6.3.7 2.1-1.8 2.1-4 .3-5.9zM80.2 71.8 71.5 68l4.4 8.5zM44.4 56.1c-2.8-4.3-6.5-2.6-7.6-2.1-.7.3-1.9 1.2-2.7 2.4 0 0-7.7 8.5-16.2 16.8-1.2 1.2-2.5 3.4-2.6 5.4-.1 1.8.6 3.6 1.7 4.7 2.3 2.5 6.4 2.4 8.4.8l.1 6.8c2.1-1.7 9.8-9.1 12.5-12.6l8-10.9c.6-2 .9-7.5-1.6-11.3zM25.2 81.6c-1.3 1.2-4.6 2.3-6.5.2-.7-.8-1.2-2-1.1-3.3.1-1.5 1-3.3 1.9-4.1C21.2 73 28 66 32.9 60.6c.1 1 1 2.7 1 2.7.7.9 1.5 2.3 3.7 3.4-1.2 2.1-4.4 7.4-12.4 14.9zm18.9-13.3s-4.3 7.5-16.7 19.8v-5.5c9.2-8.4 13.6-17 13.6-17s-3.4-1.3-4.9-3.2c-.8-1.1-1-2.6-.9-3.6.3-1.9 1.7-2.8 2.2-3 1.1-.5 3.1-1.5 5.3 1.5 2.3 3.3 1.7 9.6 1.4 11zM182.6 2.9c-6.8 0-14.6 4.4-21.6 9.8l2.8.4c12.4 1.1 21.5 3.9 31.6 7.3l2.1.8c-1.9-15.4-10.6-18.3-14.9-18.3zm-17.2 9.4c5.6-3.9 10.6-7.2 16.3-7.2 3 0 5.6 1.1 6.2 3.2.6 1.9-1 2.7-1.5 2.6-.6-.1-1-.3-.8-.8.1-.5-.3-1.9-2.2-1.9-1.9 0-2.7 1.8-2.7 3s2 3.3 5.6 3.3c3.5 0 5.3-2.4 5.2-4.5 1.7 2.5 2.7 5 3.4 9.2-9.9-3.2-17.3-5.8-29.5-6.9z"/><path class="st0" d="M161.6 11c-3-6.6-6.7-11.6-9.9-11.6-2.6 0-8.9 4-13.9 13.7h5c2.5-.2 6.6-.3 8.5-.3 1.9 0 6.6 0 8.3.3l2.9.1-.9-2.2zm-10.4-.1c-1.9 0-6.5.1-8.5.2.3-.6.6-1 1-1.5 0 0 .7.4 2.9.4s4.4-1.8 4.7-3.7c0 0-4.7 0-3.4-1.9 1-1.5 3-3.1 3.5-3.1h.3c2.4 0 5.8 5.8 7.6 10-1.1-.1-6.2-.4-8.1-.4zM286.7 78.6c-.1-2-1-4.1-2.5-5.6-8.5-8.3-16.1-16.6-16.1-16.6-.8-1.2-2-2.1-2.7-2.4-1-.5-4.7-2.2-7.6 2.1-2.5 3.9-2.2 9.4-1.7 11.4l8 10.9c2.7 3.5 10.4 10.8 12.6 12.6l.1-6.8c2.1 1.6 6 1.6 8.3-.8 1.1-1.3 1.7-3 1.6-4.8zm-12.4 9.6c-12.4-12.3-16.7-19.8-16.7-19.8-.3-1.4-.9-7.7 1.4-11 2.2-3 4.2-2 5.3-1.5.5.2 1.9 1.2 2.2 3 .1 1-.2 2.5-.9 3.6-1.5 1.9-4.9 3.2-4.9 3.2s4.4 8.6 13.7 17.1l-.1 5.4zm8.6-6.4c-1.9 2.1-5.2 1.1-6.5-.2-8-7.5-11.2-12.8-12.4-15 2.2-1.1 3.1-2.4 3.7-3.4 0 0 .9-1.7 1-2.7 4.9 5.5 11.8 12.4 13.4 13.8.9.8 1.9 2.6 1.9 4.1.1 1.4-.4 2.5-1.1 3.4z"/><path id="path41140_1_" d="M95.5 86.3V202l55.4 35.6 55.3-35.6.1-115.6c-1.8-1.6-5.5-5-8.3-6.8h-94.1" style="fill:none;stroke:#fff;stroke-miterlimit:3.863"/><path class="st0" d="M191.4 275.8c-15.1 4.5-30 4.9-30 4.9l1.5.9c1.8 3.3 6 8.3 14.7 8.3 8.9 0 13.4-7.4 15.9-13.9l-2.1-.2zm-1 2c-1.3 2.4-4.5 10-12.9 10-7.7 0-11.6-5.5-11.6-5.5 1.3-.1 2.5-.3 2.5-.3 1.2 1.5 3.6 3.2 5.6 3.2s2.6-.9 2.7-1.6c.1-1-.8-1.6-1.4-1.5-.3 0-.4.2-1.1.3-2 .1-2.3-.9-2.3-.9 9.2-1 13.1-2.3 18.5-3.7z"/><path id="path6214" class="st2" d="M7.1 159c0-14 11.3-25.3 25.3-25.3s25.3 11.4 25.3 25.3c0 14-11.3 25.3-25.3 25.3S7.1 173 7.1 159z"/><path id="path17130" class="st0" d="M37.8 176.4c-1.1.4-1.6-.4-2.1-1-2-2.3-2.5-8.3-2.5-9.1 0-.8.3-1.7.9-1.7 4.8-.1 8.1-1.5 11.3-4.1 3.1-2.5 4.5-5.5 4.7-6 .3-.6.9-.5 1 .3.1.7.4 1.9.4 3.2 0 8.7-5.9 15.8-13.7 18.4m-5 .8h-.4c-3.5 0-7.4-1.3-9.6-2.6-2.4-1.3-3.3-7.4-3.3-10.4 0-10 4.1-15.9 4.8-17.1.6-1.2 2.1-1.3 3.2-1 1.1.3 1.5.5 2.8.9.7.2 2 .5 3 .7 1 .2 2.1.5 1.5 2.4-.6 1.9-2.9 6.5-3.1 11.9-.2 4.9.4 9.8 1.5 12.8.7 1.7.7 2.4-.4 2.4m-14.5-22.9c-.9-.5-2.1-2.9-2.4-3.6-.3-.5-.3-2 .1-2.6 1.6-2.7 3.8-5.3 6.6-6.6.3-.2.8-.2.8.7 0 .4.2 1.1.3 1.6 0 .4.2 1.4-.4 2.1-.6.7-3.2 5.3-3.8 7.8-.1.6-.3 1.2-1.2.6m-.5 16.1c-2.6-2.6-4.5-7.4-4.5-12.3 0-1.9.3-3.8.8-5.6 0 0 .5-.8.9-.1.3.5.8 1 1.1 1.6.4.7 2.4 2.2 2.3 3.5-.7 4.7-.1 10.9.1 11.9.1 1.1-.2 1.5-.7 1m8.3-30.4c2-.6 4.1-1 6.2-1 3.3 0 6.5.6 9.1 2.3.7.4.9 1 .9 1.7 0 2.5-3.9 3.3-6.5 3.3s-5.8-1-8.1-1.8c-2.3-.7-2.8-2-2.8-2.6.1-.5.5-1.7 1.2-1.9m17.7 2.7c.3.3 1.3 1 1.3 1 1.8 1.7 3.5 3.6 4.4 5.8 1.2 2.9-2.5 7.2-3.6 8.2-4.9 4.6-8 4.5-9.7 4.8-1.7.3-2.9-.8-2.8-2.2.1-3.8 2.8-10.5 3.6-11.7.5-.8 1.4-1.3 1.4-1.3 1.8-.5 3.6-1.3 4.5-2.3.9-.9.9-2.3.9-2.3m-11.3-5c-11.8 0-21.3 9.5-21.3 21.3s9.5 21.3 21.3 21.3 21.3-9.5 21.3-21.3-9.5-21.3-21.3-21.3"/><path id="path6190" class="st2" d="M244.4 158.9c0-14 11.3-25.3 25.3-25.3s25.3 11.3 25.3 25.3-11.3 25.3-25.3 25.3c-13.9 0-25.3-11.3-25.3-25.3z"/><path id="path17562" d="M284.6 170.3c-.6.5-.9.1-.6-1 .2-1 .8-7.2.1-11.9-.2-1.3 1.9-2.8 2.3-3.5.4-.7.8-1.2 1.1-1.6.4-.7.9.1.9.1.5 1.8.8 3.6.8 5.6-.1 5-2 9.7-4.6 12.3m-1.7-16.7c-.7-2.5-3.2-7.1-3.8-7.8-.6-.7-.4-1.6-.4-2.1 0-.4.3-1.2.3-1.6 0-.8.5-.8.8-.6 2.9 1.3 5.1 3.8 6.7 6.6.3.6.4 2.1.1 2.6-.4.7-1.5 3.1-2.4 3.6-1.1.5-1.2-.1-1.3-.7m-3.2 20.9c-2.3 1.3-6.1 2.6-9.7 2.6h-.4c-1.1 0-1.1-.7-.4-2.6 1.1-3 1.7-7.9 1.5-12.7-.2-5.4-2.4-10-3.1-11.9-.7-1.9.4-2.1 1.5-2.3 1-.2 2.4-.5 3-.7 1.3-.4 1.7-.6 2.8-.9 1.1-.3 2.5-.1 3.2 1 .6 1.2 4.8 7.2 4.8 17.1 0 3-.9 9.1-3.2 10.4m-15.1 1.8c-7.9-2.5-13.7-9.6-13.7-18.3 0-1.3.3-2.5.4-3.2.2-.8.8-.9 1.1-.3.3.5 1.6 3.4 4.7 6s6.5 4 11.3 4.1c.6 0 .9.9.9 1.7 0 .8-.5 6.8-2.5 9.1-.6.5-1.1 1.3-2.2.9m-11.7-26.8c.9-2.3 2.6-4.2 4.4-5.8 0 0 .9-.8 1.3-1 0 0 .1 1.4 1 2.4s2.7 1.8 4.5 2.3c0 0 .9.5 1.4 1.3.8 1.2 3.5 7.8 3.6 11.7 0 1.3-1.1 2.4-2.8 2.2-1.8-.2-4.8-.2-9.7-4.8-1.2-1-5-5.4-3.7-8.3m8-8.3c2.7-1.7 5.8-2.3 9.1-2.3 2.2 0 4.2.4 6.2 1 .7.2 1.2 1.4 1.2 2 0 .6-.5 1.9-2.8 2.6-2.3.7-5.5 1.7-8.1 1.7-2.6 0-6.5-.9-6.5-3.3 0-.8.2-1.3.9-1.7m8.9-3.6c-11.7 0-21.3 9.5-21.3 21.3s9.5 21.3 21.3 21.3 21.3-9.5 21.3-21.3c0-11.7-9.5-21.3-21.3-21.3" style="fill:#fff;stroke:#fff;stroke-miterlimit:3.863"/><path class="st4" d="M132.8 49.3c-5.9 1.3-9.5-3.6-10.4-7.7-1.3-6.1 2.3-10.4 6.3-11.3 2.9-.6 4.6.1 5.8.6l.8-3.2c-1.9-.8-4.3-1.3-7.9-.5-8 1.8-13.4 7.7-11.6 15.8 1 4.4 4.9 12.4 17.2 9.7 3.4-.6 5.3-2 7-3.7l-2.2-2.6c-.9 1-2.1 2.3-5 2.9zM99.6 38.3l9.3 14.8-20.6-7.7-4.6 2.8 13.1 21 4.9-3.1-9.3-15 20.9 7.8 4.5-2.8-13.1-21zM159.6 26l-.1 10-9.7-.1.1-10.1-6.5-.1-.4 24.7 6.5.1.2-11.3 9.7.2-.2 11.3 6.5.1.4-24.7-6.5-.1zM70.7 60.6l-4.2 4.6 11.9 23.5 2.8-3.1-3.2-6.2 5.7-6.2 6.5 2.8 4.8-5.1-24.3-10.3zM56.8 75.6l-4.6 5.5 8.6 17.7-18.5-6-3.9 4.7 18.9 15.9 2.9-3.4-13.4-11.3 17.9 5.8 1.9-2.2-8.5-17.1 13.4 11.2 4.2-4.9-18.9-15.9zM187.8 45.4l1-3.2-7.2-2.5 2.2-6.4 7.5 2.5 1-3.1-13.6-4.7-8.1 23.4 15.1 5.2 1.1-3.1-8.9-3.1 2.6-7.6zM208.5 44.2c1.9 1.1 2.7 3 3.1 4.3l3-1.3c-.9-2.4-2.3-4.6-5.4-6.5-5.3-3.2-9.6-2.3-11.4.6-1.8 3-1.3 5.5.1 8.1 0 0 .8 1.5 1.3 2.4 1.2 2 2.6 4.5 1.6 6.1-1.2 2-3.2 2.4-5.2 1.2-2.5-1.6-3.1-3.5-3.7-5.3l-3.3 1.4c.7 2.5 2.4 5.1 6.1 7.4 4.6 2.8 9.6 2.3 12-1.6 1.7-2.7 1.7-5-.3-9-.5-1.1-1.2-2-1.7-3-.9-1.7-1.7-3.1-1-4.4 1-1.3 3-1.5 4.8-.4zM238.3 86.7l2.6-2.1-5-5.9 5.2-4.4 5.1 6.1 2.5-2.1-9.2-11.1-19 15.9 10.3 12.2 2.5-2.1-6-7.2 6.1-5.2zM252.6 83.6l-18.4 16.5 4.3 4.8 7.3-6.6 2.1 2.4-4.6 10.4 5.5 4.4 3.8-11.2c0 .1 3.8 1.9 8-1.8 3.5-3.1 2.3-7.4-1.3-11.5l-6.7-7.4zM233.1 64.9l2.2-2.4-15.1-13.7-2.2 2.4 5.2 4.7-14.4 16 4.8 4.3L228 60.3z"/><path class="st4" d="M282.7 96.7c-5.1-3.5-13.8-9.5-27.9-29.5-8.9-12.6-42.6-53.7-103.5-53.7S56.7 54.6 47.9 67.2C33.8 87.1 25.2 93.1 20 96.6l-.2.1-1 .7-.2.1v.3c0 5 1 30 19.1 34.6 11.5 2.9 23.1-3.7 35.6-20.3.4-.6 1-1.4 1.8-2.5 8.4-11.9 33.8-48.2 76.2-48.2 42.3 0 67.8 36.2 76.2 48.2a24 24 0 0 0 1.8 2.5c10.6 14.1 20.5 21 30.3 21 1.7 0 3.5-.2 5.3-.7 18.1-4.6 19.1-29.7 19.1-34.6v-.3l-.2-.1c-.4-.2-.8-.4-1.1-.7zm-18.1 34.8c-11.1 2.8-22.3-3.7-34.5-20-.5-.6-1.1-1.5-1.8-2.5-8.4-12-34.2-48.6-77-48.6-42.9 0-68.5 36.6-77 48.7-.7 1-1.3 1.8-1.7 2.4-12.2 16.3-23.4 22.8-34.5 20-17.1-4.4-18.3-28-18.3-33.4.3-.2.5-.4.8-.5l.2-.1c5.2-3.6 13.9-9.6 28.1-29.7 8.8-12.5 42.2-53.3 102.6-53.3 60.4 0 93.8 40.8 102.6 53.3 14.3 20.2 23 26.2 28.2 29.8l.9.6c-.3 5.3-1.5 29-18.6 33.3z"/><path class="st0" d="M253.9 67.7c-8.8-12.5-42.3-53.3-102.6-53.3-60.4 0-93.8 40.8-102.6 53.3-14.2 20.2-22.9 26.2-28.1 29.8l-.2.1c-.3.2-.5.4-.8.5 0 5.4 1.2 29 18.3 33.4 11.1 2.8 22.3-3.7 34.5-20 .4-.6 1-1.4 1.7-2.4 8.5-12.1 34.2-48.7 77-48.7s68.5 36.6 77 48.6a24 24 0 0 0 1.8 2.5c12.2 16.3 23.4 22.8 34.5 20 17.1-4.4 18.3-28 18.4-33.4l-.9-.6c-5-3.6-13.7-9.5-28-29.8zM71.5 96.4 58.1 85.2l8.6 17.1-1.9 2.2-17.9-5.8L60.2 110l-2.9 3.4-18.9-15.9 4-4.7 18.4 6L52.2 81l4.6-5.5 18.9 15.9-4.2 5zM90.2 76l-6.5-2.7-5.7 6.1 3.2 6.3-2.9 3.1-11.8-23.6 4.2-4.5L95 70.9 90.2 76zm23.1-17.1-20.9-7.8 9.3 14.9-5 3.1-13.1-21 4.6-2.9 20.7 7.7-9.3-14.8 5-3.2 13.1 21-4.4 3zm19.7-6.2c-12.3 2.6-16.2-5.4-17.2-9.7-1.7-8.1 3.6-14 11.6-15.7 3.6-.8 6-.3 7.9.5l-.8 3.2c-1.1-.4-2.9-1.2-5.8-.6-4 .9-7.6 5.1-6.3 11.3.9 4.2 4.4 9 10.4 7.7 2.8-.6 4.1-2 4.9-2.9L140 49c-1.8 1.7-3.6 3.1-7 3.7zm32.7-1.9-6.5-.1.2-11.3-9.7-.2-.2 11.3-6.5-.1.4-24.7 6.5.1-.1 10.1 9.7.1.2-10.1 6.5.1-.5 24.8zm12.2-.4 8.9 3.1-1.1 3.1-15.1-5.2 8-23.4 13.7 4.7-1.1 3.1-7.5-2.6-2.2 6.5 7.3 2.5-1.1 3.1-7.3-2.5-2.5 7.6zm26.9-1.3c.5 1 1.2 1.9 1.7 3 2.1 4.1 2 6.3.3 9-2.4 3.9-7.4 4.4-12 1.6-3.7-2.3-5.4-4.9-6.1-7.4L192 54c.5 1.8 1.1 3.7 3.7 5.3 2 1.2 4 .8 5.2-1.2 1-1.6-.4-4.1-1.6-6.1-.5-1-1.3-2.4-1.3-2.4-1.4-2.6-1.9-5.1-.1-8.1 1.8-3 6.1-3.8 11.4-.6 3.1 1.8 4.4 4 5.4 6.5l-3 1.3c-.4-1.3-1.2-3.2-3.1-4.3-1.8-1.1-3.8-1-4.7.4-.8 1.2 0 2.6.9 4.3zm4 22.8L223.2 56l-5.2-4.7 2.2-2.4 15.1 13.6-2.2 2.4-5.1-4.6-14.3 15.9-4.9-4.3zm24.5 21.3-2.6 2.1-10.2-12.2 18.9-15.9 9.3 11.1-2.5 2.1-5.1-6.1-5.2 4.4 5 5.9-2.6 2.1-4.9-5.9-6.1 5.1 6 7.3zm27.3 9.4c-4.2 3.8-7.9 1.9-8 1.8l-3.8 11.2-5.5-4.4 4.6-10.4-2.1-2.4-7.3 6.6-4.3-4.8 18.4-16.5 6.7 7.5c3.7 4 4.8 8.3 1.3 11.4z"/><path class="st0" d="M284.9 97.1c-5.1-3.6-13.7-8.2-29.4-30.5-15.4-21.8-50.2-54.2-104.3-54.2-54 0-88.8 32.4-104.2 54.2-15.7 22.3-24.3 26.8-29.3 30.5 0 0-1.1 31 19.8 36.4 14.3 3.6 26.6-7.3 36.6-20.7 5.6-7.5 31.6-50.3 77.2-50.3s71.5 42.8 77.2 50.3c10.1 13.4 22.4 24.3 36.6 20.7 20.9-5.4 19.8-36.4 19.8-36.4zm-.9.8c0 5-1 30-19.1 34.6-1.7.4-3.5.7-5.3.7-9.8 0-19.7-6.9-30.3-21-.5-.6-1.1-1.5-1.8-2.5-8.4-11.9-33.9-48.2-76.2-48.2-42.3 0-67.8 36.3-76.2 48.2-.8 1.1-1.3 1.9-1.8 2.5-12.5 16.7-24.1 23.3-35.6 20.3-18.1-4.6-19.1-29.7-19.1-34.6v-.3l.2-.1 1-.7.2-.1c5.1-3.6 13.7-9.5 27.8-29.5 8.9-12.6 42.5-53.7 103.4-53.7 60.9 0 94.6 41.1 103.5 53.7 14.2 20.1 22.8 26 27.9 29.5.4.3.7.5 1.1.7l.2.1.1.4z"/><path d="M262.8 194.1c-2.8-3.1-7-5.1-10.6-5.1-6.2 0-8.6 2.8-10.8 5.3l-.4.4c-25 28.4-59.2 46-89.3 46-30.2 0-64.4-17.6-89.3-46.1l-.4-.4c-2.2-2.5-4.6-5.3-10.9-5.3-3.6 0-7.8 2-10.6 5.1-3 3.3-4.3 7.6-3.9 12.6.9 9.5 16.3 34.3 43.8 49.9 22.4 12.8 46.4 19.2 71.2 19.2 24.8 0 48.8-6.5 71.2-19.2 27.5-15.6 42.9-40.4 43.8-49.9.5-4.9-.8-9.1-3.8-12.5zm-181.3 60c-4.2-2.3-9.6-7.1-5.3-14.8l7.8-14 5.9 3.3-7.3 13.2c-2.3 4.1-3.1 7.1.6 9.2 3.7 2.1 6-.4 8.2-4.4l7.3-13.2 5.9 3.3-7.8 14.1c-4.3 7.7-10.8 5.8-15.3 3.3zm46.4 15.4-5.1-1.4-8.6-20.5-4.5 17-5.7-1.5 6.4-23.9 5.3 1.4L124 261l4.5-16.9 5.7 1.5-6.3 23.9zm19 2.3-6.5-.3 1.3-24.7 6.5.4-1.3 24.6zm24-2.3-6.4.9-3-21.2-6.9 1-.4-3.2 20.2-2.9.5 3.3-6.8.9 2.8 21.2zm16.6-3.6-7.6-23.5 13.8-4.5 1 3.1-7.5 2.5 2.1 6.5 7.3-2.4 1 3.2-7.3 2.4 2.5 7.6 9-2.9 1 3.1-15.3 4.9zm33.3-14.1-8.3 4.8-12.5-21.5 8.4-4.8c7.6-4.4 14.3-4.2 18.4 3 3.4 6 2.6 13.5-6 18.5z" style="fill:#fff;stroke:#fff;stroke-width:.75;stroke-miterlimit:10"/><g><path class="st0" d="M252.3 187.6c4.1 0 8.6 2.1 11.7 5.6 3.3 3.6 4.8 8.4 4.3 13.8-.4 4.5-3.9 13-12.4 23.6-6.1 7.7-16.7 18.7-32.2 27.5-22.6 12.9-46.8 19.4-71.9 19.4-25.1 0-49.3-6.5-71.9-19.4-15.5-8.8-26.1-19.8-32.2-27.5-8.5-10.6-11.9-19.1-12.3-23.6-.5-5.4 1-10.2 4.3-13.8 3.1-3.4 7.6-5.5 11.7-5.5 6.9 0 9.7 3.2 12 5.8l.4.4c24.7 28.1 58.5 45.5 88.2 45.5 29.7 0 63.5-17.4 88.2-45.5l.4-.5c2.1-2.6 4.9-5.8 11.7-5.8m0-3c-8.2 0-11.8 4.1-14.2 6.8l-.4.4c-24.1 27.5-57.1 44.5-86 44.5s-61.8-17.1-85.9-44.5l-.4-.4c-2.4-2.7-6-6.8-14.3-6.8-4.9 0-10.2 2.5-13.9 6.5-3.9 4.3-5.6 9.8-5 16.1 1.1 11.8 18.2 37.6 46 53.4 23.1 13.2 47.8 19.8 73.4 19.8 25.6 0 50.3-6.7 73.4-19.8 27.9-15.8 45-41.6 46.1-53.4.6-6.3-1.2-11.8-5-16.1-3.5-4-8.8-6.5-13.8-6.5z"/></g></svg>