<svg xmlns="http://www.w3.org/2000/svg" viewBox="0 0 100 28" style="enable-background:new 0 0 100 28" xml:space="preserve"><path d="M53.2 27.3h13.7c2.1 0 3.7-.8 5.1-2.5a9 9 0 0 0 2-5.8c0-4.5-5.7-7.7-7.9-7.7h-7.5c-.6 0-1.1-.3-1.4-.7-.4-.5-.6-1-.6-1.6 0-.7.2-1.4.6-1.9a2 2 0 0 1 1.6-.8h14.1V.6H58.5c-2.6 0-4.6.8-6 2.3a8 8 0 0 0-1.9 5.6 9 9 0 0 0 1.9 5.8 6.5 6.5 0 0 0 5.2 2.6h8.7c.5 0 .9.2 1.3.6.4.4.5 1 .5 1.5 0 .7-.3 1.3-.7 1.8-.5.5-1 .7-1.7.7h-14l-.2-.4-5.2-16.7-.3-.5A6.6 6.6 0 0 0 39.8 0a8 8 0 0 0-4.3 1.2c-1.3.8-2.2 2-2.6 3.4l-7 22.6 6.4.1 6.4-20.1c.2-.6.5-1 1-1 .3 0 .5.1.6.3.2.2.3.4.3.7l6.5 20.1h6.1zM5.9 8.8v18.4H0V6.8c0-2.6.6-4.5 2-5.6C3 .4 4.6 0 6.8 0c1.8 0 3.3.5 4.7 1.5 1.4 1 2.3 2.4 2.7 4.1L18 19.2l.6 1.8c.1.4.3.6.5.8.3.2.5.3.8.2.5-.1.8-.4.8-.8V.6h6V21c0 2.3-.5 4-1.6 5.2-1.1 1.2-2.6 1.8-4.7 1.8-1.8 0-3.4-.4-4.6-1a5 5 0 0 1-2.8-3.4L8.7 8.1l-.3-1c-.1-.4-.4-.7-.6-.9-.3-.2-.6-.3-.9-.2-.3 0-.5.2-.7.5l-.3.9v1.4zM100 27.3 93.2 4.4l-.3-.5A6.6 6.6 0 0 0 86.6 0a8 8 0 0 0-4.3 1.2c-1.3.8-2.2 2-2.6 3.4l-7 22.6 6.4.1 6.4-20.1c.2-.6.5-1 1-1 .3 0 .5.1.6.3.2.2.3.4.3.7L94 27.3h6z" style="fill:#fff"/></svg>