<svg xmlns="http://www.w3.org/2000/svg" viewBox="0 0 116 16" style="enable-background:new 0 0 116 16" xml:space="preserve"><path d="M50.1 10.3h7.7l-4-6.5-7.4 11.8H43l9-14.2a2 2 0 0 1 1.8-.9c.7 0 1.4.3 1.8.9l9.1 14.2h-3.4L59.7 13h-7.8l-1.8-2.7zm35.1 2.6V.6h-2.9v13.5c0 .4.2.7.4 1 .3.3.7.4 1.1.4h13.1l1.7-2.6H85.2zm-47.5-2.2a5 5 0 0 0 5-5.1c0-2.8-2.3-5.1-5-5.1H25.1v14.9H28V3.2h9.5c1.3 0 2.4 1.1 2.4 2.4 0 1.3-1.1 2.4-2.4 2.4h-8.1l8.6 7.5h4.2l-5.8-4.8h1.3zM7.5 15.5C3.3 15.5 0 12.2 0 8.1S3.3.6 7.5.6h8.7a7.5 7.5 0 1 1 0 15l-8.7-.1zm8.5-2.6a4.8 4.8 0 0 0 0-9.6H7.7a4.8 4.8 0 1 0-.1 9.6H16zm54.5 2.6a7.5 7.5 0 1 1 0-15h10.3l-1.7 2.6h-8.4a4.8 4.8 0 0 0 0 9.6h10.4l-1.7 2.6h-8.9v.2zm35.1-2.6a5 5 0 0 1-4.7-3.5h12.3l1.7-2.6h-14c.6-2 2.4-3.5 4.7-3.5h8.4l1.7-2.6h-10.3a7.5 7.5 0 1 0 0 15h8.9l1.7-2.6h-10.4z" style="fill:#fff"/></svg>