<svg version="1.1" id="Layer_1" xmlns="http://www.w3.org/2000/svg" x="0" y="0" viewBox="0 0 59 59" style="enable-background:new 0 0 59 59" xml:space="preserve"><style>.st0{fill:#ff6700}</style><g id="Group_1802" transform="translate(-2862 -2738.4)"><path id="Path_467" class="st0" d="M2895.7 2769.5c0-9.6-3.4-14-5.2-15.6a.5.5 0 0 0-.7 0l-.1.4c.4 5.4-6.5 6.8-6.5 15.3 0 5.2 3.9 9.4 8.7 9.4s8.7-4.2 8.7-9.4a14 14 0 0 0-1.8-6.4c-.2-.4-.7-.2-.7.1 1.7 7.3-2.4 11.8-2.4 6.2z"/><path id="Path_468" class="st0" d="m2885.3 2789.7-.6-.3-22.4-22.4a1 1 0 0 1 0-1.2l23.6-23.6.6-.2h6.8c.3 0 .6.2.8.5.1.3 0 .7-.2.9l-22.2 22.2c-.4.4-.5 1.1 0 1.6l17.5 17.6c.3.3.3.9 0 1.2l-3.4 3.4c-.1.2-.3.3-.5.3zm4.5 3.9c-.3 0-.6-.2-.8-.5a1 1 0 0 1 .2-.9l22.2-22.2.4-.8a1 1 0 0 0-.4-.8l-17.6-17.6a1 1 0 0 1 0-1.2l3.4-3.4.6-.3.6.3 22.3 22.4c.3.3.3.9 0 1.2l-23.6 23.6-.6.3-6.7-.1z"/></g></svg>