<?xml version="1.0" encoding="UTF-8"?>
<svg width="30px" height="30px" viewBox="0 0 30 30" version="1.1" xmlns="http://www.w3.org/2000/svg" xmlns:xlink="http://www.w3.org/1999/xlink">
    <title>task</title>
    <g id="task" stroke="none" stroke-width="1" fill="none" fill-rule="evenodd">
        <g id="Group-5" transform="translate(2.000000, 0.000000)" stroke="#3079ED">
            <g id="Group-3" stroke-width="2">
                <g id="Group-2">
                    <path d="M1,10.7673471 L1,10 C1,7.23857625 3.23857625,5 6,5 L19,5 C21.7614237,5 24,7.23857625 24,10 L24,25 C24,27.7614237 21.7614237,30 19,30 L6,30 C3.23857625,30 1,27.7614237 1,25 L1,23.2713515 L1,23.2713515" id="Rectangle" transform="translate(12.500000, 17.500000) rotate(90.000000) translate(-12.500000, -17.500000) "></path>
                    <path d="M12.5,1 C13.1253102,1 13.697071,1.2294756 14.1354122,1.60904602 C14.779301,2.16660515 15.1367899,3.04715996 14.9507179,4.00009846 L14.9507179,4.00009846 L17,4 C17.2761424,4 17.5261424,4.11192881 17.7071068,4.29289322 C17.8880712,4.47385763 18,4.72385763 18,5 L18,5 L18,7 C18,7.27614237 17.8880712,7.52614237 17.7071068,7.70710678 C17.5261424,7.88807119 17.2761424,8 17,8 L17,8 L8,8 C7.72385763,8 7.47385763,7.88807119 7.29289322,7.70710678 C7.11192881,7.52614237 7,7.27614237 7,7 L7,7 L7,5 C7,4.72385763 7.11192881,4.47385763 7.29289322,4.29289322 C7.47385763,4.11192881 7.72385763,4 7.99995195,4 L7.99995195,4 L10.0492821,4.00009846 C9.86321012,3.04715996 10.220699,2.16660515 10.8645878,1.60904602 C11.302929,1.2294756 11.8746898,1 12.5,1 Z" id="Combined-Shape"></path>
                </g>
                <circle id="Oval" cx="19" cy="23" r="6"></circle>
            </g>
            <polyline id="Path-4" points="16.9496805 23.1810334 18.7427099 25.4040359 21.5459145 21.5698299"></polyline>
        </g>
    </g>
</svg>