<svg xmlns="http://www.w3.org/2000/svg" viewBox="0 0 120 20" style="enable-background:new 0 0 120 20" xml:space="preserve"><filter id="a"><feColorMatrix in="SourceGraphic" values="0 0 0 0 0.129412 0 0 0 0 0.168627 0 0 0 0 0.211765 0 0 0 1.000000 0"/></filter><g style="filter:url(#a)"><path style="fill:#e6248a" d="M115.2 14.2h4.8v4.7h-4.8z"/></g><path d="M10.1 7.5H7.2v6.6c0 1.1.6 1.4 1.7 1.4l1.2-.1v3.5l-2.6.2c-4 0-5.1-1.2-5.1-5.2V7.5H0V4.3h2.4V0h4.8v4.3h2.9v3.2zm4.2 5.3c.1 2 1.2 3.3 3.2 3.3 1.1 0 2.3-.6 2.7-1.6h4.4c-.8 3.4-3.9 4.8-7.2 4.8-4.8 0-8-2.8-8-7.7 0-4.4 3.5-7.7 7.8-7.7 5.2 0 7.8 3.9 7.6 8.9H14.3zm5.8-2.7c-.1-1.6-1.2-3-2.8-3-1.7 0-2.8 1.2-3.1 3h5.9zm15.3-.4c0-1.2-1.1-2.1-2.3-2.1-2.7 0-3.1 2.3-3.1 4.3 0 1.9.8 3.8 2.8 3.8 1.7 0 2.5-1 2.7-2.5h4.6c-.4 3.9-3.4 6.2-7.2 6.2-4.3 0-7.7-3-7.7-7.4 0-4.6 2.9-7.9 7.7-7.9C36.5 4 39.7 6 40 9.7h-4.6zM40.3 0H45v6.4h.1C45.8 5 47.8 4 49.5 4c4.8 0 5.2 3.5 5.2 5.6v9.3H50v-7c0-2 .2-4-2.4-4-1.8 0-2.6 1.5-2.6 3.1v7.9h-4.8V0zm14.9 4.3h4.6v2.6h.1c.7-1.9 2.3-2.8 4.3-2.8l1.1.1v4.3c-.6-.2-1.2-.2-1.9-.2-2.3 0-3.5 1.6-3.5 3.5V19h-4.8V4.3zm10.1 4.6c.1-1.9 1-3.1 2.3-3.9 1.3-.7 3-1 4.6-1 3.5 0 6.8.7 6.8 4.8v6.4c0 1.2 0 2.6.6 3.7h-4.8c-.2-.5-.2-.9-.2-1.4a6.4 6.4 0 0 1-4.8 1.9c-2.7 0-5-1.4-5-4.4 0-4.8 5.2-4.3 8.5-5.1.8-.2 1.3-.5 1.3-1.4 0-1.1-1.3-1.5-2.3-1.5-1.3 0-2.2.6-2.4 1.9h-4.6zm6.1 7.5c2.3 0 3.1-1.3 2.9-4.3-.6.4-1.9.5-2.9.8-1 .2-1.9.7-1.9 1.9s.9 1.6 1.9 1.6zm22.9 2.5h-4.5v-1.7h-.1a4.8 4.8 0 0 1-3.9 2.1c-4.6 0-6.5-3.9-6.5-8 0-3.8 2-7.3 6.1-7.3 1.8 0 3.1.6 4.1 2h.1V0h4.8v18.9h-.1zM84 11.5c0 2 .7 4.2 2.9 4.2 2.3 0 2.8-2.2 2.8-4 0-2.1-.7-4-2.8-4-2.2-.1-2.9 2-2.9 3.8zm11-2.6c.1-1.9 1-3.1 2.3-3.9s3-1 4.6-1c3.5 0 6.8.7 6.8 4.8v6.4c0 1.2 0 2.6.6 3.7h-4.8c-.2-.5-.2-.9-.2-1.4a6.4 6.4 0 0 1-4.8 1.9c-2.7 0-5-1.4-5-4.4 0-4.8 5.2-4.3 8.5-5.1.8-.2 1.3-.5 1.3-1.4 0-1.1-1.3-1.5-2.3-1.5-1.3 0-2.2.6-2.4 1.9H95zm6.2 7.5c2.3 0 3.1-1.3 2.9-4.3-.6.4-1.9.5-2.9.8-1 .2-1.9.7-1.9 1.9-.2 1.1.8 1.6 1.9 1.6zm8.2-12.1h4.6v2.6h.1c.7-1.9 2.3-2.8 4.3-2.8l1.6.1v4.3c-.6-.2-1.6-.2-2.3-.2-2.3 0-3.5 1.6-3.5 3.5V19h-4.8V4.3z"/></svg>