<?xml version="1.0" encoding="UTF-8"?>
<svg width="30px" height="30px" viewBox="0 0 30 30" version="1.1" xmlns="http://www.w3.org/2000/svg" xmlns:xlink="http://www.w3.org/1999/xlink">
    <title>text-messages</title>
    <g id="text-messages" stroke="none" stroke-width="1" fill="none" fill-rule="evenodd">
        <g transform="translate(1.000000, 1.000000)" fill-rule="nonzero">
            <path d="M0,11.35 C0,15.05 2.15,18.5 5.85,20.6 L4.95,27 C4.9,27.35 5.05,27.7 5.4,27.9 C5.55,27.95 5.7,28 5.85,28 C6.05,28 6.25,27.95 6.4,27.8 L12.5,22.7 C13.05,22.75 13.55,22.75 14,22.75 C21.7,22.75 28,17.65 28,11.35 C28,5.1 21.7,0 14,0 C6.3,0 0,5.1 0,11.35 Z" id="Shape" stroke="#3079ED" stroke-width="2"></path>
            <path d="M7.25,10.1 C6.45,10.1 5.75,10.8 5.75,11.6 C5.75,12.4 6.45,13.1 7.25,13.1 C8.05,13.1 8.75,12.4 8.75,11.6 C8.75,10.8 8.05,10.1 7.25,10.1 L7.25,10.1 Z" id="Path" fill="#3079ED"></path>
            <path d="M13.75,10.1 C12.95,10.1 12.25,10.8 12.25,11.6 C12.25,12.4 12.95,13.1 13.75,13.1 C14.55,13.1 15.25,12.4 15.25,11.6 C15.25,10.8 14.55,10.1 13.75,10.1 L13.75,10.1 Z" id="Path" fill="#3079ED"></path>
            <path d="M20.25,10.1 C19.45,10.1 18.75,10.8 18.75,11.6 C18.75,12.4 19.45,13.1 20.25,13.1 C21.05,13.1 21.75,12.4 21.75,11.6 C21.75,10.8 21.05,10.1 20.25,10.1 L20.25,10.1 Z" id="Path" fill="#3079ED"></path>
        </g>
    </g>
</svg>