<?xml version="1.0" encoding="UTF-8"?>
<svg width="30px" height="30px" viewBox="0 0 30 30" version="1.1" xmlns="http://www.w3.org/2000/svg" xmlns:xlink="http://www.w3.org/1999/xlink">
    <title>unlimit</title>
    <g id="unlimit" stroke="none" stroke-width="1" fill="none" fill-rule="evenodd">
        <g id="Group-7" transform="translate(14.706159, 15.500724) rotate(-40.000000) translate(-14.706159, -15.500724) translate(-2.000000, 8.000000)" fill="#3079ED" fill-rule="nonzero">
            <path d="M12.8729718,2.19608396 C9.9298524,-0.732027986 5.1549066,-0.732027986 2.2119854,2.19608396 C2.21043677,2.19762384 2.20888813,2.19762384 2.20733956,2.19916378 C-0.735779854,5.12727572 -0.735779854,9.87391036 2.20733956,12.8022851 C2.20888813,12.8038251 2.21043677,12.8038251 2.2119854,12.8053649 C5.15510482,15.7334769 9.93005062,15.7334769 12.8729718,12.8053649 C15.1316341,10.5609566 17.3902303,8.31346014 17.3902303,8.31346014 C17.8419033,7.86432222 17.8419033,7.13751104 17.3902303,6.68836655 C17.3902303,6.68836655 15.131568,4.44087013 12.8729718,2.19646175 L12.8729718,2.19608396 Z M11.1391685,3.57710628 L15.0014489,7.46259723 C15.0014489,7.46259723 11.1391685,11.3480882 11.1391685,11.3480882 C9.00748671,13.4916996 5.55118839,13.4916996 3.41971357,11.3480882 C3.41971357,11.346462 3.41809648,11.3448358 3.41647938,11.3432097 C1.28479757,9.19959818 1.28479757,5.72555298 3.41647938,3.5819415 C3.41809648,3.58031535 3.41971357,3.5786892 3.41971357,3.57706299 C5.55139538,1.43345151 9.0076937,1.43345151 11.1391685,3.57706299 L11.1391685,3.57710628 Z" id="Shape"></path>
            <path d="M20.5393462,2.19646175 C18.2806839,4.44087013 16.0220877,6.68836655 16.0220877,6.68836655 C15.5704147,7.13750447 15.5704147,7.86431565 16.0220877,8.31346014 C16.0220877,8.31346014 18.28075,10.5609566 20.5393462,12.8053649 C23.4824656,15.7334769 28.2574114,15.7334769 31.2003326,12.8053649 C31.2018812,12.8038251 31.2034299,12.8038251 31.2049784,12.8022851 C34.1480979,9.87417317 34.1480979,5.12753853 31.2049784,2.19916378 C31.2034299,2.19762384 31.2018812,2.19762384 31.2003326,2.19608396 C28.2572132,-0.732027986 23.4822674,-0.732027986 20.5393462,2.19608396 L20.5393462,2.19646175 Z M22.2731495,3.57706299 C24.4048313,1.43345151 27.8611296,1.43345151 29.9926044,3.57706299 C29.9926044,3.5786892 29.9942215,3.58031535 29.9958386,3.5819415 C32.1275204,5.72555298 32.1275204,9.19959818 29.9958386,11.3432097 C29.9942215,11.3448358 29.9926044,11.346462 29.9926044,11.3480882 C27.8609226,13.4916996 24.4046243,13.4916996 22.2731495,11.3480882 C22.2731495,11.3480882 18.4108691,7.46259723 18.4108691,7.46259723 L22.2731495,3.57706299 Z" id="Shape"></path>
        </g>
    </g>
</svg>