<svg width="56" height="56" xmlns="http://www.w3.org/2000/svg"><g fill="none" fill-rule="evenodd"><path d="M0 0h56v56H0z"/><path d="M28 0a28 28 0 1 1 0 56 28 28 0 0 1 0-56Zm20.1 42H24l6 10.4c7.5-.6 14-4.6 18.1-10.4ZM13.9 31.5l-6 10.4c4 5.9 10.5 9.9 18 10.5l-6.5-11.2V41l-5.5-9.6Zm20.2-14H21.9L16 28l6 10.5h12.2L40 28l-6-10.5Zm16 0L43.8 29 38 38.5h12a24.4 24.4 0 0 0 0-21Zm-32.2 0h-12a24.4 24.4 0 0 0 0 21l12-21Zm12.2-14 12 21 6-10.4c-4-5.9-10.5-9.9-18-10.5ZM7.9 14H32L26 3.6C18.5 4.2 12 8.2 8 14Z" fill="#3079ED" fill-rule="nonzero"/></g></svg>