<svg width="160" height="44" xmlns="http://www.w3.org/2000/svg"><g fill="#3079ED" fill-rule="evenodd"><path d="M15.04 33.7a.91.91 0 0 0-.83-.86l-1.02-.1a2.98 2.98 0 0 1-2.68-2.67c-.6-5.98-.6-10.99 0-16.97a2.95 2.95 0 0 1 2.65-2.64c3.1-.3 5.84-.44 8.55-.44 2.7 0 5.44.14 8.55.44a2.95 2.95 0 0 1 2.65 2.64l.13 1.37a3.18 3.18 0 0 0 3.18 2.9h2.47A4.31 4.31 0 0 0 43 12.7c-.11-1.11-.24-2.25-.38-3.43A9.72 9.72 0 0 0 34.1.81 95.45 95.45 0 0 0 9.3.8 9.72 9.72 0 0 0 .8 9.27a94.04 94.04 0 0 0 0 24.67 9.72 9.72 0 0 0 8.51 8.46 95.43 95.43 0 0 0 24.8 0 9.72 9.72 0 0 0 8.49-8.47c.14-1.17.27-2.3.37-3.42a4.27 4.27 0 0 0-4.29-4.68h-2.47a3.19 3.19 0 0 0-3.18 2.9l-.13 1.38a2.94 2.94 0 0 1-2.65 2.63 92 92 0 0 1-5.01.37 2.6 2.6 0 0 0-1.57.6 60.29 60.29 0 0 1-7.05 5.12.86.86 0 0 1-.84.03.85.85 0 0 1-.47-.7l-.28-4.47ZM56.53 15.68a10.15 10.15 0 0 0 0 13.3 8.46 8.46 0 0 0 6.4 2.56c4.23 0 7.41-2.34 8.25-6.64h-4.44a3.62 3.62 0 0 1-3.6 2.48c-2.56 0-4.41-2.13-4.41-5.06a5.46 5.46 0 0 1 1.22-3.67 3.84 3.84 0 0 1 3.08-1.46 3.66 3.66 0 0 1 3.67 2.51h4.4c-.65-4.33-3.83-6.64-8.17-6.64a8.5 8.5 0 0 0-6.4 2.62ZM74.79 5.66v25.5h4.51V21.8c0-2.8 1.3-4.34 3.15-4.34 1.68 0 2.52 1.05 2.52 3.18v10.51h4.58V19.66c0-4.08-2-6.6-5.74-6.6-1.8-.1-3.5.75-4.51 2.24V5.66h-4.51ZM93.6 19.28h4.41a2.4 2.4 0 0 1 2.66-2.34c1.64 0 2.48.9 2.48 2.69v.66l-4.58.84c-3.46.56-5.49 2.06-5.49 5.3 0 3.12 2.17 5.1 5.39 5.1a5.62 5.62 0 0 0 5.07-2.54l.28 2.16h3.88V19.53c0-4.23-2.7-6.47-7.03-6.47-4.1 0-6.82 2.55-7.07 6.22Zm9.55 4.58c.02.82-.2 1.63-.63 2.34a3.13 3.13 0 0 1-2.83 1.6c-1.3 0-2.06-.66-2.06-1.75 0-1.01.66-1.67 2-1.99l3.52-.73v.53Zm18.01-10.8a5 5 0 0 0-4.8 2.7l-.34-2.31h-3.88v17.7h4.51V21.8c0-2.8 1.3-4.34 3.15-4.34 1.68 0 2.52 1.05 2.52 3.18v10.51h4.58V19.66c0-4.08-2-6.6-5.74-6.6Zm11.33-3.9-.03 4.29h-2.9v4.12h2.9l-.07 8.23c-.04 3.92 1.88 5.6 5.84 5.6.97.02 1.94-.1 2.86-.4v-3.97c-.6.17-1.23.25-1.85.24-1.72 0-2.31-.7-2.31-2.55l.07-7.16h4.1v-4.12h-4.07l.04-4.3-4.58.01ZM155.2 13l-3.37 10.77-.35 1.52-.34-1.52L147.77 13H143l6.13 17.35-2.62 7.65h4.6L160 13h-4.8Z"/></g></svg>