<svg xmlns="http://www.w3.org/2000/svg" viewBox="0 0 80 44" style="enable-background:new 0 0 80 44" xml:space="preserve"><path d="M79.9 0v43.1H0V0h79.9zM61.1 4.8C52.5 4.8 47 14.3 47 21.6s5.5 16.9 14.1 16.9S75.2 29 75.2 21.6c-.1-7.4-5.5-16.8-14.1-16.8zm-41.5-.1C11 4.7 4.9 12.5 4.9 21.9c0 8.9 6.6 16.5 15.4 16.5 4.5 0 7.9-2.1 8.5-2.5l.1-.1 1.9 2h.6v-9.5h-1s-1.5 9.2-10.2 9.2c-7.5 0-9-6.9-9.2-15.7v-3.1c.1-6.2.9-13.2 8.8-13.2 8.8 0 9.9 9.2 9.9 9.2h1l-.2-9.4h-.7l-2.3 2.3c-.3-.4-3.1-2.9-7.9-2.9zm27.3.4H33.4v1h4.1V37h-4.1v.9h13.5V37h-4.2V6.1h4.2v-1zm14.2.4c6.8 0 7.8 5.3 8 11.5V26.8c-.2 5.8-1.5 10.6-7.9 10.6-6.7 0-7.8-5.3-8-11.4V15.8c.3-5.7 1.6-10.3 7.9-10.3z"/></svg>