<svg width="64" height="64" xmlns="http://www.w3.org/2000/svg"><g fill="none" fill-rule="evenodd"><circle fill="#EAF2FD" cx="32" cy="32" r="32"/><path d="M32 16c.2 0 .3 0 .4.2a12 12 0 0 0 4.8 2.8c1.4.4 3.1.4 5.9.4h.8c.4 0 .7.3.7.7v2c0 4 0 7.4-.2 10.4v.5c-.3 1.4-.5 2.7-1 3.9-1.3 4.3-4.5 7.6-11.1 11h-.6c-6.6-3.4-9.8-6.7-11.2-11-1-2.9-1.1-6.2-1.1-10.2v-6.6c0-.4.3-.7.7-.7h2c2 0 3.5 0 4.7-.4a12 12 0 0 0 4.8-2.8l.4-.2Zm-1 17h-9.3c.1 1.2.4 2.2.7 3.3 1.1 3.5 3.7 6.2 8.6 9V33Zm11.3 0H33v12.3c4.8-2.7 7.3-5.4 8.5-8.8v-.2l.2-.4c.3-.9.5-1.8.6-2.9Zm-15-12h-.4c-1 .3-2.2.4-4.4.4h-1.1V31H31V19.1c-1.3 1-2.4 1.5-3.7 1.8ZM33 19V31h9.5l.1-6.4v-3.2h-1.3c-2.1 0-3.3-.1-4.4-.4h-.2c-1.3-.4-2.4-1-3.7-1.9Z" fill="#3079ED" fill-rule="nonzero"/></g></svg>