<svg version="1.1" id="Layer_1" xmlns="http://www.w3.org/2000/svg" x="0" y="0" viewBox="0 0 1228 1166.9" style="enable-background:new 0 0 1228 1166.9" xml:space="preserve"><style>.st0{fill:#fff}</style><path class="st0" d="M635 83c1 4-1 8 4 11 1 1 0 4-1 4-5 2-2 6-2 8l-1 3c-7 0-8 0-7-7 4-4 1-8 0-12-1-3-2-5 0-7h7zm-94 526c1 0 4 1 3 5l1 5c1 2 2 6-2 7s-7-2-8-5c-3-4 0-12 6-12zm-42-22c-2 0-5 0-5 3-1 4-5 5-7 6-4-1-5-3-5-7 5-2 8-9 15-9 3 2 3 4 1 7zm371-302c-4 2-6-3-9-3-4 2-6 2-7-3 0-2 0-5 3-6 4 1 7 4 12 3 2 0 3 3 3 5s1 4-2 4zM712 624c4-6 7-1 10 0l1 1-1 1c-2 2-4 3-2 7 3 4-2 6-9 5-3-4-1-6 1-9v-5zm32 88c1 3 1 7-4 7-6 0-5-4-5-9 0-4 0-8 6-7 5 1 2 5 3 8zm-67-603c0 3-1 4-4 4-3 1-10-6-10-9s2-4 5-5c2 0 9 8 9 10zM352 293h4c4 1 1 5 3 7 3 1 5 3 4 6-1 2-2 4-5 3-3 0-5-2-5-5s-1-4-2-5c-2-2 0-4 1-6zm-55 129c-4 2-1 9-7 9-3 0-6-2-5-5s1-9 7-9c3 0 5 1 5 4zm381-304c0-3 0-5 3-6 2-1 4-1 6 1 1 2 1 5-1 7v3c2 2 1 5-1 6-3 1-5 0-7-2l-1-3c0-2 3-4 1-7zm13 520 3-8c1-3 4-3 6-3 3 1 3 3 3 6s-2 6-4 8c-3 1-6 0-8-3zm-220 85c2 4-1 7-5 6-5 0-3-5-4-8 0-4 1-6 5-6 5 0 5 4 4 8zm315-497v-2c-4-2-6-4-3-8 3-3 7-2 10 1 3 2 2 6-1 8-2 0-4 2-6 1zM521 610c-3-3-5-6-1-9 3-2 6 0 8 2 4 4 2 7-2 9-2 2-4 0-5-2zm225 2c3-1 4-4 8-3 3 1 1-3 3-4 2 2 3 4 6 5l1 1c-1 3-3 4-6 6-2-2-1 2-3 2h-6c-2-2-3-4-3-7zM369 213c-4 0-8-1-8-6 0-2 3-5 4-4 3 2 9-1 9 6 0 3-2 5-5 4zm70 458c5 1 9 1 8 6 0 3-3 5-6 4s-7-2-6-6c0-4 3-4 4-4zm373-90c-2 2-4 4-4 6-2 2-4 2-6 1l-3-4c0-3 2-4 4-5 1-5 5-4 8-4 2 1 3 4 1 6zm111-101c-2 2-1 8-7 8-3 0-5-2-4-5s1-7 6-8c3 0 5 1 5 5zm-50 58-10 3a24 24 0 0 1-4-8c4-2 9-6 14-1 2 2 2 4 0 6zm-297 96c-5 2-7 0-7-4 0-5 4-5 8-4 2-1 4 0 6 1 2 7-4 6-7 7zm166-449c-1-3-3-7 2-9 3-1 5 1 6 3 3 5 1 7-3 9-3 1-4-1-5-3zm21 12c1 3 0 6-3 7-2 1-4 0-6-1-2-4-2-7 1-10 6-3 7-2 8 4zm-84 444c-3 1-5 0-5-4s3-5 6-6c3 0 6 2 6 5 0 4-3 5-7 5zm48-7c3-2 3-4-1-5l6-3h9c1 2 1 3-1 5 0 4-3 6-6 7-3-1-6-2-7-4zm179-133c-2 2-4 0-7 0v-5c1-4 5-4 7-5 6-2 7 2 5 7-1 1-4 1-5 3zm-609-14c-4 0-6-2-5-5 1-4 2-7 6-7 3 0 5 1 4 4s-1 8-5 8zm217 106c1 4-1 6-4 8-3 1-5 2-7 0s-3-4 0-7c3 0 6-5 11-1zm-65-251c0 2 1 5-1 7-2 1-5 3-7 1-5-3-2-6-1-9 3-3 6-3 9 1zm406 209c5 3 4 7 1 11-1 3-3 4-5 2-4-2-2-5-2-8v-3c1-3 3-3 6-2zM702 143c0-3 1-5 4-5 4 0 6 3 7 6a4 4 0 0 1-5 5c-4 0-6-2-6-6zM397 253c3 0 5 2 5 5s-2 6-6 6c-3 0-5-2-4-5 0-3 2-6 5-6zm227-136c1 1 2 3 4 2 3-2 5 1 7 3 1 3-1 5-4 7-2 1-4 0-6-1a8 8 0 0 1-3-4c0-3 0-5 2-7zm144 549c4-1 8-4 10 3 0 3-2 7-5 6-6 0-5-4-5-8v-1zm-55-491c0 3-2 6-5 6-4 0-5-3-5-6s2-5 5-5 5 2 5 5zm-140-16c-1-4-1-8-5-8 1-2 4-2 6-3 4 1 7 1 8 5l-1 6c-2 3-5 3-8 0z"/><path class="st0" d="M899 496v5l-1 3c-1 3-4 4-7 3l-2-1c-1-9 1-11 10-10zM485 154c3 0 5 2 5 5-1 3-3 5-6 5s-5-2-5-5 3-5 6-5zm326 455c2-2 5-1 6 1 2 2 2 5-1 8h-3c-3 0-6 1-7-3s2-4 5-6zm-83-443 4-2c3-1 5 0 6 2 1 3 1 5-1 6-3 1-4 4-5 6l-4-6a9 9 0 0 1 0-6zm89 84c-2-2-2 1-4 2l-2-7 2-1c5-7 7-7 11 1-1 3-3 5-7 5zm-368-91c0 2 2 3 3 5 0 2 0 4-2 5-2 2-4 2-6 0-2-1-3-3-1-6 1-2 3-3 1-6 2-1 4 0 5 2zm113 471-5 4c0 2-3 3-5 3a5 5 0 0 1-4-5c0-2 1-4 3-5 2 0 3-1 3-2h3c1 3 4 3 5 5zm374-180-4-1c-3-1-4-4-2-7 1-2 3-3 6-2s4 3 3 6l-3 4zm-579-65 2 1c3-1 6 0 7 3l-2 5c-3 2-5 2-7-1-2-2-5 1-7-2l7-6zm49 234c-2 1-1 4-2 5-1 2-2 3-4 3a5 5 0 0 1-5-4c0-2 1-5 3-5 5 0 5-3 7-6 1 2 2 5 1 7zm378-388-7 5c-2 0-4 1-5-1 3-3 0-6 1-8s1-4 4-4l7 7h1l-1 1zm50 31-5 1c-2-1-3-3-3-6 3-6 8-5 13-3-2 3 0 7-5 8zM413 557l3 1c4 0 6 1 7 4 0 3-1 5-3 6-4 1-6-2-7-5-2-2-2-4 0-6zm-94-178-1-4c-1-3-1-6 2-7 2-1 4-1 6 1 2 3 2 5-1 7l-1 2c-2 2-4 2-5 1zm25-6-4 2c-2 2-4 2-6 0-2-1-3-3-2-6 2-2 4-3 7-2l3 2c2 0 2 2 1 3zm44-74c1 3 3 6 1 10-9 1-10-1-8-9 2-2 4-2 7-1zm-14-24c2-1 3-2 2-4-1-3 1-5 4-6 3 0 5 1 6 4 0 3-1 5-4 6l-2 1c-3 1-4 1-6-1zm355 345c1-7 7-4 11-5 2 1 2 2 2 4-1 5-4 7-10 7-2-1-3-3-3-6zM621 154c3 2 6 3 5 8-2 3-4 3-7 3-2 0-3-1-3-3l2-7c0-2 1-3 3-1zm19-85c0 3-2 5-4 5-4 0-6-2-6-5s2-5 5-5 5 2 5 5zm75 86 1-2c5 0 9 0 8 6-1 5-4 6-9 6-4-4-4-7 0-10zm63 507c-3-3-1-7-3-10-1-2 0-4 2-5s4-1 6 1 2 4 0 7l-5 7zm107-370 4-1c3-1 6-1 7 2s0 5-2 6c-3 2-5 1-7-2l-2-2v-4zm-544 55c-5-4-5-8-3-13a6 6 0 0 1 7 2c3 3-1 7 0 11h-4zm32-64-3 3c-2 2-4 2-6 0-2-1-3-3-2-5s3-3 5-3h4c2 1 3 3 2 5zm337-88h-1c-3 1-6 4-9 0-2-2-2-4 0-6 4-4 7 0 10 2v3zM427 350c3 0 4 2 5 5 0 3-2 5-5 5a5 5 0 0 1-5-4c0-4 2-5 5-6zm191-219c-3 2-6 0-9-1-1-1-2-2-1-4l8-6c3 0 5 2 6 4a4 4 0 0 1 0 2l-4 5zM476 583c-1 3-2 5-5 5s-5-2-5-5 2-5 5-5 4 2 5 5zM348 365v-5c1-2 3-3 5-3s4 1 4 3c1 2 1 5-2 6-4 0-3 4-4 5-2-1-3-4-3-7zm218-214-4 10c-1-1-2-4-5-5-2-3 0-5 1-8 2-3 4-3 7-1 2 1 3 2 1 4zm-57 74c-3 0-5-2-5-5s2-5 5-5c3 1 6 2 5 6 0 2-2 4-5 4zm103 458c-2 3-2 8-7 6-3-1-5-3-3-6 0-2 2-4 3-5 3 0 6 1 7 5zm44-590 4-3c2-1 5-1 6 1 2 2 2 4 0 6-1 2-3 3-6 2-1-1-2-3-4-2v-4zm87 112c5-1 7 1 8 6 2 2 2 3 0 4-1-2-2-2-4-1-3 1-5-1-7-3-1-3 0-5 3-6zm80 395c4 0 6 2 5 6-1 3-4 4-7 3-4-2-4-5-1-8 0-2 1-3 3-1zm-345 26c3 1 5 2 5 5s-2 5-5 5-5-2-5-5 2-4 5-5zm496-232c-3-1-5-3-5-6 1-3 3-5 6-5s4 2 4 5-1 5-5 6zm-586-22 3-2c2-2 5-2 7 0v6c-1 2-3 3-6 2l-3-1c-1-2-2-3-1-5z"/><path class="st0" d="M710 195v-4c6-4 7-4 10 3 0 3-1 5-4 6-1-3-5-2-6-5zm-62 448 3-1c3 0 5 1 6 3s0 4-1 5c-2 2-4 2-6 1l-3-1c-1-3-1-5 1-7zM380 230v3c1 3 0 6-2 7-3 1-5 0-7-2-1-3 0-5 3-7l3-1h3zm159 520c-1 3-3 5-5 5-4 0-5-2-5-5s2-5 5-5 4 2 5 5zm97-37c0 2-2 4-5 4s-5-1-5-4 2-5 5-5 5 2 5 5zM371 347c2 2 3 4 3 7 1 1 0 2-1 3-9-1-11-3-7-10 2-2 4-2 5 0zm396 69c-3 0-5-1-5-4s1-5 4-6c3 0 5 2 5 5 1 3-1 5-4 5zm-383-36-1 1c-1 4-2 6-6 6-3-1-5-3-4-5 0-5 3-5 7-5 2 0 3 0 3 3zm175-214c2-2 4-4 7-2 2 1 3 3 3 5-1 4-4 4-7 5-4-1-5-4-3-8zm-49 449c0 3-2 5-5 5a5 5 0 0 1-5-5c0-3 2-5 5-5s5 2 5 5zm-28-7c3-1 6-2 8 1 2 1 2 3 1 5-1 3-4 3-7 2-4-2-4-5-2-8zm341-8-3 1-3-2c-3-2-3-4-2-6 2-3 4-4 6-3 3 1 4 3 3 6l-1 4zm-414-8c3-1 5-3 8 0a5 5 0 0 1 1 5c-2 4-5 4-8 4-3-3-4-6-1-9zm113-421c3 0 5 2 5 5s-2 5-5 5-5-2-5-5 2-4 5-5zm94 1c4 2 5 6 2 10-3 2-6 2-8-2-1-3 0-6 3-8h3zm241 101-2 6h-1c-1-2 0-5-3-6s-5-3-3-6c2-2 4-4 7-2s2 5 2 8zM667 139c-1 2-2 4-5 4s-5-2-5-5c1-3 2-5 5-4 3 0 5 2 5 5z"/><path class="st0" d="m848 267 3 6c-4 2-7 5-11 1-2-5-1-8 4-9l4 2zM369 514c-8-6-8-8-2-12 2-1 3 0 5 1 2 3-2 7 1 9-1 2-3 3-5 2zm485-235h1c0 4 3 3 5 3v4c1 2-1 4-3 5s-4 0-5-2c-2-2-2-4 0-6l2-4zM604 654c-3-3-2-7-2-10 1-2 3-2 5-1 2 2 5 4 4 8s-4 5-7 3zm-12 37c-3-1-5-2-5-5s2-5 4-5c4 0 6 2 6 5-1 3-2 5-5 5zm-24-437c-1 3-2 5-5 5s-5-1-5-4c0-4 2-6 5-6 2 0 4 2 4 5zm204 21c3 0 5 1 5 4 1 4-1 6-4 6s-5-2-5-5 2-5 4-5zM614 702c-1-3-1-6 3-8 2-1 4 0 5 1 2 4 1 6-1 9-3 1-5 1-7-2zm213-436-2 1c-3 3-7 5-9 1-3-5 0-7 4-8 4 0 6 2 7 6zM707 769c-1 2-2 4-5 5-3 0-5-2-5-4-1-4 1-6 4-6s5 2 6 5zm178-477v3c-3 4-7 4-8-1l-4-4c2-2 4-3 7-3 2 2 5 1 5 4zm-447-17c0 3-2 5-5 5a5 5 0 0 1-5-5c0-3 2-5 5-5s5 2 5 5zm326 81c-1 2-2 4-5 5-3 0-5-2-5-5s1-5 5-5c3 0 4 2 5 4zm-352-83c0 4-2 6-5 6s-5-2-5-5 2-5 5-5 5 2 5 4zm518 79c0 4-1 5-4 6-3 0-5-2-6-5 0-3 2-5 5-5s5 2 5 4zm-69 0c0 3-2 5-5 5s-5-2-5-6c0-2 2-4 5-4s5 2 5 5zM605 716c0 3-2 5-5 5s-5-2-5-5 2-5 6-5c2 0 4 2 4 5zm308-412c0 3-2 5-5 6-3 0-5-2-5-5s2-5 5-5 4 2 5 4zM721 709c3 0 5 2 5 5s-2 4-5 4-5-1-5-5c0-2 2-4 5-4zM497 276c-4 0-5-1-6-4 0-3 2-5 5-5 3-1 5 1 5 4s-2 5-4 5zm263 377c0 3-2 5-5 5s-5-2-5-5 3-5 6-5 4 2 4 5zm11-162c-3-1-5-2-4-5 0-3 1-5 4-5s5 2 5 5-2 4-5 5zm-434-5c3 5-1 8-1 12-1 2-2 2-3 1-2-4-7-6-4-11 2-2 5-3 8-2zm554 29c2 4 2 8-4 9-4 1-5-2-7-5v-1c2-2 6-2 6-6 2-1 3 2 5 3zm-508 29c3 0 5 2 5 5s-2 5-5 5-5-2-5-6c1-3 3-4 5-4zm488 6c-1 3-2 4-5 4s-5-1-5-4 2-5 5-5 4 2 5 5zm-467 11h-4c-2 0-4-1-4-4-1-2 0-4 2-5h6l3 3-3 6zm129 81c0 3-2 4-5 5-3 0-5-2-5-5s1-5 5-5c3 0 4 2 5 5zm298-78-3 1c-1 0-3 0-3-2 0-3-3-6 1-8 2-2 5-1 7 1 2 3 1 6-2 8zm-73 66c3 0 6 1 6 4s0 4-2 5c-3 2-5 0-7-2l-3-3c2-2 3-5 6-4zm-345-52c0 2-2 4-4 5-4 0-6-2-6-5s2-5 5-5 5 2 5 5zm35 0c1-2 0-5 3-6 2-1 4 0 6 1 1 2 2 3 1 5-2 4-5 4-8 3-2 0-3-1-2-3zm320-3c3 0 5 1 5 4s-2 5-6 5c-2 0-4-2-4-5s2-4 5-4zm22 58c0 3-2 5-4 5-4 1-6-1-6-5 0-3 2-4 5-4 3-1 5 1 5 4zm-199 2c5-8 8-8 13 0l-5 7c-1-1-1-4-4-3-2-1-4-2-4-4zm-183-5 5-2c2-1 4-2 6 0s3 3 2 5c-1 3-4 4-7 4-3-1-4-4-6-7zm354-28c-1-2-2-5 0-8 3-2 5-1 7 0 2 3 2 5 1 8a6 6 0 0 1-6 3c-1-1-2-1-2-3zm44 35c-3-1-5-2-5-5s1-5 4-5c3-1 5 1 5 5 0 3-2 4-4 5zM466 373c-1 3-3 5-5 5-3 0-5-2-5-6 0-3 2-4 5-4s5 2 5 5zm475 15c0 3-2 5-5 5s-5-2-5-5 2-4 5-4 5 2 5 4zm-105 2c-1 3-2 5-5 5s-5-3-5-6 2-4 5-4 5 2 5 5zm-444 7c-3 0-5-2-5-5 0-2 1-5 4-5 4 1 5 2 5 6 0 3-2 4-4 4zm87 11c0 3-2 5-5 5s-5-2-4-5c0-3 2-5 5-5 2 0 4 2 4 5zm354 5c-3 0-5-2-5-5 1-3 2-4 5-4 4 0 5 2 5 5s-2 4-5 4zM485 680c-1 3-2 5-5 5s-5-2-5-5 2-5 5-5c2 0 4 2 4 5zm246-16c-1 2-2 4-5 4s-5-2-5-5 2-5 5-4c3 0 5 2 5 5zm211-238c-1 3-2 5-5 5-3-1-5-3-5-6 1-3 3-4 5-4 3 0 5 2 5 5zm-73 5c-3 0-5-2-5-5s2-5 5-5 5 2 5 6c0 2-3 4-5 4zm-62-3c-1 2-2 4-5 4-4 0-5-2-5-5s2-4 5-4 4 2 5 5zm-439 9c2 0 4 2 4 5s-2 5-5 4c-3 0-5-2-4-5 0-3 2-4 5-4zm334 220 3-2c3-1 5 0 6 2 2 2 1 4 0 6-2 2-4 2-7 0l-2-2v-4zM412 446c-1 4-3 6-5 6-4-1-6-3-5-6 0-3 2-4 5-4s4 2 5 4zm173 215c-2 2-6 1-9 2-2-1-2-2-1-4 2-7 5-8 10-3 2 2 2 3 0 4zm339-194c-1-3-2-6 1-8 2-1 3-2 5-1 4 2 3 6 3 9-3 2-6 2-9 0zm-553 17c-3 0-5-1-5-4 0-4 1-6 5-6 3 0 4 2 4 5 1 3-1 5-4 5zm321 176c-3 1-6 1-8-3 0-2 0-4 2-5 4-2 6 0 8 3 1 2 1 4-2 5zm-6-459c2 1 4 2 4 5s-2 5-5 5a5 5 0 0 1-5-5c1-3 3-5 6-5zm-54-7c-3 0-5-2-5-5s1-5 4-5c4 0 5 2 5 5 1 3-2 5-4 5zm119 39-1-3c-2-3-2-7 2-8 5-1 6 2 6 6 0 5-4 5-7 5zm-318 6c0 3-1 5-4 5-3 1-5-1-5-4-1-3 1-5 4-5s5 1 5 4zm148-47c0 3-2 5-5 5s-5-2-5-5 2-5 5-5 5 2 5 5zm-125 0c-3 0-5-2-5-5s2-5 5-5 5 2 4 5c0 3-1 5-4 5zm230-1c-3 0-5-1-5-4 0-4 2-6 5-6s5 2 5 5-2 4-5 5zm-295 38c-3 0-5-2-5-5s1-5 4-5c4 0 5 2 5 5s-2 5-4 5zm191-51c-3 2-5 3-8 1-2-2-2-4-1-6s3-3 5-2c2 0 3 2 4 3 2 2 1 3 0 4zm-122 46c-3 0-5-2-5-5 0-2 1-5 4-5 4 0 6 2 6 5s-2 5-5 5z"/><path class="st0" d="m582 178 1-4c4-4 7-3 9 1 1 3 1 5-1 6-4 1-7 0-9-3zm116 34c0-3 2-5 5-5s5 2 5 5-2 5-5 5-5-2-5-5zm19 2c-1-2-1-5 2-7a5 5 0 0 1 5 0c3 3 2 6 1 8-3 3-6 3-8-1zm-67-34c-3 0-5-2-5-5s2-4 5-5c3 0 5 2 5 5s-2 5-5 5zM332 428c-1 3-3 5-6 5-3-1-4-2-4-5s2-5 5-5 4 2 5 5zm71 5c-3 0-5-2-5-5s2-5 5-5 5 2 5 5-2 5-5 5zm373 34c-1 3-2 5-5 5-4 0-6-2-5-5 0-3 2-5 5-5 3 1 4 3 5 5zM428 205c0 3-2 5-5 5s-5-1-5-4c0-4 1-6 5-6 3 0 4 2 5 5zm345 225c0 3-2 5-4 5-4 0-5-2-5-6 0-3 2-4 5-4 2 0 4 2 4 5zm-505 37c0 3-2 4-5 4s-5-2-5-5 2-4 6-4c3 0 4 2 4 5zm179-34c0 3-2 5-5 5s-5-2-4-5c0-3 2-5 5-4 3 0 4 1 4 4zm216-232c0-4 1-6 4-6s5 2 5 5-2 5-4 5c-3 0-5-2-5-4zM296 445c0 3-2 5-5 5-2 0-4-2-5-5 0-3 2-5 5-5s5 2 5 5zm369 211c0 4-1 6-4 6s-5-2-5-5c-1-3 1-5 4-5s5 2 5 4zm172-196c3 0 5 2 5 5s-2 5-5 5-5-2-5-5 2-5 5-5zM439 652c3 0 5 2 5 5s-2 5-5 5-5-2-5-5c1-3 2-5 5-5zm364-211c3 1 5 2 5 5s-2 5-5 5c-2 0-5-1-5-5 0-3 2-4 5-5zm-4 25c0-3 1-5 5-6 3 0 5 2 5 5s-2 5-5 5-4-1-5-4zm42-20c0 3-2 5-5 5-3-1-5-2-4-5 0-3 2-5 5-5 3 1 4 3 4 5zm-71-2c2 0 5 1 5 4 0 4-2 5-6 5-3 0-4-2-4-5s2-4 5-4zm-362 16c3 0 5 2 5 5s-2 5-5 5-5-2-5-5 2-4 5-5zm-39 6c-3-1-5-3-4-6 0-3 2-5 5-4 3 0 4 2 4 5s-2 4-5 4zm121-3c-1 3-2 5-5 5s-5-2-5-5 2-5 5-5 4 2 5 5zm-154 2c0 3-2 5-5 5-2 0-4-2-4-4 0-4 1-6 5-6 3 0 4 3 4 5zm295 181c0 4 1 8-4 9-2 1-4 0-6-2 0-7 4-8 9-8l1 1zM298 464c0 2-2 4-5 5-2 0-4-2-5-5 0-3 2-5 5-5s5 2 5 5zm573 5c-4-1-6-2-6-5s1-5 5-5c3 0 4 2 5 5 0 3-2 4-5 5zm31-10c2 0 4 2 4 4 0 3-1 5-4 5-3 1-5-1-5-4s2-5 5-5zM412 215c-1 3-3 5-5 4-3 0-5-2-5-5s2-4 5-4 4 2 5 5zm349 164c-3 0-4-2-4-5s2-5 5-5 5 2 5 5c-1 3-3 5-6 5zM598 671c0 3-2 5-5 5s-5-2-5-5 2-5 6-5c3 0 4 2 4 5zM430 380c0 3-2 5-5 5s-5-2-5-5 2-5 5-5 5 2 5 5zm-15-226c0 3-2 5-5 5s-5-2-5-6c0-2 2-4 5-4s5 2 5 5zm266 510c3 0 5 1 5 4s-2 5-5 5-4-1-5-4c0-3 2-5 5-5zm218-270c-2 0-4-2-4-5s1-5 4-5c4 0 5 2 5 5s-1 5-5 5zm-426-4c0 3-2 5-5 5s-5-2-5-5 2-5 5-5 4 2 5 5zm324-5c3 1 5 2 5 5s-2 5-5 5-4-2-4-5 2-4 4-5zM473 674c-3-1-5-2-5-5s2-5 5-5 5 2 5 5c-1 3-3 4-5 5zm292-276c-3-1-5-2-6-5 0-3 2-5 5-5s5 1 5 5c0 2-2 4-4 5zm-328 0c-1 2-2 4-5 4s-5-2-5-5 2-5 5-4c3 0 5 2 5 5zm-88 1c0 2-2 4-5 4-3 1-4-1-5-4 0-3 2-5 5-5s4 2 5 5zm9 1c3 1 5 2 5 5s-2 5-5 5-5-2-5-5 2-5 5-5zm68 272c-2 0-4-2-5-5 0-3 2-5 6-5 3 0 4 2 4 5s-2 5-5 5zm544-260c-3-1-5-2-5-5s2-5 5-5 5 2 5 5-2 5-5 5zm-676-9c3 1 5 2 5 5s-2 5-5 5-4-2-4-5 1-4 4-5zm235-195c-1 3-2 5-5 5-4 0-5-3-5-6s2-4 5-4 5 2 5 5zm276 201c0 3-2 5-5 5s-5-2-5-5 2-5 5-5 4 2 5 5zM476 213c-3 0-5-1-5-4s2-6 5-6c2 0 4 2 4 5s-1 5-4 5zm292 453v1c-2 3-4 4-8 2-1-2-2-4-1-6s3-3 5-3c3 1 5 3 4 6zM564 202c3 0 5 1 5 4s-1 5-4 5c-3 1-5-1-5-4-1-3 1-5 4-5zM438 410c3 0 5 2 5 5s-2 5-5 5-5-2-5-5 2-4 5-5zm331-201c0-3 0-7 3-8s5 0 6 2c2 5-1 8-4 11-4 0-4-3-5-6zM364 428c-3 0-5-1-5-4-1-3 1-5 4-6 3 0 5 2 5 5s-2 5-4 5zm597 1c-3-1-4-3-4-6s1-4 5-4c3 0 5 2 4 5 0 3-2 4-5 5zm-487-3c1-3 2-5 5-5s5 2 5 5-2 5-5 5-4-2-5-5zm-26 95c3 1 5 2 5 5s-1 5-4 5c-3 1-6-1-6-4s2-5 5-6zm-6 104c-3-1-5-3-5-5 0-4 2-5 5-5s5 2 4 5c0 3-2 4-4 5zm431-87v-6l3-1c3-1 5 0 6 3 1 2 0 4-1 5-3 2-6 1-8-1zm-391 0c0-3 1-5 4-5s5 1 5 4c0 4-1 6-4 6s-5-2-5-5zm-135 1c0 4-2 6-6 5-2 0-4-2-3-5 0-3 2-5 6-4 3-1 4 1 3 4zm25 2-2 2c-1 2-3 4-6 3-2-1-3-3-3-5 0-3 3-5 6-5 4-1 4 2 5 4zm430-5c3 0 5 1 5 4s-2 5-4 5c-4 1-6-1-6-4s2-5 5-5zm-32 1c3 0 5 2 6 5 0 3-2 5-6 5-3 0-4-2-4-5s2-4 4-5zm16 82c-1-3-2-6 1-8h5c4 2 3 5 2 8-3 3-5 3-8 0zm-91-451c0 3-2 5-5 5-3-1-5-3-4-5 0-3 2-5 5-5s4 2 4 5zm-184 19c0 3-1 5-4 5-4 0-6-2-5-5 0-3 2-5 4-5 4 0 5 2 5 5zm-21-21c3 0 4 2 4 5 1 3-1 5-5 5-3-1-4-2-4-5s2-5 5-5zM351 551c3 0 5 2 5 5s-2 5-5 5-5-2-5-5 2-4 5-5zm41 58c0 3-2 4-5 4s-4-1-5-4c0-4 3-5 6-5s4 2 4 5zm245-438c0 2-1 4-4 5-4 0-6-2-6-5s2-5 5-5 5 1 5 4zM448 600c3 1 7 1 6 6 0 2-2 4-5 4s-4-3-6-4c0-4 2-6 5-7zm-54-421c3 0 5 2 5 5s-2 5-5 5-5-2-5-5c1-3 2-5 5-5zm53 380c3 0 5 2 4 5 0 3-2 5-5 5-3-1-5-3-4-6 0-3 2-4 5-4zm18 9c-3-1-5-2-5-5s2-5 5-5 5 2 5 5c-1 3-2 4-5 5zm-96 2c-1 3-2 5-5 5s-5-2-5-5 2-5 5-5 4 2 4 5zm67 5c-3-1-5-2-5-5s2-5 4-5c4 0 6 2 5 5 0 3-2 4-4 5zm44 4c-4-2-6-4-4-8 3-4 6-3 9 0 2 4 1 7-5 8zm361-7 3-1c3-1 6-1 7 2 0 2 0 4-2 6-2 1-4 1-6-1l-2-2v-4zM669 185c-3 0-5-1-6-4 0-4 2-5 5-5s5 1 5 4-2 5-4 5zm172 406c0 3-2 5-4 5-3 0-5-2-5-5-1-3 1-5 4-5s5 2 5 5zm-461-15c4 2 4 5 2 8-1 3-3 4-5 2-3-2-3-6-4-8 2-3 4-4 7-2zm68 2 2 3-1 5c-2 2-4 2-6 0-3-1-3-3-2-6s4-3 7-2zm338 15c3-2 1-9 7-9s7 1 5 7l-10 5c-2 0-3 0-2-3zm-391 1c-2-1-4-2-4-5 0-4 2-5 5-5s5 2 4 5c0 3-2 5-5 5zm81 51c3 1 5 4 4 7-1 2-3 4-6 3s-4-4-3-7c0-3 2-4 5-3zM286 473c-1 3-2 5-5 5s-5-2-5-6c0-3 2-4 5-4s4 2 5 5zm158-277c-1 3-2 5-5 5-3-1-5-3-4-6 0-3 2-4 5-4 3 1 4 3 4 5zm269 448c3 0 5 2 5 4 0 4-2 6-5 5-3 0-5-2-5-5s2-4 5-4zm186-157c-3 0-5-2-5-5s1-5 5-5c2 0 4 2 4 5s-2 4-4 5zM796 652c-3 0-5-2-5-4-1-4 1-5 5-5 3 0 4 1 4 4s-1 5-4 5zM378 158c0 3-2 5-5 5s-5-2-5-5 2-4 5-5c3 0 4 2 5 5zm31 321c3 0 5 2 5 5s-2 5-5 5-4-2-4-5 1-4 4-5zm400 5c0 3-2 5-4 5-4 0-6-2-5-5 0-3 2-5 5-5 2 1 4 2 4 5zM491 648c-4 0-6-2-6-5s2-5 5-5 5 2 5 5-2 4-5 5zm-43-164c3 0 5 2 5 5s-2 5-5 5-5-2-5-5 2-5 5-5zm294-288c-4 2-8 3-9-2-2-5 2-6 6-7 4 2 5 5 3 9zM372 503l-5-1c-1-3-1-6 2-8 2-2 5-1 7 2 2 4 0 6-4 7zm-63-4c0 3-2 5-4 5-4 0-6-2-5-5 0-3 2-5 5-5 3 1 4 2 4 5zm42 5c-3 0-5-2-5-5s2-5 5-5c3 1 5 3 5 6-1 3-3 4-5 4zm141-4c-1 4-2 5-5 5-3 1-5-1-5-5 0-3 2-4 5-4s4 2 5 4zm380 2c-1 2-2 4-5 4s-5-2-5-4c0-4 2-6 5-5 3 0 4 2 5 5zm-457 1c-1 3-2 4-5 4s-5-1-5-4 2-5 5-5 5 2 5 5zm94 144c-3 0-5-2-5-5s2-5 6-4c2 0 4 2 4 5-1 3-3 4-5 4zm-71-5h-5c-3-1-5-3-3-6 1-4 4-4 8-2 4 3 3 6 0 8zM322 513c0 3-2 5-5 5s-5-2-5-5 2-5 5-5 5 2 5 5zm380-360c2 2 4 4 2 8-1 2-3 3-5 2-4 0-4-4-4-7 1-3 4-4 7-3zm-111 9c1-5 4-8 8-5 5 2 3 6 0 9-4 1-6-1-8-5zM487 524c-3 0-5-1-5-4 0-4 2-5 5-5s5 1 5 4-2 5-5 5zm20-367 2 2c3 3 4 5 1 8-2 3-5 2-7-1-3-5-1-7 4-9zm264 361c3 1 5 2 5 5 1 3-1 5-4 5s-5-1-5-5c0-3 2-4 4-5zm6 108c-1 3-2 5-5 5s-5-2-5-5 2-4 5-4 4 1 5 4zM542 162l1 1c2 6-1 8-6 8-6-3-5-6-1-11 3-1 4 0 6 2zM337 526c-2 3-4 4-7 2-2-1-3-2-3-4 1-3 2-5 5-5 6 1 7 1 5 7zm144-200c-1 2-2 4-5 4s-5-2-5-5 2-5 6-5c3 1 4 3 4 6zm94-91c3 0 5 2 5 5s-2 5-5 5-5-2-5-5 2-4 5-5zm369 91c-1 3-2 5-5 5s-5-2-5-5c-1-3 1-5 5-5 3 0 4 2 4 5zm-583 1-1 2c-2 3-4 4-7 3-2-1-3-3-3-6 1-3 3-4 7-3h2c1 1 3 2 2 4zm272 375c-3 0-5-2-5-5s2-4 5-5c3 0 5 2 5 6 0 3-2 4-5 4zm139-468 5 2c2 3 1 6-2 8-3 1-5 0-6-2-2-4-1-7 3-8zM442 699c-3-1-5-2-5-5 1-3 3-5 6-5 3 1 4 3 4 5 0 3-2 5-5 5zm-49-458c0 3-2 5-5 6-3 0-5-2-5-5-1-3 1-5 5-5 3 0 4 2 5 4zm181 457c-3-1-5-2-5-5 1-3 3-5 6-5s4 2 4 5-2 4-5 5zm147 60c0 3-2 5-5 5s-5-2-5-6c0-3 2-4 5-4s5 2 5 4zM460 330c3 1 5 2 5 5 1 3-1 5-5 5-3 0-4-2-4-5s1-4 4-5zm20-81c-3-1-5-3-5-6s2-4 6-4c2 0 4 2 4 5-1 3-3 4-5 4zm280-10c3 1 5 2 5 5s-1 5-4 5c-4 0-6-2-6-5s2-4 5-5zm27 91c3 0 5 2 5 4 0 3-2 5-4 5-4 0-6-1-6-5 0-2 2-4 5-4zm-233-63c0 3-2 5-4 5-3 0-5-1-5-4-1-3 1-5 5-5 3 0 4 1 4 4zm206 70c0 3-2 5-5 5s-5-2-5-5c1-3 2-5 5-5s5 2 5 5zm-76 433c-3 0-5-2-5-5s2-5 5-5 5 3 5 5c0 3-3 5-5 5zm59-506c0 3-2 5-5 5s-5-2-5-5 2-5 5-4c3 0 5 1 5 4zm215 74c-1 3-2 5-5 5s-5-2-5-4c0-4 2-6 5-6s4 2 4 5zM676 688c-1 3-3 5-5 5-3 0-5-2-5-5s2-5 5-5c3 1 4 2 5 5zm-186 32c0 3-2 5-5 5s-5-2-5-5c1-3 3-5 5-5 3 0 5 2 5 5zm-84-426c0 4-2 5-5 5-3 1-5-1-5-5 0-3 2-4 5-4s4 2 5 4zm183 431c-1 3-2 5-5 5s-5-2-5-5 2-5 5-5 5 2 5 5zm194-427c0 3-2 5-5 5s-5-2-5-6c0-2 2-4 5-4s5 2 5 5zM522 707c3 0 4 2 4 5 1 3-1 5-4 5s-5-2-5-5 2-5 5-5zm231-406c-1 3-3 5-5 4-4 0-5-2-5-5s2-5 5-4c3 0 4 2 5 5zm-20 428c-3 0-5-2-5-4 0-3 2-5 5-5s5 1 5 5c0 3-2 4-5 4zm-166 0c3 0 5 1 5 4s-1 5-4 5c-4 1-6-1-6-4s2-5 5-6zM450 299c2 0 4 1 4 4 1 3-1 5-4 5-3 1-5-1-5-5 0-2 2-4 4-4zm-21 12h-3c-4 0-5-2-5-6 1-2 2-4 5-4 4 0 5 4 5 7 0 2 0 3-2 3zm470-4c0 3-2 4-5 4s-5-1-4-5c0-3 2-5 4-5 3 0 5 3 5 6zM629 137c2 2 4 4 2 8-2 2-4 2-6 1-4-2-4-5-2-8 1-2 3-3 6-1zm-90 102c-3 0-5-1-5-4s1-5 4-6c4 0 6 2 6 5s-2 5-5 5zm165 463c2 1 4 2 4 5s-2 5-5 5-5-2-5-5c1-3 3-5 6-5zm219-392c4 0 5 2 5 5s-2 5-5 5c-3-1-5-2-4-6 0-3 2-4 4-4zm-558 8c0-4 1-8 6-7 3 1 4 3 3 6s-4 3-6 5c-2 0-3-2-4-4zm395 385c0 3-2 5-5 5-3 1-5-1-5-5 0-2 2-4 5-4s4 1 5 4zm-202 2c-4-1-5-2-6-5 0-3 1-5 4-5 4-1 6 1 6 4s-2 5-4 6zm249-424c-1 3-2 5-5 5s-5-2-5-6c0-3 2-4 5-4s4 2 5 5zm-385 41c0 3-1 5-4 5-3 1-5-1-5-4-1-3 1-5 4-5s5 2 5 4zm15-4c3 2 5 4 2 7-1 3-4 3-6 2-4-3-3-6-1-9 2-1 3-2 5 0zm-22 49c-2 2-5 3-8 1a5 5 0 0 1-1-5c1-4 5-4 8-3 3 2 4 4 1 7zm83 316c-3 0-5-2-5-5s2-5 5-5 5 2 5 5-2 5-5 5zm434-318c2 1 4 2 5 5 0 3-2 5-5 5s-5-1-5-5c0-3 2-4 5-5zM777 223l-4 4c-5-1-6-4-5-8 1-2 3-3 5-2 3 1 5 3 4 6zM453 351c3 0 4 2 5 5 0 3-2 5-5 5s-5-2-5-5 2-5 5-5zm285-105c0 3-2 5-5 5-2 0-4-1-5-4 0-3 2-5 5-5s4 1 5 4zM461 685c-3 0-5-2-5-5s1-5 4-5 5 1 6 5c0 3-2 4-5 5zm9-431c-1 3-2 5-5 5s-5-2-5-5 2-4 5-4 4 2 5 4zm173-124c3 0 5 1 5 4s-1 5-4 5c-3 1-5-1-5-4-1-3 1-5 4-5zM374 262c0 3-2 4-5 5-3 0-5-2-5-5s1-5 5-5c3 0 4 2 5 5zm398 0c-1 3-2 5-5 5s-5-2-5-5 2-5 5-5 4 2 5 5zM636 148c3 0 5 2 5 4 0 4-2 6-5 6s-4-2-4-5c-1-3 1-5 4-5zm-79 73c0 3-2 4-5 4-3 1-5-1-5-4s2-5 5-5 5 2 5 5zm338 131c0 3-2 5-5 5-3 1-5-1-5-5 0-3 2-4 5-4s5 1 5 4zm-72-4c3 0 5 1 5 4 1 4-1 6-4 6s-5-2-5-5 1-5 4-5zm-457-4c-1-4-2-7 2-8 3-1 5-1 6 2 2 3 0 5-3 7-2 2-4 1-5-1zm260 323c3 0 5 2 5 5s-2 5-5 5c-3-1-5-2-5-5 1-4 3-5 5-5zM390 342c-1 3-2 5-5 5s-5-2-5-6c0-2 3-4 5-4 3 0 5 2 5 5zm24 4c0 3-1 5-4 5-4 0-5-2-6-5 1-3 2-5 5-5s5 2 5 5zM656 93v4c-2 4-5 4-8 1-2-2-2-4 0-6 3-3 6-3 8 1zm138 166c3 0 5 1 5 4 1 3-1 5-5 5-2 0-4-2-4-5 0-2 1-4 4-4zm-99-124c0 4 4 8 0 12v-1c-8 1-9-1-7-7v-3c2-2 4 0 6-1h1zm-137 13v8c2 4 0 5-3 6-3-2-6-2-6-7 1-3 3-4 6-4l3-3zm28 73c3 0 5 1 5 4s-2 5-5 5-4-2-5-5c0-3 2-4 5-4zm210 132c0 3-1 5-4 5-4 0-6-2-6-5s2-5 5-5 5 2 5 5zm-53-128c0 3-2 5-5 5s-5-2-5-5c1-3 2-5 6-5 3 1 4 2 4 5zM457 641c0 3-2 5-4 5-4 0-6-3-5-6 0-3 2-4 5-4s4 2 4 5zm-94-445c-2-1-4-2-4-5s2-5 5-5 4 2 4 5-2 5-5 5z"/><path class="st0" d="m803 579-3 4c-4 3-5 0-7-2-1-3-1-6 3-7 4-2 5 2 7 5zM555 742c0 3-2 5-5 5s-5-2-4-5c0-3 2-5 5-5 3 1 4 2 4 5zm171-5c3 0 5 2 5 4 0 3-2 5-5 5s-5-1-5-5c0-2 2-4 5-4zm82-215c0 3-2 5-5 5-3-1-5-2-4-5 0-3 2-5 5-5s4 2 4 5zm-7 65h7c2 6 2 9-5 10-6-4-6-5-2-10zm-396-66c1-3 3-6 7-4a4 4 0 0 1 2 6c-1 4-5 4-8 2-2-1-3-2-1-4zm252-409c3 0 5 2 5 5s-2 4-5 4-5-1-5-5c0-3 2-4 5-4zm-184 72c-3-1-5-2-5-5s1-5 4-5c4 0 6 2 5 5 0 3-2 4-4 4zm53 108c0 3-1 5-4 5s-5-1-5-4c-1-3 1-5 4-6 3 0 5 2 5 5zm82-166 1 4v3c-2 2-4 3-7 1-2-3-4-5-1-8 2-2 5-3 7 0zm11 517c-3 0-6 0-8-3-1-2 0-4 1-5 3-3 5-2 8 0 2 3 2 6-1 8zm-237-56c3 3 3 6 0 9a4 4 0 0 1-6-1c-3-3-2-5 1-8h5zm2-76c3 0 5 1 5 4 1 4-2 5-5 5-3 1-4-1-5-4 0-3 2-5 5-5zm139-358c8 2 9 4 3 12-3 0-5-2-6-5s0-6 3-7zm-69 112c0 3-2 5-5 5s-5-2-5-5c0-4 2-5 5-5s5 2 5 5zm316 301c-4-1-5-3-5-6s2-4 5-4c2 0 4 2 4 4 0 4-2 5-5 6zm-6 38 5-2h3c4 2 6 5 2 9h-10a8 8 0 0 1 0-7zm-328-3c0 3-1 4-5 4-2 0-4-1-4-4-1-3 1-5 4-5s5 2 5 5zm67 160c-1 3-2 5-5 5s-5-2-5-5 2-5 5-4c3 0 5 2 5 4zM378 554c0 3-2 5-4 5-3 1-5-1-6-4 0-3 2-5 5-5s5 1 5 4zm56-383c-1 3-2 4-5 4s-5-2-5-5c1-3 2-5 5-4 3 0 5 2 5 5z"/><path class="st0" d="M789 596c1-4 4-5 8-4 3 2 3 4 1 8a9 9 0 0 1-6 1c-3-1-5-2-3-6zm-356-48c-3 0-5-2-5-5s2-5 5-5 5 2 5 5-2 4-5 5zm404-8c-1 3-2 5-5 5s-5-2-5-6c0-3 2-4 5-4s4 2 5 5zm-73 71h1c1 2 4 5 2 8-3 3-5 4-9 1v-4c1-3 4-4 6-5zM510 255c3 0 5 1 5 4 1 3-1 5-4 5s-5-1-5-5c0-2 2-4 4-4zm30 25c0 3-1 5-5 5-2 0-4-2-4-5s2-5 5-5c2 0 4 2 4 5zm-12 335c1 3 1 6-2 8-2 1-5 1-6-1-2-3-1-6 2-8s4 0 6 1zm306-334c-1 3-2 5-5 5-3 1-5-1-5-4s2-5 5-5 4 2 5 4zm7 291v4c-2 2-5 3-7 1-2-1-3-3-2-5a5 5 0 0 1 4-3c2-1 4 0 5 3zm-52-321c-4 1-7 0-7-5s4-5 8-4c3 3 4 7-1 9zm5-20 6-2c5 0 5 3 4 8l-3 2c-4 0-7-2-8-6l1-2zm-243-54c3 1 5 2 5 5-1 3-3 5-5 5-3 0-5-2-5-5s2-5 5-5zm-70 101c3 0 5 1 5 4s-2 6-5 5c-3 0-5-2-5-5s2-4 5-4zM347 539c0-2-1-4-3-4 0-4 1-7 5-7 2 0 4 2 5 4 0 2 0 4-2 5l-5 2zm480 33c4 5 2 8-2 11-7 1-5-5-6-9l3-3c2-1 4-1 5 1zM669 759c-3-1-5-2-5-5 1-3 3-5 6-5s4 2 4 5-2 4-5 5zM405 521l1 4c-1 3-3 5-7 4a4 4 0 0 1-3-5c1-5 5-5 8-3zm40-65c-3 0-5-2-4-5 0-3 2-4 5-4s4 2 4 5-2 4-5 4zm210-294c-3-1-5-3-5-5 0-3 2-5 5-5s4 2 4 5-2 4-4 5zM330 452c-3-1-5-2-5-5s1-5 5-5c3 0 4 1 4 4s-1 5-4 5zm578-7c0 3-2 5-5 5s-5-2-5-5 2-5 5-5 4 2 5 5zm-425-6c3 1 5 2 5 5 0 4-2 5-6 5-3 0-4-2-4-5s2-4 5-5zm368-100c-3-1-5-2-5-5s2-5 5-5 5 2 5 5-2 4-5 5zm105 101c0 3-2 4-5 4-2 0-4-2-4-5s2-5 5-4c3 0 4 2 4 5zM622 653l5 2v5c-1 2-3 3-5 3s-3-1-4-3c-1-4 1-5 4-7zm148 35c-1 3-2 4-5 4-3 1-5-1-5-4s2-5 5-5 5 2 5 5zm65-256c-3 0-5-2-5-5s2-5 6-4c3 0 4 2 4 5s-2 4-5 4zm53-97c0 3-1 5-4 5-4 0-6-2-5-5 0-3 1-5 4-5s5 2 5 5zm28-3c3-1 5 1 5 4 1 3-1 5-4 5s-5-2-5-5c0-2 1-4 4-4zm-636 95c0 3-2 5-5 5s-5-2-5-5c1-3 3-5 5-5 4 1 5 3 5 5zm412 233 2-5c4-2 6-1 8 2v4c-4 4-7 4-10-1zM434 154c-1 3-2 5-5 5-4 0-5-2-5-6 0-2 2-4 5-4s4 3 5 5zm214 529c4 0 6 2 6 5 0 2-2 4-5 4s-5-1-5-4 2-5 4-5zm247-308c-3 0-4-2-4-5 0-2 1-4 4-4 4 0 6 2 5 5 0 3-2 4-5 4zm-67 1c-3 0-5-2-5-5s2-4 4-5c4 0 6 2 5 6 0 2-2 4-4 4zM396 154c0 4-2 5-5 6-3 0-5-2-5-5s2-5 5-5 5 2 5 4zm377 63-5 2c-3-1-5-3-5-6 1-3 3-4 6-4s2 4 4 5v3zM540 671c0 3-1 5-5 5-3 0-5-1-5-4 0-4 2-6 5-6s4 2 5 5zm326-301c-1 3-2 5-5 5s-5-2-5-5 2-5 5-5 5 2 5 5zM602 210c0 3-2 5-5 5-2 0-5-1-5-4 0-4 2-6 5-6s5 2 5 5zm58 467c2-3 4-4 7-3 2 1 3 2 3 4s-1 4-3 5c-4 1-6-1-7-4v-2zm-15-8a18 18 0 0 0-2 2c-3 3-6 3-8 0-3-5 0-7 4-8 4 0 6 2 6 6zM373 357l1-3c4-2 7-1 8 3 1 2-1 5-4 5-4 1-6-1-5-6zm-61 37c-1 2-2 5-5 5s-5-2-5-5 2-5 5-5 4 2 5 5zm18-34c-3 0-5-2-5-5s2-5 5-5 4 2 4 5c1 3-1 5-4 5zm635-12c3 0 4 2 4 4 0 4-2 5-5 5s-4-2-4-5 2-4 5-4zM554 662c2 1 4 2 4 5 0 4-2 5-5 5s-5-2-4-5c0-3 2-5 5-5zm313-250c-3 0-5-2-5-5 0-2 2-5 5-5s5 2 5 6c0 3-2 4-5 4zm71-10c2 0 4 2 4 5 1 3-1 5-4 5s-5-2-5-5 1-4 5-5zm-535 8c-1 3-2 5-5 5s-5-2-5-5 2-5 5-5 4 2 5 5zm148 231c0 3-2 5-4 5-3 0-5-1-5-4 0-4 2-5 5-5s4 2 4 4zm-95 69c-1 3-2 5-5 5s-5-2-5-5 2-4 5-4 4 2 5 4zm415-409c0 3-2 5-5 5s-4-1-4-4 1-5 4-5 5 2 5 4zM680 139c2 0 4 2 5 5 0 3-2 5-5 5s-5-1-5-5c0-3 2-4 5-5z"/><path class="st0" d="m794 231-1 2c-4 3-7 3-9-3l2-4c2 0 3-2 5-1 2 2 3 3 3 6zm-287-74c-2 3-5 5-4 9-5-1-5-5-5-8-1-2 1-4 3-5 4 0 6 1 6 4zm4 147c0 3-2 4-4 4-3 0-5-1-5-4s2-5 5-5 4 2 4 5zm-11-72c-1 3-2 5-5 5s-5-2-5-5 2-5 5-5 5 2 5 5zm227-8c3 0 5 1 5 4s-2 5-4 5c-4 1-6-2-6-5 1-2 2-4 5-4zM509 717c-1 3-2 5-5 5s-5-2-5-5 2-5 5-5 4 2 5 5zm92-573 2-6c2-1 4 0 6 2 3 6 2 8-5 9-3-1-4-2-3-5zM321 485c0 3-2 4-5 5-3 0-5-2-5-5s2-5 5-5 5 2 5 5zm30-171c-1 3-2 4-5 4s-5-1-5-4 2-5 5-5 5 2 5 5zm251-120c0-3 1-5 4-5s5 2 5 5-1 5-4 5-5-2-5-5zm239 308c0 3-2 5-5 5s-5-1-5-4 2-5 5-5 4 1 5 4zM675 654c-2 2-4 4-7 1-2-1-3-3-2-5 2-4 5-4 8-3s3 4 1 7zm-260-7c3 0 5 2 5 4 0 3-1 5-4 6-3 0-5-2-5-5s1-5 4-5zm61-2-5 3-4-3a4 4 0 0 1 1-6c1-1 3-2 5-1 4 1 3 4 3 7zm145-491-3 1c-4-1-6-3-5-7 1-3 4-4 7-2 3 1 4 4 1 8zm285 172c-3-1-5-3-5-5 0-4 3-5 6-5s4 2 4 5-2 5-5 5zM692 698c-1 3-2 5-5 5s-5-2-5-5 2-5 5-5 4 2 5 5zm60-384c3 1 5 2 5 5-1 3-3 5-6 5-3-1-4-3-4-5 0-4 2-5 5-5zM540 711c-3 0-5-2-5-5-1-3 1-5 5-5 2 0 4 2 4 5s-1 5-4 5zm-93-236c-3 0-5-1-5-4 0-4 2-6 5-6s5 2 5 5-2 5-5 5zm45-165c2 0 4 2 5 4 0 4-2 5-6 5-3 0-4-1-4-4s2-5 4-5zm-103-1c3-2 6-2 8 2 1 2 0 4-1 5-2 2-4 2-6 1-3-2-3-4-2-7v-1zm266-114c-1 2-2 4-5 4s-5-1-5-4c-1-4 1-6 5-6 2 1 4 2 4 5zm94 469 2 2c3 1 5 3 4 6 0 3-2 4-4 4-4 0-5-3-5-6l3-6zm-227 10c-1 3-2 5-5 5-3 1-5-1-5-4s1-5 4-5 5 2 5 4zm119-555c-4 0-7 0-7-4 0-5 3-6 7-5 3 3 3 6 0 9zm-50 516c2 1 4 1 4 4-1 4-4 6-8 5-4-2-4-5-1-8 2-1 3-2 5-1zm98-507 1-1c4-2 7-4 10 0 2 5-1 7-5 8h-1c-3-1-4-4-5-7zm-34-47c-1 3-2 4-5 4s-5-2-5-5 2-5 5-5c3 1 5 2 5 6zm-244 91c3 0 5 2 5 5s-2 4-5 4-5-1-5-5c1-3 3-4 5-4zm237 555c0 2-2 4-5 4s-4-2-4-4c0-3 1-5 4-5s5 1 5 5zm24-570c3 0 5 2 5 4 1 3-1 5-4 5s-5-1-5-4 2-5 4-5zm86 473c-2 1-3 5-6 4l-4-3c-2-2-1-4 1-5 4-1 8-2 9 4zM363 177c-4 0-6-1-6-4s2-5 5-5c3-1 4 1 4 4s-1 5-3 5zm107 515c-2 0-5-1-5-4 0-4 2-6 5-6s5 2 5 5-2 5-5 5zm302-96c4-4 7-5 10 1 1 2 0 3-2 4l-1 3c-3 1-5-1-6-3-2-1-3-3-1-5z"/><path class="st0" d="M749 664c-1 3-1 5-3 6-3 0-6-1-6-4-1-2 0-4 3-5 2-1 5 0 6 3zM591 137c5 1 4 5 4 8-4 2-8 2-11-2 1-5 4-6 7-6zM468 614c-3-1-5-2-5-5s2-5 5-5 5 2 5 5-2 4-5 5zm148-442h-3c-3-2-5-4-4-7 2-3 4-4 7-3l3 2c0 3-1 6-3 8zM480 763c-3 0-5-2-5-4 0-3 2-5 4-5 4 0 6 2 5 5 0 3-2 4-4 4zm41-6c0 3-2 5-5 5s-5-2-5-5 2-5 5-5 5 2 5 5zM362 230c-3 0-5-1-5-4-1-3 1-5 5-5 2 0 4 1 4 4s-2 5-4 5zm611 144c-3 0-5-1-5-4s1-5 4-5c3-1 5 1 5 4s-1 5-4 5zm-173-3c-1 3-2 5-5 5s-5-1-5-4c-1-3 1-5 4-5s5 1 6 4zM491 557c-1 3-2 4-5 4-3 1-5-1-5-4s2-5 5-5c2 0 4 2 5 5zM384 380l-4-3c1-7 2-8 8-5l1 5c-1 2-3 3-5 3zm-65-1 5-1c5 4 1 7 0 10-2 1-5 1-6-1-1-3-3-6 1-8zm583 33c-3 0-5-2-5-5s2-5 5-5c3 1 5 3 5 6s-2 4-5 4zm-587 2c-1 3-2 5-5 5s-5-3-5-6c0-2 2-4 5-4s4 2 5 5zm428-209-3 6c-3 0-6 0-6-4-1-2 0-4 2-5 3-2 5 0 7 3zm161 226c-4 0-6-2-6-5s2-5 6-5c3 1 4 3 4 5 0 4-2 5-5 5zM414 538c0 2 1 3-1 5-1 2-3 2-5 2-2-1-3-2-3-5 0-2 1-4 3-4h5l1 2zm77-335c-3-1-5-2-5-5s2-5 5-5 5 2 5 5-2 4-5 4zm368 330c3 1 5 4 4 8l-4 2c-2 2-4 1-5-1 1-4 0-8 5-9zM537 200c-3 0-4-2-4-5s2-5 5-5 4 2 4 5-2 5-5 5zm-46 282c0 3-2 5-5 5s-5-2-5-6c1-3 3-4 5-4 3 0 5 2 5 5zm313 16c3 0 5 2 5 5s-2 4-5 5c-3 0-5-2-5-5s2-4 5-5zm-28 7c0 3-2 4-5 4s-4-2-4-5 2-4 5-4 4 2 4 5zm-327 8c-4 0-5-2-6-5 0-3 2-5 5-5s5 1 5 5c0 2-2 4-4 5zm-80 1 4-2c3 2 5 4 3 7-1 3-4 4-6 2-4-2-4-4-1-7zm68-196h-5c-3-1-4-4-3-7l2-3c7 1 8 2 6 10zm-25-64c-3 0-5-2-4-5 0-3 2-5 5-5 3 1 4 3 4 6s-2 4-5 4zm-44-8c1 3 2 5-1 8a4 4 0 0 1-5 0c-4-1-3-5-3-8 3-2 6-2 9 0zm162 1c0 3-2 5-5 5s-5-2-5-5 2-4 5-4 5 1 5 4zm-173 15c3 1 5 2 5 5 0 4-2 5-6 5-2 0-4-2-4-5s2-4 5-5zm8 56 3 4c0 4-2 6-7 5l-2-4c0-4 2-5 5-5zm515 0c0 3-2 5-5 5-3-1-5-2-4-5 0-3 2-5 5-5 3 1 4 2 4 5zm-65-6c2 0 4 2 4 5 0 2-2 4-5 4s-5-2-5-5 2-4 6-4zm35 4c-1 3-2 4-5 5-4 0-5-2-5-5s2-5 5-5c2 0 4 2 5 5zm-496-26c-4-2-4-5-2-8a4 4 0 0 1 7 0c2 3 2 6-1 8h-5zm434 27c-1 2-2 4-5 4s-5-2-5-5 2-5 5-5 5 2 5 5zm-40-34c-1 3-2 4-5 4s-5-2-5-5c1-3 2-5 5-4 3 0 5 2 5 5zm-92 453c3 0 4 1 4 4 1 3-1 5-4 5s-5-1-5-4 2-5 5-5zM258 452c0 3-2 5-5 4-3 0-5-1-4-4 0-3 2-5 5-5 3 1 4 2 4 5zm678-1 2-1c2-1 5-1 7 2 1 2 0 4-1 6a5 5 0 0 1-6 1c-3-2-3-4-2-7v-2 1zm-67 37c-3-1-5-2-5-5s1-5 4-5 5 1 5 5c0 3-2 4-4 5zm-27-4c-1 3-2 5-5 5s-5-2-5-5 2-5 5-5 4 2 5 5zM570 640c2 3 3 7-2 9-4 2-5-1-6-5 1-5 3-7 8-4zm293-125c3 0 5 2 5 5s-2 5-4 5c-3 0-5-2-5-5s1-5 4-5zM470 160c0 2 0 5-3 6h-5c-2-2-2-5 0-7 3-4 5-5 8 1zm369 361c0 3-2 5-5 5s-5-2-5-5 2-5 5-4c3 0 5 2 5 4zM582 153l-8-4v-4h3c3-2 5-2 7 1s1 5-2 7zm19-9 3 5c-1 4-3 6-7 4-4-1-4-5-2-8a8 8 0 0 1 6-1zm274 301c-1 3-2 5-5 5s-5-2-5-5 2-5 5-5 5 2 5 5zM585 661v-5c3-2 6-3 9 0 1 2 1 5-1 7-3 2-6 1-8-3zm29 41 7 2c1 3 0 6-3 7-2 1-4 0-5-1-2-3-1-6 1-8zm-146-1c3 0 5 2 5 5s-2 5-5 5-5-2-5-5c1-3 2-5 5-5zM322 405c2-3 6-6 9-1s-2 7-5 9c-4-2-5-4-4-8zm543-12c-3 0-5-2-5-5 0-2 2-4 5-4s4 2 4 5-2 4-4 4zM751 215v-4c3-2 6-4 8 0 2 2 2 4 0 6-4 3-6 2-8-2zM406 329c1 4 0 7-4 8-5 1-6-3-6-7 3-4 6-5 10-1zm254 348v3l-3 2c-2 2-4 1-6-1v-6c2-2 4-3 6-1l3 3zm86 17c-3 0-5-2-5-5s2-5 5-5 4 2 4 5-1 5-4 5zM380 230h-3c-4-3-4-6-1-9 2-2 5-1 6 1 2 3 2 6-2 8zm322-77-7 3c-5-3-3-6 0-10v1c4-1 8 1 7 6zm-253 76c0 3-2 5-5 5s-4-2-4-5c-1-3 1-4 4-4s5 1 5 4zm371 110c-3 0-5-1-5-4s1-5 4-5 5 1 5 4-2 5-4 5zM452 548c2 2 3 4 1 7-1 2-3 3-5 2-4-1-4-5-3-8 2-3 4-2 7-1zm384 7c1-2 3-3 6-2 2 1 3 2 3 4-1 4-3 5-7 6-3-2-5-4-3-8z"/><path class="st0" d="m414 538-1-2c-1-3-1-5 2-7h4c2 2 3 4 2 6-1 4-4 4-7 3zm315-367c5 1 2 5 3 7l-2 3c-4 2-6 0-7-3 1-2 1-5 3-7h3zm71 383c3 1 5 2 5 5s-2 5-5 5-5-1-5-4c0-4 2-5 5-6zm-420 22-7 2c-3-2-3-5-2-7s3-3 5-2c4 1 4 4 4 7zm-47-77 3-1c4 2 4 5 2 8a4 4 0 0 1-7 0c-2-2-2-5 2-7zm224 127-4-1c-2-3-2-6 2-8s6 1 7 5c0 3-1 6-6 4zm-185-85-5-5c1-3 3-5 6-5 3 1 4 2 4 5s-2 5-5 5zm94-253c3 1 4 3 4 5 0 4-2 5-5 5s-4-2-4-5 2-4 5-5zM258 440c-3-1-4-2-4-5-1-3 1-5 4-5s5 2 5 5-2 4-5 5zm212 308c-3 0-5-2-5-4 0-3 1-5 4-5s5 1 5 4-2 5-4 5zM341 347h4c4 2 4 5 1 7-2 2-5 2-7 0-2-3-2-5 2-7zm65 272a14 14 0 0 1-1-7c2-2 4-2 7 0 1 1 2 4 0 5-1 3-3 4-6 2zm-2-58c0-3 1-5 3-6 3-2 5-1 6 2v6c-4 1-7 2-9-2zm438-263c0 3-2 5-5 5s-5-1-5-4 2-5 5-5 5 2 5 4zM629 137l-6 1-2-1c-3-4-2-7 1-9 4-1 6 0 8 4l-1 5zM348 365c4 0 3 4 3 7-2 3-5 3-7 1l-2-4c0-4 3-5 6-4zm-30 22 6 1c2 3 1 5-2 7-2 1-4 1-6-1-2-3-1-5 2-7zm313 259h-1c-3-7 2-8 6-9 3 1 4 3 4 5l-1 2c-2 2-4 5-8 2zm182-348c0 3-1 5-4 5s-5-1-6-4c0-3 2-5 5-5s5 1 5 4zM383 193c0 4-2 5-5 5s-5-2-4-5c0-2 1-4 4-4s5 2 5 4zm444 379h-5c-2-1-3-2-3-4 1-2 3-5 6-4l3 1c2 2 2 5-1 7zm-46 29 1-4c2 0 2-3 4-4 0 2 1 3 3 3l3 6c-4 6-8 0-12-1zm-65-401 4-6c4 0 6 2 6 5a4 4 0 0 1-3 4c-3 1-6 1-7-3zM575 659l1 4c0 4-2 6-6 5-2-1-3-3-3-5 1-5 4-5 8-4zM357 385c1 6-3 6-7 6-3-2-3-5-1-7 3-2 6-2 8 1zm360-171c3 2 5 2 8 1 1 3 1 6-2 8-2 1-4 0-5-1-3-2-3-5-1-8zm163 74c-2 2-4 3-7 2-3 0-3-3-3-5l2-4c3 1 8 0 8 7zm-492 11-7 1c-2-2-3-5-1-7s4-3 6-1c3 2 4 4 2 7zm361 327-2 5c-2 2-4 2-7 0v-5c1-5 3-5 7-3l2 3zm-22 8c3 0 5 2 7 4-1 3-2 5-5 5-2 0-4-1-5-3-1-3 0-5 3-6zM373 283l-2-5 3-3 6 1c2 7 0 8-7 7zm285 360c-3-2-5-5-2-9 4-3 7-1 8 3s0 7-6 6zM413 287c-2-4 0-7 4-7 6 1 5 5 4 8-3 3-6 3-8-1zm398-42c2 1 3 4 2 7l-1 2c-5 2-7 0-7-4s2-6 6-5zM627 111c0 2-1 3-3 4s-4 1-5-1c-1-8 0-9 7-7 2 1 2 2 1 4zm228 440-6 2c-6-1-7-4-3-9 6-1 8 2 10 6l-1 1z"/><path class="st0" d="M740 619v-4c1-3 3-4 6-3 1 2 3 4 3 7l-2 2c-3 1-5 1-7-2zM345 336l-7-1c-1-3-1-6 2-7a4 4 0 0 1 6 1c2 2 1 5-1 7zm-8 150c-3 2-5 2-8 2-1-2-2-5 1-7a4 4 0 0 1 5-1c3 2 4 4 2 6zm200-333c2-3 5-6 9-3 3 3 1 6-2 9-4 0-7-1-7-6zm-88 6-5-2c-2-2-1-5 1-6 2-2 4-1 6 1 2 3 1 5-2 7zm142 22 1-5c3-1 6-2 8 2 1 2 0 5-2 6-3 1-6 0-7-3zm229 394c0 4 2 6 5 8 0 5-3 6-7 4-3-2-3-5-1-7l2-3c-1-2 0-2 1-2zm-368-27-7 1c-3-2-3-5-1-7 1-2 3-2 5-1 4 1 3 4 3 7zm226-425v3l-1 1c-4 2-7 0-7-3 0-5 3-6 7-5 2 1 3 2 1 4zm-59-9a8 8 0 0 0 5 1v2l-1 7h-2l-5-4c-1-3 2-5 3-7zm-9 67 8 1c1 3 0 5-3 7-2 1-4 0-5-1-2-3-2-5 0-8zm281 325c2 0 5 0 7-2 5 6 3 8-4 9-3-1-5-4-3-7zM575 145l-1 4c-2 2-4 2-7 2h-1l-1-4c2-4 5-8 9-2zm311 380c-2 3-5 1-7 3-3 1-6 0-7-4-1-3 1-5 4-6h4v1c-1 4 4 4 6 6zM675 654c1-3-1-5-1-7 2-3 4-3 7-1 1 1 2 2 1 4-1 4-3 4-7 4zm54-34 3 6 1 1h-1c-1 2-4 1-6 2-2 0-2-2-4-3v-2c2-2 3-5 7-4zm-130 22c0-3 1-6 5-7 4 1 5 4 3 8l-5 1c-1 0-2 0-3-2zm179 20c-1-4 2-6 5-7 3 2 4 4 2 7-3 3-5 3-8 0zM415 367c1-2-1-5-1-7 2-2 4-3 7-1a4 4 0 0 1 1 6c-2 3-4 3-7 2zm388-131c2-3-1-5-4-7 2-1 4-3 7-2 5 2 3 6 3 9-2 2-4 2-6 0zM482 590l5 6c-2 3-4 4-6 3s-4-3-4-5c1-3 2-4 5-4zm157 54v-1l6-2 3 1-1 8c-6 2-7-2-8-6zm217-94c-4-1-5-6-10-6l8-3 5 2c0 3 1 6-3 7z"/><path class="st0" d="M645 641c-1 3-3 3-5 1l-3-5c1-3 3-4 5-3 4 1 3 4 3 7zM368 246h-9c-1-4 0-7 5-7 4 0 5 3 4 7zm435-10h6c3 4 1 6-2 7-3 2-6 0-6-4l2-3zM619 643l1-8c3-1 5 0 6 2s1 4-1 6-4 2-6 0zm-137-35 1 8c-2 3-4 2-6 0-2-1-2-3-1-5 1-3 4-3 6-3zm442-141h9c2 2 0 4-2 6a4 4 0 0 1-5 0c-2-1-3-3-2-6zM723 178c2 1 4 3 7 3 0 3-1 5-4 6-2 0-4 0-5-3-2-2-1-4 2-6zM448 600l-5 6c-3-1-4-2-4-5 0-2 1-4 3-5 3 0 5 1 6 4zm316 4v7c-5 0-7-1-7-6 1-2 3-3 5-3l2 2zM413 287c2 2 5 2 8 2 1 4-1 7-5 6s-6-4-3-8zm173 349c-1 3-1 5 1 8-2 2-4 1-6 0a4 4 0 0 1-1-5c1-3 3-4 6-3zm59 33c-2-2-3-5-6-6 1-3 3-4 6-3 2 0 3 2 3 3 1 3 0 5-3 6zm141-50h8c1 2 1 5-2 6a5 5 0 0 1-5 0c-2-1-3-4-1-6zm-182 35c3 0 5-1 7-3 2 2 3 4 1 7-1 2-3 2-5 1-3 0-4-3-3-5zm-31-495a10 10 0 0 0 8 0c2 3 1 5-2 6-1 1-3 1-5-1-2-1-3-3-1-5zM408 630c4 0 4 5 6 7-2 2-5 3-8 0-2-3-1-6 2-7zm483-124 3 7-3 2c-3 1-4-2-5-4-1-3 0-5 4-5h1zM557 626c3 0 3-3 5-5 5 4 5 6 0 9-3 0-6 1-6-4zm134 12c3 2 6 1 8 3 0 5-3 6-6 5-4-2-4-5-2-8zM470 160c-3-4-6-2-8-1-1-3-1-5 2-7 2-1 4 0 5 1 2 2 3 4 1 7zm89 6c0 3 1 6 3 8-3 3-6 3-8-1-1-4 1-7 5-7zm252 443c-1 2-5 3-4 6 2 4 6 2 9 3-1 2-3 1-5 1-3 0-8 1-8-4-1-6 4-5 8-6zm23-347c3-2 0-7 5-8 3 1 4 3 3 6-2 4-5 4-8 2zM521 160l6 5c-1 3-4 5-7 4-3-2-4-4-2-7 0-1 1-2 3-2zM322 405l4 8c-3 3-6 2-8-2-1-2-1-6 4-6zm15 121c0-3 0-6-5-7 2-2 4-3 7-2 2 1 3 2 3 4 0 4-2 5-5 5zm275 157c-2-3-6-2-7-5 1-4 4-5 7-3s3 5 0 8zm193-433c1 3 3 5 7 4 0 3-2 5-4 5s-4-1-5-3-1-5 2-6zM438 642c1-2 2-5 0-8 2-1 5-1 6 2v5c-1 2-4 2-6 1zm313-409c2-3 6-1 7-5 3 3 4 6 0 8-3 2-6 1-7-3zM409 592c-1 3 0 6 1 9-3 1-6 0-7-4 0-4 2-6 6-5zm408-342 7-5c3 2 3 5 0 7-2 2-5 2-7-2zm-368 92c-3-2-6-1-9-1-1-5 1-7 5-6 4 0 5 3 4 7zm160-202a11 11 0 0 1-7-2v-4c2 1 5-1 7-1 3 2 1 4 0 7zm133 56c0-4-1-7-3-9l3-2c1 1 2 3 5 3 0 4 0 7-5 8zM480 579c4-2 5-4 5-8 4 1 5 3 3 7-2 3-5 4-8 1zm347-313-7-6c1-3 3-3 6-3l3 6-2 3zm-64-69c-1-5-4-5-8-4 0-2 1-4 4-5 2 0 4 0 5 2 2 3 1 5-1 7zm-226-44 7 6-2 3-6-2c-1-2-2-5 1-7zm121 490c4 0 5-4 6-6 4 2 5 5 2 8-3 2-6 1-8-2zm31-515c4 1 3 5 5 7-2 4-4 1-6 0s-2-2-2-4l2-3h1zm26 27a9 9 0 0 0 0 10c-3 1-5-1-6-4 0-5 3-6 6-6zm58 446 6 3c2 5 0 7-5 7 2-4 0-6-2-9l1-1zm63-46c-1 3 1 5 3 8-3 3-5 3-8 1a14 14 0 0 0 2-8l2-1zm13 0c1 5-1 11 7 7 0 4-2 6-6 5-3-1-4-4-2-7l1-5zm-29 20-1 2c-6-4-6-6 0-9l3 4-2 3zm-106 54a12 12 0 0 0-3 9c-3 0-4-2-4-5s1-4 4-4h3zm172-104h-6c-4-2-3-4 0-6 4-1 3 5 7 5l-1 1zM555 162c1-2 3-3 3-6 7-2 3 4 4 5-2 3-4 4-7 1zm15 478c-4-1-6 1-8 4-3-3-2-6 1-8 4-1 6 0 7 4zm154-481c0-5-5-4-8-6 2-3 5-4 8-1 2 2 3 5 0 7zm65 92c3-3 2-6 1-9 3 1 6 1 5 5 0 3-3 5-6 4zm-252-80c4-1 6-4 6-8 3 2 3 4 2 7-2 3-5 4-8 1z"/><path class="st0" d="m521 160-3 2c-3-7-2-8 5-9-2 2-3 5-2 7zm167-32-1 3c-3-1-7-1-10-4l1-1c4 3 8 5 9-3 2 1 1 4 1 5zm86 86c-1-4 6-6 4-11 1 5 4 10-4 11zm70 52c-3 1-5 4-4 8-3-1-4-4-3-7 2-2 4-4 7-2zm-438 63c-4-2-7-2-10 1 0-3 1-5 4-5 3-1 5 1 5 4zm185-167 8 4c-1 2-3 2-6 1-2-1-3-3-2-6zm0-25-7 5c-2-2-1-4 1-6 3-2 4 1 6 1zm182 464-1 2-3-1v-8l3 2 1 5zM627 111l-1-5 2-4c0 5 2 7 7 6-2 3-6-1-8 3zm102 60h-4c0-2 0-4 3-5 2 1 1 3 1 5zM514 593c-4-2-8 2-12 1 4-1 7-7 12-1zm62 41c2-2 8-1 7-7 1 6 0 8-7 7zM359 300c-2-2-1-5-3-7 5 1 3 4 3 7zm399 316v4l-3-1c1-1 0-5 3-3zm-230-1-6-1-1-4 5 2 2 3zm150-492-1-4 1-2c3 2 4 4 0 6zM499 587l-2-7c4 2 4 4 2 7zm313-6-1-6c4 1 4 4 1 6zm-229 46-6-1c2-2 4-1 6 1zm-201-40h-5v-1l5-2v3zm-28-297h4l-2 3h-3l1-3zm552 211c1-3 3-4 5-4-1 2-3 2-5 3zM352 293l-1 6c-2-3-1-4 1-6zM635 83h-7c3-2 5-3 7 0zm79 546h-3l1-5 2 5zM901 951v47h-18V888h18v48h53v-48h18v112h-17v-48h-54zm-136-49h-40c-10 0-13 2-13 13v20h50v15h-49v27c0 5 3 7 7 7h45v15h-45l-9-1c-11-2-16-8-16-19v-71c0-13 5-20 18-21h52v15zm-419-5-4 6-5 1a55 55 0 0 0-35-1c-21 7-31 28-26 51a40 40 0 0 0 45 30c6 0 8-3 8-9v-32h18v37c0 8-4 14-11 16-23 9-61 4-75-30a58 58 0 0 1 31-76 58 58 0 0 1 54 7zm239-10-21 48-26 57c-2 6-8 9-13 6l-5-5-45-106h17l3 4 32 75 2 5 27-63 8-18a7 7 0 0 1 5-3h16zm275 94 5 7a52 52 0 0 1-67-2 60 60 0 0 1-5-82 53 53 0 0 1 72-7c-4 8-4 8-13 6-21-6-40 0-50 17-10 19-7 52 19 62a49 49 0 0 0 34 0l4-1h1zm-213 18h-17v-97h-33v-15h82v14h-32v98zM418 886a56 56 0 0 0-55 57 56 56 0 0 0 55 57 56 56 0 0 0 56-57 56 56 0 0 0-56-57zm38 57c0 19-10 34-26 39-24 8-48-8-49-35-1-6 0-14 2-20a36 36 0 0 1 40-25 37 37 0 0 1 32 35l1 6zM473 1058c8-1 8-1 12 6l14 25 1 1v-32h7v43c-7 2-8 2-12-4l-15-27v32h-8v-44zm264 22c0 16-13 26-28 22-11-3-17-14-15-27a21 21 0 0 1 23-18c12 1 20 10 20 23zm-7 1h-1l-1-7c-1-7-6-11-13-11-6 1-12 5-13 12 0 5 0 11 2 15 4 8 16 9 21 2 3-3 3-7 5-11zm-172 14v-11h-9v-6h16v21l-2 2c-6 1-12 2-18 1-11-2-18-11-17-23a22 22 0 0 1 19-22h11c7 1 7 2 6 9-9-3-18-5-25 4a17 17 0 0 0 0 20c4 5 10 7 19 5zm222-15 10 21c-7 2-7 2-10-4l-4-8c-2-6-3-7-10-6v19h-7v-45l19 2c5 0 8 4 9 9 0 5-2 10-7 12zm-14-4c5 0 9 1 12-3v-6c-3-4-8-3-12-2v11zm-170 15c-3 5-2 14-12 11l5-13 12-29 5-2 4 2 18 41c-7 2-8 2-10-4-1-5-4-7-8-6h-14zm2-6h16l-8-19-8 19zm212-27h25v6h-17v12h16v6h-16v14h17v6h-25v-44zm-163-1 18 1c7 1 11 6 11 13s-4 12-11 13l-11 1v17h-7v-45zm8 7v14c5 0 9 1 12-3v-7c-2-4-7-4-12-4zm-261 31 11 1 6-5c1-2-2-5-3-7l-8-4c-6-3-8-7-7-13 1-5 5-9 11-10h13v5l-1 3c-3 0-5-2-8-1-2 0-6 1-7 3-2 4 1 6 4 7l8 5c5 3 7 8 6 13-1 6-5 10-11 11l-15-1 1-7zm47-37h6v44h-6v-44z"/></svg>