<svg width="624" height="346" xmlns="http://www.w3.org/2000/svg"><g fill-rule="nonzero" fill="none"><path d="m551.7 335.8.6 1.6-.5.4v-2Zm.5-7.2c-.3.2-.6 0-.8.2l1.3 5.9c2.3-1.8-2-5-.5-6Zm.7-1.4c1.2-1.7.2-2.9-.2-3.5.9 1-1.4 3.5.2 3.5Zm50.7-170.7-.1.6c.1-.3.2-.5.1-.6Zm8.9-45.9-1-.8c-.5 8.9-5.3 17.7-7.1 26.7l-.2-.7c-7.1 22.2-11.6 43.2-17.4 65.6 0-.4-.3-.6-.3-1 0 1.2.4 2.6 0 3.8-.4.2-.5-.5-.5-1-3.1 4.2-3 14.1-5.2 16.6-.2 1.4.3 2.2 1.1 1.6-4.7 17.5-10 36-14 54.1-.4.8-1 .8-1.5.4-1.7 16-7.6 31.4-12.7 46.6.6.8 1.3-1.3 1.6.5 2.5-4.7 1-9.7 3.6-13.8l.6.8c1.4-3.1-1.6-1.2.3-4.3 1-1.1.8.6 1 0 1.9-7 4.7-14 5-21.2 2-1.1 2.2-7.4 4.5-9.5 0-2 .6-3.8-.2-4.8 8.1-24 14.1-49.3 21.7-74.2.5-12.6 8.3-25.5 11.5-39.6h.3c.6-4.7 2.2-11.4 4.2-16.6l.1-5a461.3 461.3 0 0 0 12.6-36.2l1.9-6.2a16.5 16.5 0 0 0-9.8-20l-.6-.2-.3-.2-.9-.2-1.5-.5-3.1-1-6.2-1.8c-8.2-2.5-16.5-5-24.6-7.8-37.2-12-69.3-24.1-107-31 .2-.4 0-.6 1-.4-10.8-2.6-20-6.6-30-9v-.2c-12.6-2.5-25.4-6.4-38-10.3a676 676 0 0 0-28.3-8l-4.6-1-2.3-.4a13 13 0 0 0-2.5-.3 14 14 0 0 0-14.9 9.1l-1.7 5.7a2847.8 2847.8 0 0 0-20.2 70l-.5-.3c-6.1 24.8-16.4 47.5-22.8 72.1-9 24.7-12 52.6-21.5 77.3-2 3.7-3.3 7.8-4.5 12.2L276 253a13 13 0 0 0 2.7 13c1.4 1.6 3.2 2.8 5 3.5l3 1a62.3 62.3 0 0 1 8.6 3.5c28.8 13.7 59 19.6 90 25.9 27.3 10 56.4 14.1 82.3 25.6 13.4 1.7 26 10.8 40.5 14.4l-.3-.9c4.4 3.8 12.3.3 14.5 4.6h-.6c1 1.3 3 .7 4.7.2 1.7-.6 3.3-1 3.7.1l.6-.7c1.5 0 1.6.3 1.6.6s-.2.8 1 1c1-.3.3-1.6 2.2-1.5.5 1.8 2.7 1 4.3-.2 1.7-1.2 2.9-2.8 4.6-1.6-.7.8.1.4.8.3.4 0 .7 0 .8.3 0 .3 0 1-.9 2.2a9.3 9.3 0 0 0 3.5-5.5l.1-1.2c0-.5-.3-.9-.8-.9-1.5-1-2.4-3.6-4.8-.8l1 1-1.2.4h-.8c-1 1.5-2.1 1.8-3.1 1.9-1 0-2-.2-3-.1l.1.1c-.3 1-1.1 1.5-2 1.5-.8 0-1.6-.3-2.1-.4l-.4-.8c0-.4-.3-.5-.6-.4h-.3a6.5 6.5 0 0 0-1.3.4c-1.1.3-2 .5-.9-.5-9-2-19.1-5.1-29-8.1-1.7.6-7.6-2.4-6 .2-1.8-3-9-5.7-11.8-6.4.2-.2.4-.4.8-.2-4.5-4.3-7 .7-11-4.2-1.5 2.2-8.8-3.4-12.5-1.5-.4-.7-.5-1.2-.1-1.6-9-2.7-18.6-6.6-26-9-7.2.2-15.5-5.6-21.9-4.4-4.4-2-11.5-5.5-18.3-6.2l.8-.2c-7.3-2-16.4-4.6-22-4.3-1.3-3.4-4.6-3.8-7.4-5.6-5.3-.2-15-3.5-22.7-4.6-.7-1.6-6.2-1.3-6-3.2a191.5 191.5 0 0 1-43.1-11l-4.4-1.5-1-.4-.6-.2h-.1v-.1c.1 0 0 0 0 0l-.3-.1-.6-.3a7.3 7.3 0 0 1-3.6-4.8c-.4-1.8 0-3.4.7-4.6l.1.2-.2-1.1a27.3 27.3 0 0 0-.7-4c-.3-1.8-.8-3.6-1-5.2.3-.3.6-.2.4.5.8-4.2 3.8-7.4 4.7-11.6.3.2.3.2.4 1 .3-4.1 3.8-7.5 3.7-12.4h.6l.1-3.1c.6.2 1.5.6.9 2 11-34.4 18.6-71.1 29.8-106.6l.2 1.5 1-7.2c.3.1.4.5.4.9 3.7-8.5 4.7-18.2 7.5-26.6.3 0 .5 1.6 1.2.5.3-6.9 5.3-9.6 2.8-13.8.2-.2 1-.2 1.1.5 4.2-18 9.7-36 15.6-53.7l.8-5.9.6-2.6c.2-.8.6-1.6 1-2.3a10.3 10.3 0 0 1 11.4-4.3l.6.1.7.3 1.5.4 6 1.7c4 1 8 2 12 2.5l-.3.6c20.6 3.8 41 12.5 61.8 18.3 8.5 2.8 14.5 3.8 23.1 6.3v.9c15.4 1.4 29.7 11.8 45.7 13.1l-1.3.8c2.8-1 9 3.3 9 .2l2.3 1.7c11.4-.7 18.2 7.3 31.5 8.7l-1 .4c3.5.5 7.5 1.3 9.8 2.6-.4 0-.3.3-1.1.2 9.7 5.8 22.2 6.4 33.2 9.8l-1.6.9a43 43 0 0 1 10.7 2.5l3 1c.9.3 1.7.7 2.5 1.2 1.6 1 3 2.4 4 3.7h-.8c.9.8 1.7 1.7 2.3 2.7l-1.2.5c.6 2 .7 4 .3 6l-1.6 6.7c-1.1 4.4-2.1 9-3.4 13.4ZM586 203.3l.1-.1c0-.3 0-.2 0 0ZM535.3 339h.7c-.1-.2-.5 0-.7 0Zm83.5-247.7a13 13 0 0 0-8.7-16.2L365.6 1.6a13 13 0 0 0-16.2 8.7l-73.6 244.4a13 13 0 0 0 8.7 16.3l244.4 73.6a13 13 0 0 0 16.3-8.8l73.6-244.4ZM309 195.1c0-6.7-.6-8-4-10.7h22.2c11.3 0 33.5 2 33.5 28.8 0 20.2-15.6 27.5-26.9 27.5h-28.8c2.2-1.7 4-4 4-8v-37.6Zm21.4 37.1c8.7 0 13.4-7.3 13.4-19.7V211c0-12.4-6.4-17.3-13.6-17.3-1.7 0-3.5.4-5.2.7v37c1.9.5 3.9.8 5.4.8Zm52.1-32.3h1.1c15.4 0 20.2 10 20.2 20.9h-26.3c0 4.1 3.1 12.4 12.7 12.4 3.6 0 8.5-1.3 14.3-4.5l-3.5 9.4c-4 3.3-10 3.3-14 3.3-12.2 0-24.2-4-24.8-20.6 0-5.4 2.6-20.9 20.3-20.9Zm6.4 13.3c0-1.3-.6-2.6-1.9-3.3-1.3-1.3-2.7-2-4-2-2.9 0-5.5 2-5.5 5.3H389Zm32 21.2c2.1 0 4.3-.7 5.3-1.6.5-.7.6-1.4.6-1.9 0-5.2-20.1-5.6-20.1-18.4 0-9.2 9.4-12.6 18-12.6 2.1 0 8.8 0 14.1 2v8.7a29.4 29.4 0 0 0-11.3-3.2c-2 0-3.7.5-4.1 1.9l-.4 1.1c0 5.3 20.5 3 20.5 17 0 11.2-10.3 14.3-20.3 14.3-6 0-12.2-1.2-15.9-2.3l-1.3-10c3.5 2.7 10 5 14.8 5Zm28-25.1c0-4.7-.8-5.4-2.7-7.4h10.6c2.7 0 5.4 0 6.7-1.4v32.3c0 4 2.8 6.6 4.8 8H445c2.7-1.4 4-4.8 4-8v-23.5Zm6.5-26.3c5.9 0 8.9 4.5 8.9 8.7 0 4-2.7 8-8.2 8.2-5.3 0-8.6-3.5-8.6-8.8 0-4 2.6-8 8-8Zm23.2 58.4c2 0 4.5.6 6 1.3-2 1.5-3 3-3 4.2 0 2.5 4.1 4.3 8.3 4.3 3.6 0 7.7-1.3 8.3-4.5l.2-1.8c0-3.3-3.2-5.9-9.2-5.9-1.5 0-3.3 0-5.2.4l-1 .2c-2.7 0-5.1-3.2-6.3-6.2l-.3-1.3c0-2 2.6-3 4.3-4-6-2-9.3-6.7-9.3-12.2 1-11.3 8.5-14.7 18.3-14.7 2.8 0 6 .4 9.2.7l16.1-.7-4.1 8h-4c2.7 2 3.3 4.7 3.3 7.4v.6c0 14.7-22.4 11.7-22.8 14.2l-.2.3c0 .7 1.4 1.2 3.2 1.2l8.1-.1c7.5 0 16.4 1.6 16.5 11.9v.7c0 10-13.1 13.3-22.1 13.3h-2.3c-6.5 0-20.7-.7-21.2-9.3 0-5.5 4.5-8 9.2-8Zm11.5-18.7c2.8 0 5.4-2.7 5.4-6.8v-.7c0-4-2.8-6.1-5.3-6.1-2.4 0-4.8 1.8-4.8 6 0 5.7 2.6 7.6 4.7 7.6Zm30.4-14.8c0-4-2-4-4-6H528c3.2 0 6 0 7.9-1.4v2.8c2.4-.7 6.9-1.5 11.2-1.5 7 0 14.5 2 14.5 10.1v19.5c0 3.3 0 6.7 3.3 9.3H542c2-1.3 4-4.7 4-8.6v-17c0-4.5-2.9-6.7-5.3-6.7s-5 2-5 5.5l.1.7v18.2c0 4 1.3 5.9 3.5 8h-22.8c2.7-2.1 4-6 4-9.4v-23.5Z" fill="#94070A"/><path d="M16.7 182.9c19-35.2 34.8-52.9 47.1-52.9 3.3 0 6 2 8 5.7 2.1 3.7 3.8 12 5 24.9a60.5 60.5 0 0 0 8.7 29.7c2.3 3.1 3.5 5.4 3.5 7 0 1.2-.8 2.5-2.3 3.6a8.2 8.2 0 0 1-5 1.7c-4 0-7.5-2.3-10.5-6.7-3.1-4.5-5.1-12.4-6-23.7a130 130 0 0 0-2.7-21c-1-3.2-2.6-4.8-4.9-4.8-5.4 0-16.2 14-32.5 42.2A118 118 0 0 1 14.3 205C12 207.7 10 209 8 209c-2.3 0-4.2-.7-5.7-2a6.3 6.3 0 0 1-2.3-5c0-1.4.4-4.2 1.2-8.3 6.3-32.5 11.3-64.7 15-96.6.8-7.4 2.1-12.4 4-14.8 1.7-2.5 3.3-3.7 4.5-3.7 2.2 0 4.2.9 6 2.7a10 10 0 0 1 2.7 7.4 154 154 0 0 1-7 38.9A453 453 0 0 0 15.6 182c0 .6.3.9.9.9h.3ZM117.7 146h1.8c12.6 0 28 10 28 27.5v1.4c0 14-10.3 28.7-30.8 28.7C96 203.6 87 188.8 87 175c0-10.8 7.8-29 30.8-29Zm0 49.4c12.5 0 18-9.9 18-19.6 0-10.4-6.4-21.6-17.4-21.6h-.6c-5.8 0-18.8 3-18.8 19.8 1 13 7.4 21.4 18.8 21.4ZM179 146h1.8c12.6 0 28 10 28 27.5v1.4c0 14-10.3 28.7-30.7 28.7-20.7 0-29.9-14.8-29.9-28.7 0-10.8 7.9-29 30.8-29Zm0 49.4c12.6 0 18-9.9 18-19.6 0-10.4-6.3-21.6-17.3-21.6h-.7c-5.8 0-18.7 3-18.7 19.8.9 13 7.3 21.4 18.7 21.4ZM240.9 146h34.4c-1 7-3.1 10.2-8.2 10.2-2.4 0-5.7-1-9.6-2 3.7 3 7.5 7.5 7.5 13.1 0 23.6-30.2 16-30.2 23l.2.4c0 3.8 36.7-3.7 38.5 18.6 0 7.4-4.6 21.3-33.6 21.3-15 0-31.8-5.6-32.7-17.7 0-7.2 6.5-10 11.5-10 3.3 0 6.2 1.3 6.2 2.7-2.1.1-4.1 3-4.1 5.8 0 4.6 4.7 10.8 19.1 10.8 14 0 21.3-4.5 21.3-12 0-8.7-12-10.5-23-10.5-3 0-6.3.3-8.7.3l-1 .2c-3.9 0-8.4-4.2-8.4-8.1 0-2.8 2.7-6 8.4-7a20.6 20.6 0 0 1-14.8-19.7c0-9.2 9.2-19.4 27.2-19.4Zm0 33.8c4.5 0 8.5-3 10.2-6.7.6-1.7.9-3.8.9-5.6 0-5.3-3.3-11.3-12-13.3-9.9 0-13.8 5.4-13.8 11 0 3.4 1.8 7.1 4.2 9.7a17 17 0 0 0 10.6 4.9Z" fill="#000"/></g></svg>