<?xml version="1.0" encoding="utf-8"?>
<!-- Generator: Adobe Illustrator 24.0.3, SVG Export Plug-In . SVG Version: 6.00 Build 0)  -->
<svg version="1.1" id="Layer_1" xmlns="http://www.w3.org/2000/svg" xmlns:xlink="http://www.w3.org/1999/xlink" x="0px" y="0px"
	 viewBox="0 0 1440 608" style="enable-background:new 0 0 1440 608;" xml:space="preserve">
<style type="text/css">
	.st0{filter:url(#Adobe_OpacityMaskFilter);}
	.st1{fill-rule:evenodd;clip-rule:evenodd;fill:#FFFFFF;}
	.st2{opacity:0.55;mask:url(#b_1_);}
	.st3{fill:#447FD9;}
	.st4{fill:none;}
	.st5{fill:#FFFFFF;}
	.st6{fill:url(#SVGID_1_);}
	.st7{filter:url(#Adobe_OpacityMaskFilter_1_);}
	.st8{opacity:0.55;mask:url(#b_2_);}
	.st9{fill:#0C227D;}
	.st10{fill:#D3F0F7;}
	.st11{filter:url(#Adobe_OpacityMaskFilter_2_);}
	.st12{opacity:0.55;mask:url(#b_3_);}
	.st13{fill:#30353E;}
	.st14{fill:#E24329;}
	.st15{fill:#FCA326;}
	.st16{fill:#FC6D26;}
	.st17{filter:url(#Adobe_OpacityMaskFilter_3_);}
	.st18{opacity:0.55;mask:url(#b_4_);}
	.st19{fill:#FFE01B;}
	.st20{fill-rule:evenodd;clip-rule:evenodd;}
	.st21{filter:url(#Adobe_OpacityMaskFilter_4_);}
	.st22{mask:url(#e_1_);fill-rule:evenodd;clip-rule:evenodd;}
	.st23{filter:url(#Adobe_OpacityMaskFilter_5_);}
	.st24{opacity:0.55;mask:url(#b_5_);}
	.st25{fill:#0079BF;}
	.st26{filter:url(#Adobe_OpacityMaskFilter_6_);}
	.st27{opacity:0.55;mask:url(#b_6_);}
	.st28{fill:#FE5410;}
	.st29{filter:url(#Adobe_OpacityMaskFilter_7_);}
	.st30{opacity:0.55;mask:url(#b_7_);}
	.st31{fill:#0066DA;}
	.st32{fill:#00AC47;}
	.st33{fill:#EA4335;}
	.st34{fill:#00832D;}
	.st35{fill:#2684FC;}
	.st36{fill:#FFBA00;}
	.st37{filter:url(#Adobe_OpacityMaskFilter_8_);}
	.st38{opacity:0.55;mask:url(#b_8_);}
	.st39{fill:#2684FF;}
	.st40{fill:url(#SVGID_2_);}
	.st41{fill:url(#SVGID_3_);}
</style>
<g>
	<defs>
		<filter id="Adobe_OpacityMaskFilter" filterUnits="userSpaceOnUse" x="1066" y="73" width="144" height="144">
			<feColorMatrix  type="matrix" values="1 0 0 0 0  0 1 0 0 0  0 0 1 0 0  0 0 0 1 0"/>
		</filter>
	</defs>
	<mask maskUnits="userSpaceOnUse" x="1066" y="73" width="144" height="144" id="b_1_">
		<g class="st0">
			<path id="a_1_" class="st1" d="M0,0h1440v608H0V0z"/>
		</g>
	</mask>
	<g class="st2">
		<g transform="translate(1066 73)">
			<circle class="st3" cx="72" cy="72" r="72"/>
			<path class="st4" d="M63.6,85h17.2L85,61H59L63.6,85z"/>
			<path class="st5" d="M33.7,36c-0.8,0-1.5,0.3-2,0.9c-0.5,0.6-0.7,1.4-0.6,2.1l11.1,67c0.3,1.7,1.8,2.9,3.5,2.9h53.5
				c1.3,0,2.4-0.9,2.6-2.2L113,39c0.1-0.8-0.1-1.5-0.6-2.1c-0.5-0.6-1.3-0.9-2-0.9L33.7,36z M80.6,84.4H63.5l-4.6-23.9h25.8
				L80.6,84.4z"/>
			
				<linearGradient id="SVGID_1_" gradientUnits="userSpaceOnUse" x1="-552.9041" y1="322.1305" x2="-553.4101" y2="321.8488" gradientTransform="matrix(66 0 0 -48.0003 36599 15541.0996)">
				<stop  offset="0" style="stop-color:#8EB2E8"/>
				<stop  offset="0.9995" style="stop-color:#FFFFFF"/>
			</linearGradient>
			<path class="st6" d="M109,61H84.4l-4.1,23.7H63.2L43,108.2c0.6,0.5,1.5,0.8,2.3,0.8h53.5c1.3,0,2.4-0.9,2.6-2.2L109,61z"/>
		</g>
	</g>
	<defs>
		<filter id="Adobe_OpacityMaskFilter_1_" filterUnits="userSpaceOnUse" x="985" y="366" width="144" height="144">
			<feColorMatrix  type="matrix" values="1 0 0 0 0  0 1 0 0 0  0 0 1 0 0  0 0 0 1 0"/>
		</filter>
	</defs>
	<mask maskUnits="userSpaceOnUse" x="985" y="366" width="144" height="144" id="b_2_">
		<g class="st7">
			<path id="a_2_" class="st1" d="M0,0h1440v608H0V0z"/>
		</g>
	</mask>
	<g class="st8">
		<g transform="translate(985 366)">
			<circle class="st9" cx="72" cy="72" r="72"/>
			<path class="st10" d="M54.3,32L29,48.1L46.7,62L72,46.5L54.3,32z M29,75.6L54.3,92L72,77.4L46.7,62L29,75.6z M72,77.4L89.8,92
				L115,75.8L97.6,62L72,77.4z M115,48.1L89.8,32L72,46.5L97.6,62C97.6,62,115,48.1,115,48.1z M72.5,82l-18,14.5l-7.5-5v5.6
				L72.5,112L98,97.1v-5.6l-7.8,5L72.5,82z"/>
		</g>
	</g>
	<defs>
		<filter id="Adobe_OpacityMaskFilter_2_" filterUnits="userSpaceOnUse" x="180" y="178" width="144" height="144">
			<feColorMatrix  type="matrix" values="1 0 0 0 0  0 1 0 0 0  0 0 1 0 0  0 0 0 1 0"/>
		</filter>
	</defs>
	<mask maskUnits="userSpaceOnUse" x="180" y="178" width="144" height="144" id="b_3_">
		<g class="st11">
			<path id="a_3_" class="st1" d="M0,0h1440v608H0V0z"/>
		</g>
	</mask>
	<g class="st12">
		<g transform="translate(180 178)">
			<circle class="st13" cx="72" cy="72" r="72"/>
			<g>
				<path class="st14" d="M71.5,119.8l19.3-59.5H52.2L71.5,119.8z"/>
				<path class="st15" d="M25.3,60.4l-5.9,18.1c-0.5,1.6,0,3.5,1.5,4.5l50.6,36.9L25.3,60.4L25.3,60.4z"/>
				<path class="st14" d="M25.3,60.4h27L40.6,24.5c-0.6-1.8-3.2-1.8-3.8,0L25.3,60.4z"/>
				<path class="st15" d="M117.7,60.4l5.8,18.1c0.5,1.6,0,3.5-1.4,4.5l-50.7,36.9C71.5,119.9,117.7,60.4,117.7,60.4z"/>
				<path class="st14" d="M117.7,60.4h-27l11.6-35.8c0.6-1.8,3.2-1.8,3.8,0L117.7,60.4L117.7,60.4z"/>
				<path class="st16" d="M71.5,119.8l19.3-59.5h27L71.5,119.8z M71.5,119.8L25.3,60.4h27L71.5,119.8z"/>
			</g>
		</g>
	</g>
	<defs>
		<filter id="Adobe_OpacityMaskFilter_3_" filterUnits="userSpaceOnUse" x="0" y="41" width="144" height="144">
			<feColorMatrix  type="matrix" values="1 0 0 0 0  0 1 0 0 0  0 0 1 0 0  0 0 0 1 0"/>
		</filter>
	</defs>
	<mask maskUnits="userSpaceOnUse" x="0" y="41" width="144" height="144" id="b_4_">
		<g class="st17">
			<path id="a_4_" class="st1" d="M0,0h1440v608H0V0z"/>
		</g>
	</mask>
	<g class="st18">
		<g transform="translate(0 41)">
			<circle class="st19" cx="72" cy="72" r="72"/>
			<path class="st20" d="M97.6,69c0.7-0.1,1.4-0.1,2.1,0c0.4-0.9,0.4-2.5,0.1-4.2c-0.5-2.5-1.2-4-2.6-3.8c-1.4,0.2-1.4,2.1-0.9,4.6
				C96.5,66.8,96.9,68,97.6,69 M85,71.4c1,0.5,1.6,0.8,1.9,0.5c0.2-0.2,0.1-0.5-0.1-0.9c-0.6-1-1.5-1.8-2.6-2.3
				c-2.3-1.1-5-0.7-6.9,0.9c-0.7,0.6-1.3,1.3-1.2,1.8c0,0.2,0.1,0.3,0.4,0.3c0.6,0.1,2.5-1,4.8-1.2C82.5,70.4,83.8,70.7,85,71.4
				 M82.3,72c-1.4,0.3-2.1,0.8-2.6,1.3c-0.4,0.4-0.7,0.9-0.7,1.3c0,0.2,0.1,0.2,0.1,0.3c0.1,0.1,0.1,0.1,0.2,0.1c0.3,0,1-0.3,1-0.3
				c1.4-0.6,2.9-0.8,4.4-0.6c0.7,0.1,1,0.1,1.2-0.1c0.1-0.1,0.1-0.3,0-0.5C85.6,72.8,84.2,71.8,82.3,72 M93.3,76.7
				c1,0.5,2.2,0.3,2.6-0.4s-0.2-1.6-1.2-2.1c-1.1-0.5-2.2-0.3-2.6,0.4C91.8,75.3,92.3,76.3,93.3,76.7 M99.5,72c-0.8,0-1.5,0.9-1.5,2
				c0,1.1,0.6,2,1.5,2c0.8,0,1.5-0.9,1.5-2C101,72.9,100.4,72,99.5,72 M47.9,91.3c-0.2-0.2-0.5-0.2-0.8-0.1
				c-0.2,0.1-0.5,0.1-0.8,0.1c-0.6,0-1.1-0.2-1.4-0.7c-0.4-0.5-0.3-1.3,0.1-2.3l0.2-0.4c0.6-1.4,1.7-3.7,0.5-5.9
				c-1.4-2.7-4.7-3.8-7.4-2.3c-0.5,0.3-1,0.6-1.4,1c-1.8,1.9-2.1,4.5-1.7,5.4c0.1,0.3,0.3,0.4,0.5,0.4c0.3,0,0.8-0.2,1-0.9l0.1-0.2
				c0.2-0.6,0.4-1.1,0.7-1.7c0.5-0.7,1.2-1.2,2-1.3c0.8-0.2,1.7,0,2.5,0.4c1.2,0.8,1.8,2.3,1.2,3.7c-0.4,1-0.6,2.1-0.6,3.2
				c0.2,2.3,1.7,3.2,3,3.3c1.3,0,2.2-0.7,2.4-1.2C48.1,91.5,48,91.4,47.9,91.3"/>
			<g transform="translate(21 18)">
				<defs>
					<filter id="Adobe_OpacityMaskFilter_4_" filterUnits="userSpaceOnUse" x="0" y="0.2" width="101.8" height="107.8">
						<feColorMatrix  type="matrix" values="1 0 0 0 0  0 1 0 0 0  0 0 1 0 0  0 0 0 1 0"/>
					</filter>
				</defs>
				<mask maskUnits="userSpaceOnUse" x="0" y="0.2" width="101.8" height="107.8" id="e_1_">
					<g class="st21">
						<path id="d_1_" class="st1" d="M0,0.2h101.8V108H0V0.2z"/>
					</g>
				</mask>
				<path class="st22" d="M38.2,30.4c4-4.6,9-8.7,13.5-11c0.2-0.1,0.3,0.1,0.2,0.2c-0.3,0.6-1,2-1.2,3c0,0.2,0.2,0.3,0.3,0.2
					c2.8-1.9,7.6-3.9,11.8-4.2c0.2,0,0.3,0.2,0.1,0.3c-0.6,0.5-1.3,1.2-1.8,1.9c-0.1,0.1,0,0.3,0.1,0.3c3,0,7.1,1.1,9.9,2.6
					c0.2,0.1,0.1,0.5-0.2,0.4c-5.9-1.3-12-1.3-17.9,0.1c-6.3,1.5-11,3.9-14.5,6.4C38.3,30.8,38.1,30.6,38.2,30.4 M75,77.5
					c0.1-0.1,0.2-0.2,0.2-0.3c0-0.2-0.2-0.3-0.3-0.3c0,0,0,0,0,0c0,0-8.6,1.3-16.8-1.7c0.9-2.9,3.2-1.8,6.8-1.6
					c6.4,0.4,12.2-0.6,16.4-1.8c4.4-1.3,8.6-3.3,12.3-6.1c0.8,1.9,1.4,3.8,1.7,5.8c0,0,1-0.2,1.8,0.3c0.8,0.5,1.3,1.5,1,4
					c-0.7,4.6-2.9,8.9-6.2,12.2c-2.1,2.3-4.7,4.2-7.5,5.6c-1.6,0.8-3.2,1.5-4.9,2.1c-12.9,4.2-26.1-0.4-30.3-10.3
					c-0.3-0.7-0.6-1.5-0.9-2.3c-1.8-6.5-0.3-14.4,4.5-19.3c0.3-0.3,0.6-0.7,0.6-1.2c0-0.4-0.2-0.8-0.5-1.1
					c-1.7-2.4-7.5-6.6-6.3-14.6c0.8-5.8,5.9-9.8,10.6-9.6l1.2,0.1c2,0.1,3.8,0.4,5.5,0.5c2.8,0.1,5.4-0.3,8.4-2.8
					c1-0.8,1.8-1.6,3.2-1.8c0.1,0,0.5-0.2,1.2-0.1c0.7,0,1.4,0.2,2.1,0.7c2.4,1.6,2.8,5.5,2.9,8.3c0.1,1.6,0.3,5.5,0.3,6.6
					c0.2,2.6,0.8,2.9,2.2,3.4c0.8,0.2,1.5,0.4,2.5,0.7c3.2,0.9,5.1,1.8,6.3,3c0.7,0.7,1,1.5,1.1,2.2c0.4,2.7-2.1,6.1-8.7,9.2
					c-7.2,3.4-16,4.2-22.1,3.5L61,70.5c-4.8-0.7-7.6,5.6-4.7,9.9c1.9,2.8,7,4.6,12.1,4.6c11.7,0,20.7-5,24.1-9.3l0.3-0.4
					c0.2-0.2,0-0.4-0.2-0.2c-2.7,1.9-14.9,9.3-27.9,7.1c0,0-1.6-0.3-3-0.8c-1.1-0.4-3.5-1.6-3.8-4C68.3,80.5,75,77.5,75,77.5
					 M17.3,52.6c-3.6,0.7-6.7,2.7-8.8,5.6c-1.2-1-3.4-2.9-3.8-3.6c-3.2-6,3.4-17.5,8-24.1C24,14.4,41.8,2.1,50,4.3
					c1.3,0.4,5.8,5.5,5.8,5.5S47.6,14.4,40,20.7C29.7,28.6,21.9,40.1,17.3,52.6 M23.4,79.9C22.8,80,22.3,80,21.7,80
					c-5.5-0.2-11.4-5.1-12-10.9c-0.7-6.5,2.7-11.5,8.5-12.6c0.7-0.2,1.5-0.2,2.5-0.2c3.3,0.2,8.1,2.7,9.2,9.9
					C30.9,72.4,29.3,78.9,23.4,79.9 M97.9,68.4c0-0.2-0.3-1.3-0.8-2.6s-0.9-2.3-0.9-2.3c1.3-1.7,1.8-3.9,1.5-6.1
					c-0.3-1.7-1-3.2-2.2-4.3c-1.3-1.4-4.1-2.8-7.9-3.9l-2-0.5c0-0.1-0.1-4.7-0.2-6.7c0-2-0.3-4-0.9-5.9c-0.8-3-2.3-5.6-4.1-7.3
					c5-5.2,8.1-10.9,8.1-15.8c0-9.4-11.6-12.3-25.9-6.4l-3,1.3c0,0-5.5-5.3-5.6-5.4c-16.3-14.2-67.2,42.3-50.9,56l3.6,3
					c-1,2.6-1.3,5.3-1,8.1c0.5,4,2.5,7.6,5.5,10.2c3,2.7,7,4.3,10.8,4.3c6.3,14.6,20.8,23.5,37.8,24c18.2,0.5,33.5-8,39.9-23.3
					c0.4-1.1,2.2-5.9,2.2-10.2C101.8,70.2,99.4,68.4,97.9,68.4"/>
			</g>
		</g>
	</g>
	<defs>
		<filter id="Adobe_OpacityMaskFilter_5_" filterUnits="userSpaceOnUse" x="18" y="336" width="144" height="144">
			<feColorMatrix  type="matrix" values="1 0 0 0 0  0 1 0 0 0  0 0 1 0 0  0 0 0 1 0"/>
		</filter>
	</defs>
	<mask maskUnits="userSpaceOnUse" x="18" y="336" width="144" height="144" id="b_5_">
		<g class="st23">
			<path id="a_5_" class="st1" d="M0,0h1440v608H0V0z"/>
		</g>
	</mask>
	<g class="st24">
		<g transform="translate(18 336)">
			<circle class="st25" cx="72" cy="72" r="72"/>
			<g>
				<path class="st1" d="M63,109.2c0,1.6-0.6,3.1-1.7,4.2c-1.1,1.1-2.5,1.7-4,1.7H33.6c-3.2-0.1-5.7-2.7-5.6-5.8V35.8
					c0-3.2,2.5-5.8,5.6-5.9h23.7c3.2,0.1,5.7,2.7,5.6,5.9L63,109.2z M116,75.2c0,1.6-0.6,3-1.8,4.1c-1.1,1.1-2.7,1.7-4.2,1.7h-25
					c-3.2,0-5.9-2.6-5.9-5.8V35.8c0.1-3.2,2.7-5.8,5.9-5.8h25c3.2,0,5.9,2.6,5.9,5.8C115.9,35.8,116,75.2,116,75.2z"/>
			</g>
		</g>
	</g>
	<defs>
		<filter id="Adobe_OpacityMaskFilter_6_" filterUnits="userSpaceOnUse" x="1296" y="-67" width="144" height="144">
			<feColorMatrix  type="matrix" values="1 0 0 0 0  0 1 0 0 0  0 0 1 0 0  0 0 0 1 0"/>
		</filter>
	</defs>
	<mask maskUnits="userSpaceOnUse" x="1296" y="-67" width="144" height="144" id="b_6_">
		<g class="st26">
			<path id="a_6_" class="st1" d="M0,0h1440v608H0V0z"/>
		</g>
	</mask>
	<g class="st27">
		<g transform="translate(1296 -67)">
			<circle class="st28" cx="72" cy="72" r="72"/>
			<path class="st5" d="M115.2,64.7h-26l18.3-18.3c-1.4-2.1-2.8-3.5-4.2-5.7c-2-1.5-3.9-3.1-5.6-4.9L79.4,54.2V28.8
				c-2.3-0.6-4.7-0.8-7-0.7c-2.4-0.2-4.7,0.1-7,0.7v26.1l-19-19c-2.2,1.3-4.1,2.9-5.6,4.9c-1.4,2.1-3.5,3.5-4.9,5.7l18.3,18.3H28.8
				L28,71.8c-0.2,2.4,0.1,4.8,0.7,7.1h26l-19,19c2.8,4.2,6.4,7.8,10.5,10.6l18.3-18.3v26.1c2.3,0.6,4.7,0.8,7,0.7
				c2.4,0.2,4.7-0.1,7-0.7V90.2L97,108.5c2.2-1.3,4.1-2.9,5.6-4.9c1.8-1.7,3.5-3.6,4.9-5.7L89.2,79.5h26c0.6-2.3,0.8-4.7,0.7-7.1
				C116.1,69.9,115.9,67.3,115.2,64.7L115.2,64.7z M82.9,71.8c-0.1,3.1-0.6,6.2-1.4,9.2c-2.9,1.1-6,1.6-9.2,1.4
				c-3.1-0.1-6.2-0.5-9.2-1.4c-1.1-2.9-1.6-6.1-1.4-9.2c0.1-3.1,0.5-6.2,1.4-9.2c2.9-1.1,6-1.6,9.2-1.4c3.1,0.1,6.2,0.5,9.1,1.4
				C82.3,65.6,82.8,68.7,82.9,71.8L82.9,71.8z"/>
		</g>
	</g>
	<defs>
		<filter id="Adobe_OpacityMaskFilter_7_" filterUnits="userSpaceOnUse" x="1244" y="217" width="144" height="144">
			<feColorMatrix  type="matrix" values="1 0 0 0 0  0 1 0 0 0  0 0 1 0 0  0 0 0 1 0"/>
		</filter>
	</defs>
	<mask maskUnits="userSpaceOnUse" x="1244" y="217" width="144" height="144" id="b_7_">
		<g class="st29">
			<path id="a_7_" class="st1" d="M0,0h1440v608H0V0z"/>
		</g>
	</mask>
	<g class="st30">
		<g transform="translate(1244 217)">
			<circle class="st5" cx="72" cy="72" r="72"/>
			<path class="st31" d="M34.6,99.8l3.8,6.7c0.8,1.4,2,2.5,3.3,3.3L55.5,86H28c0,1.6,0.4,3.1,1.2,4.5C29.2,90.5,34.6,99.8,34.6,99.8
				z"/>
			<path class="st32" d="M71.7,58L57.9,34.2c-1.3,0.8-2.5,1.9-3.3,3.3l-25.4,44C28.4,82.9,28,84.4,28,86h27.5L71.7,58z"/>
			<path class="st33" d="M101.6,109.8c1.3-0.8,2.5-1.9,3.3-3.3l1.6-2.8l7.7-13.2c0.8-1.4,1.2-2.9,1.2-4.5H87.8l5.8,11.5L101.6,109.8
				z"/>
			<path class="st34" d="M71.7,58l13.8-23.8C84,33.4,82.5,33,80.9,33H62.4c-1.6,0-3.2,0.5-4.5,1.2L71.7,58z"/>
			<path class="st35" d="M87.8,86H55.5l-13.8,23.8c1.4,0.8,2.9,1.2,4.5,1.2h50.8c1.6,0,3.2-0.4,4.5-1.2L87.8,86z"/>
			<path class="st36" d="M101.4,59.5l-12.7-22c-0.8-1.4-1.9-2.5-3.3-3.3L71.7,58l16.2,28h27.4c0-1.6-0.4-3.1-1.2-4.5L101.4,59.5z"/>
		</g>
	</g>
	<defs>
		<filter id="Adobe_OpacityMaskFilter_8_" filterUnits="userSpaceOnUse" x="258" y="464" width="144" height="144">
			<feColorMatrix  type="matrix" values="1 0 0 0 0  0 1 0 0 0  0 0 1 0 0  0 0 0 1 0"/>
		</filter>
	</defs>
	<mask maskUnits="userSpaceOnUse" x="258" y="464" width="144" height="144" id="b_8_">
		<g class="st37">
			<path id="a_8_" class="st1" d="M0,0h1440v608H0V0z"/>
		</g>
	</mask>
	<g class="st38">
		<g transform="translate(258 464)">
			<circle class="st5" cx="72" cy="72" r="72"/>
			<path class="st39" d="M114,69.7L75.2,31l-3.8-3.8L42.4,56.4L29,69.7c-1.4,1.4-1.4,3.6,0,5l26.6,26.6l15.8,15.8l29.1-29.2l0.5-0.4
				L114,74.8C115.3,73.4,115.3,71.1,114,69.7L114,69.7z M71.5,85.2L58,71.7l13.5-13.5L85,71.7L71.5,85.2z"/>
			
				<linearGradient id="SVGID_2_" gradientUnits="userSpaceOnUse" x1="245.3526" y1="-68.6032" x2="245.0699" y2="-69.0165" gradientTransform="matrix(30 0 0 -45 -7298 -3042)">
				<stop  offset="0.18" style="stop-color:#0052CC"/>
				<stop  offset="1" style="stop-color:#2684FF"/>
			</linearGradient>
			<path class="st40" d="M72,58.6c-8.8-8.4-9-22.4-0.6-31.1c0.2-0.2,0.3-0.3,0.5-0.5L42,56.1L58.3,72L72,58.6z"/>
			
				<linearGradient id="SVGID_3_" gradientUnits="userSpaceOnUse" x1="244.3974" y1="-68.7917" x2="244.6613" y2="-68.3799" gradientTransform="matrix(29 0 0 -45 -7006 -2997)">
				<stop  offset="0.18" style="stop-color:#0052CC"/>
				<stop  offset="1" style="stop-color:#2684FF"/>
			</linearGradient>
			<path class="st41" d="M85.2,72L72,85.3c8.7,8.8,8.7,22.9,0,31.7l29-29.2L85.2,72z"/>
		</g>
	</g>
</g>
</svg>
