<svg version="1.1" id="Layer_1" xmlns="http://www.w3.org/2000/svg" x="0" y="0" viewBox="0 0 273 191" style="enable-background:new 0 0 273 191" xml:space="preserve"><style>.st0{fill:#fff}</style><path class="st0" d="M175.4 83.6c-1-1.5-2.5-2.2-4.5-2.2-2.1 0-3.6.7-4.5 2.2-1 1.5-1.5 3.6-1.5 6.3 0 2.7.5 4.8 1.5 6.3s2.5 2.2 4.5 2.2c2.1 0 3.6-.7 4.5-2.2 1-1.5 1.5-3.6 1.5-6.3 0-2.7-.5-4.8-1.5-6.3zM107.5 81.3c-2.1 0-3.5.8-4.5 2.3-.6 1-1.1 2.2-1.3 3.7h11.2c-.1-1.5-.4-2.7-1-3.7-1-1.5-2.4-2.3-4.4-2.3zM76.5 90.8c-1.4-.2-2.8-.3-4.3-.4-3.2 0-4.6 1.1-4.6 1.1-1 .7-1.4 1.7-1.4 3.1 0 .9.2 1.6.5 2 .2.3.3.4.9.9 0 0 1.4 1.1 4.6.9 2.3-.1 4.3-.6 4.3-.6v-7zM233.8 81.3c-2.1 0-3.5.8-4.5 2.3-.6 1-1.1 2.2-1.3 3.7h11.2c-.1-1.5-.4-2.7-1-3.7-1-1.5-2.4-2.3-4.4-2.3z"/><path class="st0" d="M213.2 26.3c-8.2 0-16.2 1.7-23.7 5.1-8.4-14.9-24-24.9-42-24.9-13.5 0-25.7 5.7-34.5 14.8v.1A52.52 52.52 0 0 0 71 .6C41.8.6 18.1 24.2 18.1 53.4c0 7.2 1.5 14.4 4.3 21C8.8 82.4-.3 97.2-.3 114.2c0 25.3 20.3 45.9 45.4 45.9 3.1 0 6.3-.3 9.3-1a48.89 48.89 0 0 0 90.9 2.2c5.9 2.9 12.3 4.3 18.8 4.3 16 0 30-8.9 37.4-22 3.8.8 7.6 1.2 11.6 1.2 32.4 0 58.7-26.5 58.7-59.2s-26.2-59.3-58.6-59.3zM58.3 95c0 4.8-3.5 7.8-9 7.8-2.7 0-5.4-.4-8.1-1.9l-1.5-.9c-.1-.1-.3-.2-.1-.6l1.1-3.1c.2-.5.6-.3.7-.3.3.2.5.4.9.6 3.2 2.1 6.2 2.1 7.2 2.1 2.4 0 3.9-1.3 3.9-3v-.1c0-1.9-2.3-2.6-5-3.4l-.6-.2c-3.7-1-7.6-2.6-7.6-7.2v-.1c0-4.4 3.6-7.5 8.7-7.5h.6c3 0 5.9.9 8 2.2.2.1.4.3.3.6l-1.1 3.1c-.2.5-.7.2-.7.2-1.8-1-4.7-1.8-7.1-1.8-2.2 0-3.6 1.1-3.6 2.7v.1c0 1.8 2.4 2.6 5.2 3.5l.5.2c3.3.9 7.3 2.5 7.3 7zm22.8 6.2s-.6.2-1.1.3c-1.3.3-2.6.5-4 .8-1.6.3-3.2.4-4.8.4-1.5 0-2.9-.1-4.2-.4-1.2-.3-2.3-.8-3.2-1.4-.9-.6-1.6-1.5-2.1-2.5s-.7-2.2-.7-3.6.3-2.6.8-3.6c.6-1 1.3-1.9 2.3-2.6 1-.7 2.1-1.2 3.3-1.5a16 16 0 0 1 3.9-.5c1 0 1.8 0 2.5.1 0 0 1.2.1 2.6.3v-.7c0-2.1-.4-3.1-1.3-3.8-.9-.7-2.2-1-3.9-1 0 0-3.8 0-6.9 1.6-.1.1-.3.1-.3.1s-.4.1-.5-.3l-1.1-3c-.2-.4.1-.6.1-.6 1.4-1.1 4.9-1.8 4.9-1.8 1.1-.2 3-.4 4.2-.4 3.2 0 5.6.7 7.2 2.2 1.7 1.4 2.5 3.8 2.5 7v14.4c.2-.1.2.4-.2.5zm10.6.5c0 .3-.2.5-.5.5H87c-.3 0-.5-.2-.5-.5V68c0-.3.2-.5.5-.5h4.2c.3 0 .5.2.5.5v33.7zm26.2-10.9c0 .4-.5.4-.5.4h-15.8c.1 2.4.7 4.1 1.8 5.2 1.1 1.1 3 1.9 5.4 1.9 3.8 0 5.3-.7 6.5-1.2 0 0 .4-.2.6.3l1 2.9c.2.5 0 .7-.1.8-1 .5-3.4 1.6-7.9 1.6-2.2 0-4.1-.3-5.7-.9-1.6-.6-2.9-1.5-4-2.6-1-1.1-1.8-2.5-2.3-4-.5-1.5-.7-3.2-.7-5 0-1.8.2-3.5.7-5 .5-1.6 1.2-2.9 2.1-4.1 1-1.2 2.2-2.1 3.6-2.8 1.5-.7 3.2-1 5.2-1 1.6 0 3.1.3 4.5.9 1 .4 2 1.2 3 2.3.6.7 1.6 2.2 2 3.7 1.1 3.4.6 6.4.6 6.6zm13 11.9c-2.7 0-5.4-.4-8.1-1.9l-1.5-.9c-.1-.1-.3-.2-.1-.6l1.1-3.1c.2-.5.6-.3.7-.3.3.2.5.4.9.6 3.2 2.1 6.2 2.1 7.2 2.1 2.4 0 3.9-1.3 3.9-3v-.1c0-1.9-2.3-2.6-5-3.4l-.6-.2c-3.7-1-7.6-2.6-7.6-7.2v-.1c0-4.4 3.6-7.5 8.7-7.5h.6c3 0 5.9.9 8 2.2.2.1.4.3.3.6l-1.1 3.1c-.2.5-.7.2-.7.2-1.8-1-4.7-1.8-7.1-1.8-2.2 0-3.6 1.2-3.6 2.7v.1c0 1.8 2.4 2.6 5.2 3.5l.5.2c3.7 1.2 7.6 2.8 7.6 7.2V95c-.2 4.8-3.7 7.7-9.3 7.7zm27.6-21.3c-.1.5-.5.5-.5.5h-5.2l-3.6 20.1c-.4 2.1-.8 3.9-1.4 5.3-.6 1.5-1.1 2.5-2 3.5-.8.9-1.8 1.6-2.9 2-1.1.4-2.4.6-3.9.6-.7 0-1.4 0-2.3-.2-.6-.1-1-.3-1.4-.4-.2-.1-.4-.3-.2-.6.1-.3 1-2.9 1.2-3.2.2-.4.6-.3.6-.3.3.1.5.2.9.3.4.1.9.1 1.3.1.7 0 1.3-.1 1.9-.3.7-.2 1-.6 1.4-1.1.4-.5.8-1.3 1.1-2.2.4-1 .7-2.3.9-3.9l3.5-19.7h-3.5c-.4 0-.6-.2-.5-.5l.6-3.3c.1-.5.5-.5.5-.5h3.6l.2-1.1c.5-3.2 1.6-5.6 3.2-7.2 1.6-1.6 3.8-2.4 6.7-2.4.7 0 1.4 0 2.1.2.5.1 1 .2 1.6.4.1 0 .4.2.3.5l-1.2 3.3c-.1.2-.2.4-.7.2-.1 0-.3-.1-.8-.2-.4-.1-.8-.1-1.3-.1-.6 0-1.1.1-1.7.2-.5.2-1 .4-1.3.8-.4.4-.9 1-1.1 1.7-.6 1.7-.8 3.4-.8 3.6h5c.4 0 .6.2.5.5l-.8 3.4zm23 13.5c-.5 1.6-1.2 2.9-2.1 4.1-1 1.1-2.2 2.1-3.6 2.7s-3.1 1-5 1-3.6-.3-5-1c-1.4-.6-2.6-1.6-3.6-2.7s-1.7-2.5-2.1-4.1c-.5-1.5-.7-3.2-.7-5 0-1.8.2-3.5.7-5 .5-1.6 1.2-2.9 2.1-4.1 1-1.1 2.2-2.1 3.6-2.7 1.4-.7 3.1-1 5-1s3.6.3 5 1 2.6 1.6 3.6 2.7 1.7 2.5 2.1 4.1c.5 1.5.7 3.2.7 5 0 1.8-.2 3.5-.7 5zm19.4-16.5c-.1.4-.9 2.5-1.2 3.2-.1.3-.3.5-.6.4 0 0-.9-.2-1.7-.2-.7 0-1.4.1-2.1.3-.7.2-1.4.6-2 1.2-.6.6-1 1.3-1.4 2.3-.3 1-.5 2.6-.5 4.1v11.8c0 .3-.2.5-.5.5h-4.1c-.3 0-.5-.2-.5-.5V78.1c0-.3.2-.5.5-.5h4c.3 0 .5.2.5.5V80c.6-.8 1.7-1.5 2.7-2 1-.4 2.1-.8 4.1-.7 1 .1 2.4.3 2.6.4.2.2.3.5.2.7zm19.9 23c-1.8.7-4.2 1.2-6.6 1.2-4 0-7.1-1.2-9.2-3.5-2.1-2.3-3.1-5.4-3.1-9.3 0-1.8.3-3.5.8-5s1.3-2.9 2.3-4 2.3-2.1 3.8-2.7c1.5-.7 3.2-1 5.2-1 1.3 0 2.5.1 3.5.2 1.1.2 2.5.5 3.1.8.1 0 .4.2.3.5-.4 1.2-.7 2-1.1 3.2-.2.5-.5.3-.5.3-1.5-.5-3-.7-4.9-.7-2.3 0-4 .8-5.2 2.3-1.1 1.5-1.8 3.5-1.8 6.1 0 2.9.7 5 2 6.4 1.3 1.3 3.1 2 5.3 2 .9 0 1.8-.1 2.5-.2.8-.1 1.5-.4 2.2-.6 0 0 .4-.2.6.3l1.2 3.2c-.1.4-.4.5-.4.5zm23.4-10.6c0 .4-.5.4-.5.4h-15.8c.1 2.4.7 4.1 1.8 5.2 1.1 1.1 3 1.9 5.4 1.9 3.8 0 5.3-.7 6.5-1.2 0 0 .4-.2.6.3l1 2.9c.2.5 0 .7-.1.8-1 .5-3.4 1.6-7.9 1.6-2.2 0-4.1-.3-5.7-.9-1.6-.6-2.9-1.5-4-2.6-1-1.1-1.8-2.5-2.3-4-.5-1.5-.7-3.2-.7-5 0-1.8.2-3.5.7-5 .5-1.6 1.2-2.9 2.1-4.1 1-1.2 2.2-2.1 3.6-2.8 1.5-.7 3.2-1 5.2-1 1.6 0 3.1.3 4.5.9 1 .4 2 1.2 3 2.3.6.7 1.6 2.2 2 3.7 1.1 3.4.6 6.4.6 6.6z"/></svg>