<svg width="56" height="56" xmlns="http://www.w3.org/2000/svg"><g fill="none" fill-rule="evenodd"><path d="M0 0h56v56H0z"/><g fill="#3079ED" fill-rule="nonzero"><path d="m17.5 33.3-.5-.1c-.7-.2-1.3-1-1.3-1.7 0-14.8 8-22.2 24.6-22.7V3.5a1.8 1.8 0 0 1 3-1.2l12.2 12.2c.7.7.7 1.8 0 2.5L43.2 29.2a1.7 1.7 0 0 1-3-1.2v-5.2c-9.9 0-15.6.6-21.2 9.6-.3.5-1 .9-1.5.9ZM43.8 7.7v2.8c0 1-.8 1.8-1.8 1.8-13.2 0-20.3 4.1-22.2 13.3 6-6.2 13-6.3 22.2-6.3.4 0 .9.1 1.2.5.4.3.5.7.5 1.2v2.8l8-8-8-8Z"/><path d="M45 54H4c-2.4 0-4-1.7-4-4.1V20C0 17.7 1.6 16 4 16h8c1 0 2 1 2 2s-1 2-2 2H5c-.5 0-1 .5-1 1v28c0 .5.5 1 1 1h39c.5 0 1-.5 1-1V33c0-1 1-2 2-2s2 1.3 2 2.3v16.6c0 2.4-1.6 4.1-4 4.1Z"/></g></g></svg>