<svg width="95" height="15" xmlns="http://www.w3.org/2000/svg"><path d="M95 0v6l-5-.7L87.6.5l-2.3 4.8L80 6l3.8 3.7-.9 5.3 4.7-2.5 4.7 2.5-.9-5.3L95 6.2V15H0V0h95ZM7.6.5 5.3 5.3 0 6l3.8 3.7-.9 5.3 4.7-2.5 4.7 2.5-.9-5.3L15.2 6 10 5.3 7.6.5Zm40 0-2.3 4.8L40 6l3.8 3.7-.9 5.3 4.7-2.5 4.7 2.5-.9-5.3L55.2 6 50 5.3 47.6.5Zm-20 0-2.3 4.8L20 6l3.8 3.7-.9 5.3 4.7-2.5 4.7 2.5-.9-5.3L35.2 6 30 5.3 27.6.5Zm40 0-2.3 4.8L60 6l3.8 3.7-.9 5.3 4.7-2.5 4.7 2.5-.9-5.3L75.2 6 70 5.3 67.6.5Z" fill="#FFF" fill-rule="nonzero"/></svg>