<svg version="1.1" id="Layer_1" xmlns="http://www.w3.org/2000/svg" x="0" y="0" viewBox="0 0 64 56" style="enable-background:new 0 0 64 56" xml:space="preserve"><style>.st0{fill:#fff}</style><path class="st0" d="M0 40.1h15.4v4.6H11V56H4.6V44.7H0zM23.2 46.5 20 56h-6.2l6-15.9h6.7L32.7 56h-6.2zM31.3 40.1h15.4v4.6h-4.4V56h-6.5V44.7h-4.5zM54.5 46.5 51.2 56h-6.1l6-15.9h6.7L64 56h-6.2zM54.7 10.7c-.6-1.1-1.3-2.2-2.3-3.2A22 22 0 0 0 43.8 2a34.8 34.8 0 0 0-23.6 0 22 22 0 0 0-8.6 5.5c-.9 1-1.7 2.1-2.3 3.2C13.9 9.6 21.8 8.2 29.1 8c.7 0 1.2.2 1.5.6.4.5.4 2.3.4 3L30.8 32h2.4L33 11.7c0-.8 0-2.5.3-3 .4-.5.9-.7 1.6-.7 7.3.2 15.2 1.6 19.8 2.7"/><path class="st0" d="M55.7 13.4A92.2 92.2 0 0 0 40 11.3c-3.9-.2-3.9 1.2-3.5 3.8l.1.6a204 204 0 0 0 3.2 15.4C49.2 29 56 23 56 16c0-.9-.1-1.8-.3-2.6M27.6 15.1c.4-2.6.3-4-3.5-3.8-4.4.2-8.9.5-15.7 2.1-.3.8-.4 1.7-.4 2.6 0 3 1.2 6 3.6 8.5a26.4 26.4 0 0 0 12.6 6.7c.3-1.1 1.9-7.8 3.2-15.6l.2-.5"/></svg>