<?xml version="1.0" encoding="UTF-8"?>
<svg width="371px" height="371px" viewBox="0 0 371 371" version="1.1" xmlns="http://www.w3.org/2000/svg" xmlns:xlink="http://www.w3.org/1999/xlink">
    <title>Outstanding Spring 2021 white</title>
    <defs>
        <linearGradient x1="198.040385%" y1="39.4626219%" x2="77.3770612%" y2="50%" id="linearGradient-1">
            <stop stop-color="#FFCB00" offset="0%"></stop>
            <stop stop-color="#F06A2B" offset="100%"></stop>
        </linearGradient>
        <linearGradient x1="-23.8878218%" y1="50.2533672%" x2="-111.319272%" y2="42.9717654%" id="linearGradient-2">
            <stop stop-color="#FFFFFF" offset="0%"></stop>
            <stop stop-color="#DDDDDD" offset="100%"></stop>
        </linearGradient>
        <linearGradient x1="-23.8878218%" y1="50.8948637%" x2="-111.319272%" y2="25.1770851%" id="linearGradient-3">
            <stop stop-color="#000000" offset="0%"></stop>
            <stop stop-color="#DDDDDD" offset="100%"></stop>
        </linearGradient>
        <linearGradient x1="-23.8878218%" y1="51.831876%" x2="-111.319272%" y2="-0.815003839%" id="linearGradient-4">
            <stop stop-color="#000000" offset="0%"></stop>
            <stop stop-color="#DDDDDD" offset="100%"></stop>
        </linearGradient>
    </defs>
    <g id="Outstanding-Spring-2021-white" stroke="none" stroke-width="1" fill="none" fill-rule="evenodd">
        <g id="Group-4">
            <g id="Group-2" transform="translate(185.261977, 185.261977) rotate(-315.000000) translate(-185.261977, -185.261977) translate(54.261977, 54.261977)">
                <rect id="Rectangle" fill="#C7BAAF" x="0" y="0" width="262" height="262"></rect>
                <rect id="Rectangle" fill="#F06A2B" x="7" y="7" width="248" height="248"></rect>
                <rect id="Rectangle" fill="#FFFFFF" x="15" y="15" width="232" height="232"></rect>
            </g>
            <polygon id="Fill-18-Copy-4" fill="#FFCB00" points="120.499235 242 123.435612 248.253959 130 249.257939 125.248852 254.124989 126.37199 261 120.499235 257.754763 114.62801 261 115.749617 254.124989 111 249.257939 117.564388 248.253959"></polygon>
            <polygon id="Fill-18-Copy-4" fill="#FFCB00" points="250.499235 242 253.435612 248.253959 260 249.257939 255.248852 254.124989 256.37199 261 250.499235 257.754763 244.62801 261 245.749617 254.124989 241 249.257939 247.564388 248.253959"></polygon>
            <g id="SF-logo-vector" transform="translate(155.000000, 50.000000)" fill="#F06A2A">
                <path d="M25.8876253,0 L33.3403115,0 C33.7046474,-5.95374649e-15 34,0.295352614 34,0.659688527 L34,0.925682962 C34,1.17869482 33.9040935,1.42230147 33.7316092,1.60740726 L10.3048278,26.7484328 C9.94769517,27.1316984 9.9468783,27.7256197 10.3029553,28.1098663 L28.8234058,48.0954869 C29.1758654,48.4758299 29.1791211,49.0624913 28.8309046,49.4467227 L25.4359844,53.1927687 C25.0651105,53.6020009 24.4327095,53.6330964 24.0234773,53.2622225 C24.0023484,53.243074 23.9820481,53.2230305 23.9626322,53.202147 L0.632441143,28.1085243 C0.275856992,27.7249874 0.275569784,27.1313049 0.631782677,26.7474232 L25.1545951,0.319803933 C25.3438187,0.115882371 25.6094355,2.04950409e-15 25.8876253,0 Z" id="Rectangle"></path>
                <path d="M52.9140361,3 L60.3345687,3 C60.7020763,3 61,3.29792372 61,3.66543126 L61,3.94383716 C61,4.19285434 60.9070913,4.43291269 60.7394501,4.61704848 L37.3177608,30.3432522 C36.9706531,30.7245127 36.9703233,31.3071841 37.3169992,31.6888373 L55.8181864,52.0566719 C56.1628186,52.4360752 56.1647875,53.0146256 55.8227456,53.3963658 L52.4347453,57.1775859 C52.0661946,57.5889116 51.4339799,57.6235875 51.0226542,57.2550368 C50.9980705,57.2330096 50.9745924,57.2097786 50.9523063,57.1854294 L27.6159019,31.6886185 C27.2669843,31.3073993 27.2660158,30.7231141 27.6136677,30.3407404 L52.1741339,3.32728552 C52.3636546,3.11883632 52.6323107,3 52.9140361,3 Z" id="Rectangle" transform="translate(44.000000, 30.500000) rotate(-180.000000) translate(-44.000000, -30.500000) "></path>
                <path d="M31.728575,42 C36.5861891,42 40.4177373,36.5317636 39.9633726,30.6848695 C39.7612106,28.0833911 38.1840781,23.4263763 37.649386,24.2550212 C37.3853509,24.6642124 37.9844168,27.8593484 37.788203,29.8139048 C37.4620231,33.0631013 36.2326234,35.0417283 35.6045136,33.8849416 C34.9764038,32.728155 35.1919932,30.4451045 35.0394967,28.042066 C34.8741421,25.4364088 34.4430874,22.8414106 33.9073729,21.2319133 C33.6737237,20.5299394 31.4751841,14.5633155 29.8896962,14 C29.7868443,14 29.7222803,14 29.6960041,14 C29.6447435,14 29.4994101,14.0498406 29.410697,14.1288742 C29.0612941,14.4401538 29.5867645,16.4881328 28.131553,18.9825264 C27.1762537,20.6200153 25.3147769,22.7549428 24.4022809,24.8512238 C23.1667858,27.6895319 22.9462796,30.4710018 23.009807,31.9397653 C23.2869354,38.3470165 26.8709609,42 31.728575,42 Z" id="Oval"></path>
            </g>
            <polygon id="Rectangle" fill="url(#linearGradient-1)" points="67.3460111 149 303.181678 149 340 185.5 303.181678 222 67.3460111 222 31 185.5"></polygon>
            <g id="SourceForge-Logo-White-vector" transform="translate(97.000000, 121.000000)" fill="#000000">
                <path d="M10.1703246,2.51356373 C10.0989181,2.65830546 9.99690881,2.73244147 9.82349304,2.73244147 C9.72148377,2.73244147 9.5820711,2.65830546 9.40865533,2.47826087 C9.23863988,2.29821628 8.99381762,2.12170197 8.71839258,1.94165738 C8.40556414,1.72277964 8.05873261,1.54626533 7.60989181,1.4015236 C7.161051,1.221479 6.60680062,1.147343 5.95054096,1.147343 C5.29088099,1.147343 4.74003091,1.26031215 4.21978362,1.43682646 C3.73693972,1.61687105 3.32210201,1.90282423 2.97527048,2.22761055 C2.62843895,2.55239688 2.387017,2.94425864 2.21360124,3.37495355 C2.04018547,3.80564846 1.9381762,4.27517651 1.9381762,4.74117428 C1.9381762,5.38721665 2.07758887,5.89204757 2.31561051,6.32274247 C2.56043277,6.71460424 2.9072643,7.07469342 3.3561051,7.36417689 C3.77094281,7.65013006 4.25378671,7.90078038 4.80803709,8.08082497 C5.36228748,8.29970271 5.91653787,8.47621702 6.47078825,8.65626161 C7.02163833,8.83630621 7.57588872,9.05165366 8.1301391,9.30230398 C8.68438949,9.51765143 9.13323029,9.84243776 9.5820711,10.1636938 C10.0309119,10.4884801 10.3437403,10.9580082 10.6191654,11.4557785 C10.8639876,11.9606094 11,12.6066518 11,13.362133 C11,14.1529171 10.8639876,14.8695652 10.6191654,15.5509104 C10.3777434,16.235786 9.99690881,16.8465255 9.51406491,17.3478261 C9.03122102,17.852657 8.40556414,18.2445188 7.71530139,18.5693051 C6.98763524,18.8552583 6.19196291,19 5.29088099,19 C4.11777434,19 3.08068006,18.7846525 2.24760433,18.3539576 C1.38392581,17.9232627 0.65625966,17.3089929 0,16.5605723 L0.34683153,15.9816054 C0.448840804,15.8368636 0.554250386,15.805091 0.690262751,15.805091 C0.761669243,15.805091 0.863678516,15.8368636 0.969088099,15.9498328 C1.07109737,16.0557414 1.24451314,16.2004831 1.38392581,16.3416945 C1.55734158,16.4864363 1.76476043,16.6664809 2.00618238,16.8465255 C2.24760433,17.0230398 2.52302937,17.2030844 2.83585781,17.3478261 C3.14868624,17.4925678 3.49551777,17.6337793 3.91035549,17.7396878 C4.3251932,17.852657 4.774034,17.8844296 5.29088099,17.8844296 C6.01854714,17.8844296 6.64080371,17.778521 7.1950541,17.5631735 C7.74930448,17.3478261 8.23214838,17.0230398 8.612983,16.6664809 C8.99381762,16.3063917 9.30664606,15.805091 9.51406491,15.3002601 C9.72148377,14.7636566 9.82349304,14.18822 9.82349304,13.6127834 C9.82349304,12.966741 9.68408037,12.4301375 9.44605873,11.9994426 C9.20123648,11.5652174 8.85440495,11.2051282 8.40556414,10.919175 C7.99072643,10.6332219 7.50788253,10.3825715 6.95363215,10.2025269 C6.39938176,10.0224823 5.84853168,9.80360461 5.29088099,9.6270903 C4.74003091,9.44704571 4.18578053,9.22816797 3.63153014,9.0163508 C3.08068006,8.79747306 2.62843895,8.51151988 2.17959815,8.15496098 C1.76476043,7.79487179 1.4179289,7.36417689 1.14250386,6.82404311 C0.897681607,6.28390933 0.761669243,5.64139725 0.761669243,4.81178001 C0.761669243,4.20457079 0.863678516,3.59383129 1.10510046,3.01839465 C1.34992272,2.43942772 1.66275116,1.94165738 2.10819165,1.47212932 C2.56043277,1.04143441 3.08068006,0.681345225 3.73693972,0.395392048 C4.39319938,0.144741732 5.12086553,0 5.95054096,0 C6.88562597,0 7.71530139,0.144741732 8.47357032,0.469528056 C9.20123648,0.790784095 9.89149923,1.26031215 10.5171561,1.86752137 L10.1703246,2.51356373 Z" id="Fill-953" stroke="#000000" stroke-width="0.5"></path>
                <path d="M28.8275862,9.49824668 C28.8275862,8.21481491 28.651434,7.03658247 28.2991296,6.00212244 C27.9502792,4.96766241 27.4563622,4.11204124 26.8242867,3.40019247 C26.1922111,2.68483706 25.418523,2.1483205 24.5066763,1.759083 C23.5913757,1.36633885 22.6069957,1.1875 21.5189968,1.1875 C20.4275439,1.1875 19.446618,1.36633885 18.5313173,1.759083 C17.6160166,2.1483205 16.8457825,2.68483706 16.213707,3.40019247 C15.5816314,4.11204124 15.0531748,4.96766241 14.7008704,6.00212244 C14.348566,7.03658247 14.1724138,8.17974847 14.1724138,9.49824668 C14.1724138,10.7816784 14.348566,11.9599109 14.7008704,12.9943709 C15.0531748,14.0288309 15.5436378,14.8844521 16.213707,15.5998075 C16.8457825,16.3116563 17.6160166,16.8481729 18.5313173,17.240917 C19.446618,17.6301545 20.4275439,17.8125 21.5189968,17.8125 C22.6069957,17.8125 23.6259153,17.6301545 24.5066763,17.240917 C25.418523,16.8832393 26.1922111,16.3116563 26.8242867,15.5998075 C27.4563622,14.8844521 27.9502792,14.0288309 28.2991296,12.9943709 C28.651434,11.9599109 28.8275862,10.8202515 28.8275862,9.49824668 M30,9.5 C30,10.9288618 29.7940417,12.2137842 29.3821251,13.3933851 C28.9702085,14.572986 28.3860973,15.5700296 27.6331678,16.395048 C26.876862,17.2130451 25.9855015,17.859017 24.9523337,18.3224316 C23.9225422,18.789357 22.7543198,19 21.4848064,19 C20.2456802,19 19.0808342,18.789357 18.0476663,18.3224316 C17.0178749,17.859017 16.1265144,17.251663 15.3668322,16.395048 C14.6139027,15.5700296 14.0297915,14.572986 13.6178749,13.3933851 C13.2059583,12.2137842 13,10.9288618 13,9.5 C13,8.07464893 13.2059583,6.78621582 13.6178749,5.61012565 C14.0297915,4.43052476 14.6139027,3.42997044 15.3668322,2.60846268 C16.1265144,1.78695492 17.0178749,1.140983 18.0476663,0.677568367 C19.0808342,0.214153732 20.2456802,0 21.4848064,0 C22.7543198,0 23.9225422,0.214153732 24.9523337,0.677568367 C25.9855015,1.140983 26.876862,1.75184775 27.6331678,2.60846268 C28.3860973,3.42997044 28.9702085,4.43052476 29.3821251,5.61012565 C29.7940417,6.78621582 30,8.07464893 30,9.5" id="Fill-955" stroke="#000000" stroke-width="0.5"></path>
                <path d="M39.5340484,17.8082756 C40.3576952,17.8082756 41.0840609,17.6624228 41.7455725,17.3351432 C42.4038414,17.0078637 42.9324021,16.5738626 43.3928661,16.0331399 C43.8565727,15.4924172 44.1840858,14.8022842 44.4143178,14.0801348 C44.6477925,13.3188541 44.7775006,12.525557 44.7775006,11.6184235 L44.7775006,0 L46,0 L46,11.6184235 C46,12.6678525 45.8346221,13.6070024 45.539536,14.5141359 C45.2412073,15.417712 44.8099277,16.1789927 44.2521826,16.8655682 C43.6911948,17.5165699 42.9972562,18.06085 42.2060364,18.4237034 C41.4148167,18.7829994 40.490646,19 39.5016214,19 C38.5125967,19 37.5851833,18.8185733 36.7939636,18.4237034 C36.0027438,18.0252762 35.3120479,17.5165699 34.7478174,16.8655682 C34.1900723,16.2145666 33.7587927,15.417712 33.4637067,14.5141359 C33.1653779,13.6070024 33,12.6322786 33,11.6184235 L33,0 L34.2549264,0 L34.2549264,11.5828497 C34.2549264,12.4508519 34.3878773,13.2832803 34.6181093,14.0410036 C34.8483412,14.8022842 35.2115241,15.4532859 35.639561,15.997566 C36.1032676,16.5418461 36.6285857,16.9758472 37.2900973,17.2995694 C37.9483662,17.6624228 38.7104016,17.8082756 39.5340484,17.8082756" id="Fill-957" stroke="#000000" stroke-width="0.5"></path>
                <path d="M54.7545979,8.87727273 L55.1081526,8.87727273 L55.9651386,8.87727273 C56.8643975,8.87727273 57.6867966,8.775 58.3900631,8.60113636 C59.0933297,8.38977273 59.7197365,8.14772727 60.1885808,7.76931818 C60.6958551,7.41818182 61.0494098,6.96818182 61.3222619,6.48409091 C61.5951139,5.99659091 61.7142465,5.40681818 61.7142465,4.78636364 C61.7142465,3.50113636 61.2454021,2.56363636 60.3077134,1.93977273 C59.3700247,1.31590909 57.9980785,1.00227273 56.1611309,1.00227273 L52.4488059,1.00227273 L52.4488059,8.87727273 L52.4488059,9.84886364 L52.4488059,18 L51,18 L51,0 L56.1611309,0 C58.5091957,0 60.2692836,0.415909091 61.3991216,1.21363636 C62.5750755,2.00795455 63.1207796,3.1875 63.1207796,4.74886364 C63.1207796,5.44431818 63.001647,6.06818182 62.7326379,6.62386364 C62.4559429,7.17613636 62.0639583,7.69772727 61.5566841,8.11363636 C61.0494098,8.52954545 60.4614329,8.91136364 59.7581663,9.15340909 C59.0548998,9.43295455 58.2325007,9.60681818 57.3755147,9.70909091 C57.6099369,9.84886364 57.8020862,10.0227273 57.9980785,10.2272727 L65,18 L63.7087565,18 C63.5511941,18 63.4359045,17.9625 63.3167719,17.9284091 C63.2014823,17.8977273 63.0823497,17.7886364 63.001647,17.6863636 L56.5146857,10.4011364 C56.3571233,10.2272727 56.1611309,10.0909091 56.0074115,10.0227273 C55.8114192,9.95113636 54.6738951,9.92045455 54.2857535,9.92045455 C54.2857535,8.97954545 54.439473,8.87727273 54.7545979,8.87727273" id="Fill-959" stroke="#000000" stroke-width="0.5"></path>
                <path d="M77.3166819,15.6727138 C77.3840513,15.6727138 77.4802933,15.7114032 77.512374,15.7782303 L78,16.3515365 C77.6439047,16.7489819 77.2846013,17.1393928 76.8579285,17.4629767 C76.4344638,17.7865605 75.9789184,18.071455 75.4880843,18.2860052 C75.0004583,18.5005553 74.4422548,18.6764161 73.8904675,18.8241392 C73.3033914,18.9683451 72.6489459,19 71.9656279,19 C70.7882676,19 69.7103575,18.7854498 68.7318973,18.3211773 C67.7534372,17.8569049 66.9032997,17.2449093 66.2199817,16.3867086 C65.5334555,15.5671973 64.9784601,14.5647908 64.5870761,13.3830063 C64.195692,12.204739 64,10.9139208 64,9.48241392 C64,8.08959645 64.195692,6.79877823 64.6191567,5.62051092 C65.0137489,4.4387264 65.6008249,3.47149204 66.3162236,2.61329137 C67.0348304,1.79026287 67.9170486,1.14309515 68.9275894,0.678822658 C69.9413382,0.214550167 71.0834097,0 72.2896425,0 C72.9087993,0 73.4637947,0.0351721585 73.9867094,0.14420585 C74.5096242,0.249722325 74.9683776,0.393928175 75.423923,0.573306183 C75.8794684,0.752684191 76.2708524,1.00240652 76.6622365,1.287301 C77.0536205,1.57219548 77.4482126,1.89577934 77.804308,2.25453536 L77.4482126,2.82784154 C77.3840513,2.93335802 77.2846013,2.97204739 77.1530706,2.97204739 C77.0889093,2.97204739 76.9894592,2.93335802 76.8932172,2.82784154 C76.7937672,2.71880785 76.6301558,2.61329137 76.4665445,2.46908552 C76.3061412,2.32487967 76.0751604,2.18419104 75.8473877,2.03998519 C75.619615,1.86060718 75.324473,1.71640133 74.9683776,1.61088486 C74.6411549,1.46667901 74.2465628,1.36116253 73.7910174,1.25212884 C73.3675527,1.14309515 72.8446379,1.10792299 72.2896425,1.10792299 C71.243813,1.10792299 70.2974335,1.287301 69.4505041,1.68122917 C68.6035747,2.07515735 67.8528873,2.61329137 67.2305225,3.36245835 C66.6113657,4.07997038 66.1205316,4.97334321 65.7612282,5.97574972 C65.4051329,6.97815624 65.2415215,8.15642355 65.2415215,9.44372455 C65.2415215,10.7697149 65.4051329,11.9163273 65.7612282,12.953906 C66.1205316,13.9879674 66.5792851,14.8496853 67.1984418,15.5671973 C67.8208066,16.2811922 68.5362053,16.815809 69.3542621,17.2097371 C70.1691109,17.6071825 71.0834097,17.7865605 72.0297892,17.7865605 C72.6489459,17.7865605 73.1718607,17.7478712 73.6594867,17.6423547 C74.1503208,17.5684932 74.5769936,17.4278045 74.9683776,17.2449093 C75.3597617,17.0655313 75.7511457,16.8544983 76.0751604,16.604776 C76.4344638,16.3515365 76.7616865,16.066642 77.0889093,15.7114032 C77.1209899,15.6727138 77.1530706,15.6375417 77.1851512,15.6375417 C77.2172319,15.7114032 77.2846013,15.6727138 77.3166819,15.6727138" id="Fill-961" stroke="#000000" stroke-width="0.5"></path>
                <polygon id="Fill-963" stroke="#000000" stroke-width="0.5" points="93 0 93 1.07590133 82.4677623 1.07590133 82.4677623 8.37495256 91.2250316 8.37495256 91.2250316 9.41669829 82.4677623 9.41669829 82.4677623 16.9240987 93 16.9240987 93 18 81 18 81 0"></polygon>
                <polygon id="Fill-965" points="108 0 108 2.83135876 98.8525603 2.83135876 98.8525603 8.44483525 106.561507 8.44483525 106.561507 11.2726768 98.8525603 11.2726768 98.8525603 19 95 19 95 0.0386893743 108 0.0386893743"></polygon>
                <path d="M124.4375,9.5 C124.4375,8.48700381 124.295513,7.57702419 124.011538,6.77692889 C123.731026,5.97339971 123.346621,5.27632098 122.851396,4.71316377 C122.356172,4.15344046 121.722423,3.73450644 120.984781,3.42202287 C120.243675,3.1095393 119.433308,2.96875 118.519047,2.96875 C117.601323,2.96875 116.790956,3.1095393 116.053314,3.42202287 C115.312208,3.73450644 114.713091,4.15344046 114.183235,4.71316377 C113.656842,5.27632098 113.268974,5.97339971 112.984999,6.77692889 C112.704487,7.57702419 112.5625,8.48700381 112.5625,9.5 C112.5625,10.5129962 112.704487,11.4229758 112.984999,12.226505 C113.268974,13.0266003 113.656842,13.7271129 114.183235,14.2868362 C114.713091,14.8465595 115.312208,15.2654936 116.053314,15.581411 C116.790956,15.8938946 117.601323,16.03125 118.519047,16.03125 C119.433308,16.03125 120.243675,15.8938946 120.984781,15.581411 C121.722423,15.2654936 122.321541,14.8465595 122.851396,14.2868362 C123.346621,13.7271129 123.731026,13.0266003 124.011538,12.226505 C124.295513,11.4229758 124.4375,10.5129962 124.4375,9.5 M128,9.5 C128,10.8679724 127.788233,12.1325716 127.329984,13.2869061 C126.871734,14.4446863 126.236433,15.4577439 125.385894,16.3019587 C124.577014,17.1427276 123.552896,17.8077621 122.386443,18.3005078 C121.219989,18.7898078 119.914672,19 118.501736,19 C117.0888,19 115.780011,18.7587958 114.613557,18.3005078 C113.450576,17.8077621 112.461173,17.1806311 111.614106,16.3019587 C110.763567,15.4577439 110.128266,14.4446863 109.670016,13.2869061 C109.211767,12.1325716 109,10.8679724 109,9.5 C109,8.13547334 109.211767,6.87087414 109.670016,5.71309394 C110.128266,4.55531375 110.763567,3.54225608 111.614106,2.69804135 C112.461173,1.8572724 113.450576,1.19223794 114.613557,0.699492202 C115.780011,0.210192238 117.0888,0 118.501736,0 C119.914672,0 121.219989,0.244649982 122.386443,0.73739572 C123.552896,1.23014146 124.538827,1.89517592 125.385894,2.73594487 C126.198246,3.57671382 126.871734,4.59321727 127.329984,5.75099746 C127.753517,6.87087414 128,8.13547334 128,9.5" id="Fill-966"></path>
                <path d="M134.343646,9.03301799 L135.067587,9.03301799 C135.664683,9.03301799 136.168967,8.95900575 136.608282,8.78278613 C137.05069,8.60304211 137.397192,8.38805416 137.681818,8.09905398 C137.963351,7.81357819 138.183008,7.45761454 138.309852,7.05935819 C138.436697,6.66815062 138.52951,6.19940642 138.52951,5.73418661 C138.52951,4.76497867 138.247977,4.01428306 137.681818,3.51381933 C137.115659,3.0098312 136.264874,2.72435541 135.129462,2.72435541 L133.118515,2.72435541 L133.118515,9.03301799 L133.118515,11.5811538 L133.118515,19 L130,19 L130,0 L135.098525,0 C136.230842,0 137.208472,0.144500093 138.025226,0.394731961 C138.845074,0.641439436 139.504046,1.0361714 140.011423,1.50139121 C140.512613,1.97013541 140.92099,2.57985531 141.143741,3.22834354 C141.394336,3.9050269 141.52118,4.62400297 141.52118,5.44518642 C141.52118,6.09367464 141.425274,6.70339455 141.267492,7.27787052 C141.112803,7.84882211 140.859115,8.35281024 140.543551,8.81803005 C140.227987,9.28324986 139.850547,9.68150621 139.380295,10.0374699 C138.906949,10.3969579 138.402665,10.6824337 137.805569,10.8657021 C138.183008,11.1124096 138.52951,11.4718976 138.814136,11.9371174 L143,18.9647561 L140.200143,18.9647561 C139.915516,18.9647561 139.692765,18.8942682 139.504046,18.7885364 C139.315326,18.6792803 139.160638,18.5030607 139.033793,18.2493044 L135.540933,12.1556298 C135.445026,12.0111297 135.256307,11.6868855 135.067587,11.6516416 L133.966207,11.6516416 L133.966207,9.3572621 C133.997144,9.03301799 134.343646,9.03301799 134.343646,9.03301799" id="Fill-967"></path>
                <path d="M153.982434,16.3068429 C154.778754,16.3068429 155.500418,16.2346126 156.079883,16.0935916 C156.659348,15.9560101 157.238812,15.7461984 157.779172,15.5019913 L157.779172,11.3023172 L155.393768,11.3023172 C155.176913,11.3023172 154.995609,11.2300869 154.849854,11.1269008 C154.707654,10.9858798 154.632999,10.8482983 154.632999,10.672882 L154.632999,8.71234613 L161,8.71234613 L161,17.0429037 C160.53074,17.3902969 160.022376,17.6688993 159.478461,17.916546 C158.938101,18.1607531 158.394187,18.3740043 157.779172,18.5459812 C157.167712,18.7213975 156.552698,18.8245836 155.863028,18.8968139 C155.176913,18.9656046 154.451694,19 153.658929,19 C152.247595,19 150.982016,18.7557929 149.787537,18.3017741 C148.593057,17.8443157 147.579883,17.1804852 146.748013,16.3412382 C145.880594,15.5019913 145.230029,14.487328 144.72522,13.3316437 C144.252405,12.179399 144,10.8826937 144,9.51719768 C144,8.1173063 144.216855,6.85843592 144.68967,5.66835626 C145.158929,4.51267198 145.809494,3.49800869 146.676913,2.65876177 C147.544333,1.81951484 148.593057,1.15568429 149.823087,0.70166546 C151.053116,0.244207096 152.4289,0 153.946884,0 C155.500418,0 156.876202,0.209811731 157.996027,0.663830558 C159.154956,1.12128892 160.097031,1.71632875 160.889795,2.41455467 L159.841071,3.98986242 C159.624216,4.30629978 159.371811,4.48171615 159.044751,4.48171615 C158.827896,4.48171615 158.611041,4.40948588 158.394187,4.26846488 C158.106232,4.09304852 157.818277,3.95202752 157.526767,3.77661115 C157.238812,3.60463432 156.911752,3.46705286 156.552698,3.35698769 C156.190088,3.25380159 155.791928,3.1506155 155.358218,3.07838523 C154.924509,3.0095945 154.380594,2.97519913 153.801129,2.97519913 C152.86261,2.97519913 151.991635,3.11278059 151.234421,3.42921796 C150.473651,3.74565532 149.823087,4.16527878 149.282727,4.76031861 C148.738812,5.32096307 148.340652,6.01918899 148.052698,6.82404055 C147.761188,7.62889211 147.615433,8.53692976 147.615433,9.51719768 C147.615433,10.6040912 147.761188,11.5465243 148.088248,12.3857712 C148.415307,13.2250181 148.849017,13.9266836 149.389377,14.487328 C149.933292,15.0479725 150.619406,15.5019913 151.380176,15.8149891 C152.13739,16.1314265 153.079465,16.3068429 153.982434,16.3068429" id="Fill-968"></path>
                <path d="M173.157446,11.3654738 L166.890818,11.3654738 L166.890818,16.1674393 L176,16.1674393 L176,19 L163,19 L163,0 L176,0 L176,2.83608381 L166.85256,2.83608381 L166.85256,8.67735954 L174.052678,8.67735954 L174.052678,10.75598 C174.052678,10.75598 174.01442,11.3654738 173.157446,11.3654738" id="Fill-969"></path>
            </g>
            <text id="Top-Performer" fill="url(#linearGradient-2)" font-family="Arial-BoldMT, Arial" font-size="39" font-weight="bold">
                <tspan x="50.642334" y="199">Top Performer</tspan>
            </text>
            <text id="Spring" fill="url(#linearGradient-3)" font-family="Arial-BoldMT, Arial" font-size="30" font-weight="bold" letter-spacing="-0.466666667">
                <tspan x="139.402441" y="259">Spring</tspan>
            </text>
            <text id="2021" fill="url(#linearGradient-4)" font-family="Arial-BoldMT, Arial" font-size="30" font-weight="bold" letter-spacing="-0.466666667">
                <tspan x="153.064193" y="295">2022</tspan>
            </text>
        </g>
    </g>
</svg>