<svg xmlns="http://www.w3.org/2000/svg" viewBox="0 0 80 45" style="enable-background:new 0 0 80 45" xml:space="preserve"><path d="M62.3 0c4.5.1 10 .3 13.3 3.8 1.9 2 3 5.3 3 8.3 0 4-1.8 6.2-2.8 7.1a16.5 16.5 0 0 1-4.5 2.9c1.8.6 3.8 1.1 5.5 2.8 1.9 1.8 3.1 5 3.1 8.4.1 2.9-1.1 5.8-3.1 7.9-3.6 3.6-8.3 3.7-13.4 3.8H42.7v-9.2l4 .1V9.1l-4 .1V0h19.6zm-3.9 18.1c3.6.1 4.1.1 5-.1a4.2 4.2 0 0 0 3.4-4.5c0-2.4-1.3-3.7-2.3-4.1-.9-.4-1.7-.5-6.2-.6l.1 9.3zm0 17.7h3.5c2.5 0 6-.1 6-4.3 0-2.2-1.2-3.8-2.7-4.3-1.1-.4-1.6-.4-6.7-.4l-.1 9zM0 0h19.3v9.2l-4-.1 6.6 25.7L29 9.1l-4 .1V0h17.7v9.2l-3-.1-11.1 35.8H14.1L2.8 9.1 0 9.2z"/></svg>