<?xml version="1.0" encoding="UTF-8"?>
<svg width="30px" height="30px" viewBox="0 0 30 30" version="1.1" xmlns="http://www.w3.org/2000/svg" xmlns:xlink="http://www.w3.org/1999/xlink">
    <title>voice-messages</title>
    <g id="voice-messages" stroke="none" stroke-width="1" fill="none" fill-rule="evenodd">
        <g transform="translate(7.000000, 9.000000)" fill="#3079ED" fill-rule="nonzero" id="Path">
            <path d="M8,20 C7.4375,20 7,19.65 7,19.2 L7,12.8 C7,12.35 7.4375,12 8,12 C8.5625,12 9,12.35 9,13.3 L9,19.7 C9,19.6 8.5625,20 8,20 Z"></path>
            <path d="M13.1085132,20.9529301 L2.84057971,20.9529301 C2.36775362,20.9529301 2,20.4327235 2,19.9598975 C2,19.4870714 2.36775362,19 2.84057971,19 L13.055977,19 C13.5288031,19 13.8965567,19.4870714 13.8965567,19.9598975 C13.8965567,20.4327235 13.5288031,20.9529301 13.1085132,20.9529301 Z"></path>
            <path d="M15.3424658,0 L13.3150685,0 L11.7467237,0 L11.7467237,1.99230769 L13.3150685,1.99230769 L14.0256006,1.99230769 L14.0256006,5.08461538 C14.0256006,8.26153846 11.7260274,10.9 8.60273973,11.0076923 L7.28767123,11.0076923 C4.16438356,10.9 1.99850002,8.26153846 1.99850002,5.08461538 L1.99850002,1.99230769 L2.57534247,1.99230769 L4.24682568,1.99230769 L4.24682568,0 L2.68493151,0 L0.657534247,0 C0.273972603,0 0,0.323076923 0,0.7 L0,5.08461538 C0,9.39230769 3.28767123,12.8923077 7.34246575,13 L8.65753425,13 C12.7123288,12.8923077 16,9.39230769 16,5.08461538 L16,0.7 C16,0.323076923 15.7260274,0 15.3424658,0 Z"></path>
        </g>
        <rect id="Rectangle" stroke="#3079ED" stroke-width="2" x="12" y="1" width="6" height="14" rx="3"></rect>
    </g>
</svg>