<svg xmlns="http://www.w3.org/2000/svg" viewBox="0 0 800 800" xml:space="preserve"><linearGradient id="a" gradientUnits="userSpaceOnUse" x1="400.1" y1="798.8" x2="400.1" y2="-1.2" gradientTransform="matrix(1 0 0 -1 0 798.8)"><stop offset="0" style="stop-color:#18bffb"/><stop offset="1" style="stop-color:#2072f3"/></linearGradient><path fill="url(#a)" d="M638.4 0H161.6A161.5 161.5 0 0 0 0 161.6v476.9C0 727.7 72.3 800 161.6 800h476.9c89.2 0 161.6-72.3 161.6-161.6V161.6A161.7 161.7 0 0 0 638.4 0z"/><path fill="#FFF" d="m396.6 183.8 16.2-28a36.4 36.4 0 1 1 63.2 36.4L319.9 462.4h112.9c36.6 0 57.1 43 41.2 72.8H143a36.3 36.3 0 0 1-36.4-36.4 36.3 36.3 0 0 1 36.4-36.4h92.8l118.8-205.9-37.1-64.4a36.5 36.5 0 0 1 63.2-36.4l15.9 28.1zM256.2 572.7l-35 60.7A36.4 36.4 0 1 1 158 597l26-45c29.4-9.1 53.3-2.1 72.2 20.7zm301.4-110.1h94.7a36.3 36.3 0 0 1 36.4 36.4 36.3 36.3 0 0 1-36.4 36.4h-52.6l35.5 61.6a36.5 36.5 0 0 1-63.2 36.4l-134.5-233c-30.5-52.6-8.7-105.4 12.8-123.3 23.9 41 59.6 102.9 107.3 185.5z"/></svg>