<svg width="30" height="31" xmlns="http://www.w3.org/2000/svg"><path d="M10.44 23.74a.64.64 0 0 0-.58-.6 79 79 0 0 1-.7-.07 2.09 2.09 0 0 1-1.87-1.88 57.7 57.7 0 0 1 0-11.96c.1-.98.87-1.76 1.84-1.86a58.37 58.37 0 0 1 11.86 0c.97.1 1.74.88 1.84 1.86l.09.97a2.22 2.22 0 0 0 2.2 2.04h1.72c.84 0 1.64-.36 2.21-.98.57-.63.85-1.47.77-2.32-.07-.78-.16-1.58-.26-2.41a6.8 6.8 0 0 0-5.9-5.96 65.21 65.21 0 0 0-17.2 0 6.8 6.8 0 0 0-5.9 5.96 67.28 67.28 0 0 0 0 17.38 6.8 6.8 0 0 0 5.9 5.96 65.2 65.2 0 0 0 17.2 0 6.8 6.8 0 0 0 5.9-5.96c.1-.83.19-1.63.26-2.41.08-.85-.2-1.69-.77-2.32a2.97 2.97 0 0 0-2.2-.98h-1.72c-1.15 0-2.11.89-2.21 2.04l-.09.97c-.1.99-.86 1.76-1.84 1.86-1.23.12-2.37.2-3.47.25-.4.02-.78.17-1.09.44a41.85 41.85 0 0 1-4.9 3.6.59.59 0 0 1-.58.02.6.6 0 0 1-.32-.5l-.2-3.14Z" fill-rule="nonzero" fill="#FFF"/></svg>