<svg width="56" height="56" xmlns="http://www.w3.org/2000/svg"><g fill="none" fill-rule="evenodd"><path d="M0 0h56v56H0z"/><g fill="#FF492C" fill-rule="nonzero"><path d="M46.8 18h-7.3c.2-1.2.9-1.8 2.3-2.5l1.4-.7c2.4-1.3 3.7-2.7 3.7-5a4 4 0 0 0-1.7-3.3c-1-.8-2.4-1.2-4-1.2-1.1 0-2.2.3-3.3 1-1 .5-1.7 1.3-2.2 2.3l2.2 2.1c.8-1.6 2-2.4 3.5-2.4 1.4 0 2.2.6 2.2 1.6 0 .8-.4 1.5-2 2.2l-.8.5c-1.9.9-3.2 2-4 3.2a8.8 8.8 0 0 0-1 4.7v.5h11v-3Zm-1 6.5h-12L27.6 35h12l6.1 10.5 6-10.5-6-10.5Z"/><path d="M28.7 42a14 14 0 0 1 0-28l4.8-10A24.5 24.5 0 1 0 43 47.8l-5.3-9.2a14 14 0 0 1-9.1 3.4Z"/></g></g></svg>