<svg width="64" height="64" xmlns="http://www.w3.org/2000/svg"><g fill="none" fill-rule="evenodd"><circle fill="#EAF2FD" cx="32" cy="32" r="32"/><path d="M14 16h32v32H14z"/><path d="M45 44a1 1 0 0 1-1-1V18.5c0-.3-.2-.5-.5-.5h-20c-.3 0-.5.2-.5.5V41a1 1 0 1 1-2 0V18.5c0-1.4 1.1-2.5 2.5-2.5h20c1.4 0 2.5 1.1 2.5 2.5V43c0 .6-.4 1-1 1Zm-4 4H19a5 5 0 0 1-5-5v-.5c0-1.4 1.1-2.5 2.5-2.5h20c1.4 0 2.5 1.1 2.5 2.5v.5a1 1 0 1 1-2 0v-.5c0-.3-.2-.5-.5-.5h-20c-.3 0-.5.2-.5.5v.5a3 3 0 0 0 3 3h22a1 1 0 1 1 0 2ZM29 28a1 1 0 0 1-.7-.3l-2-2a1 1 0 1 1 1.4-1.4l1.2 1.2 2.3-3.1a1 1 0 0 1 1.6 1.2l-3 4a1 1 0 0 1-.7.4H29Zm0 8a1 1 0 0 1-.7-.3l-2-2a1 1 0 1 1 1.4-1.4l1.2 1.2 2.3-3.1a1 1 0 1 1 1.6 1.2l-3 4a1 1 0 0 1-.7.4H29Zm11-10h-4a1 1 0 1 1 0-2h4a1 1 0 1 1 0 2Zm0 8h-4a1 1 0 1 1 0-2h4a1 1 0 1 1 0 2Zm1.5 14a1 1 0 1 1 0-2c1.4 0 2.5-1.3 2.5-3a1 1 0 1 1 2 0c0 2.8-2 5-4.5 5Zm0 0c-2 0-3.6-1.4-4.3-3.4L37 43a1 1 0 1 1 2 0l.1 1c.4 1.2 1.4 2 2.4 2a1 1 0 1 1 0 2Z" fill="#3079ED" fill-rule="nonzero"/></g></svg>