<svg width="56" height="57" xmlns="http://www.w3.org/2000/svg"><g fill="none" fill-rule="evenodd"><path d="M56 56H0h56Z"/><g fill="#3079ED" fill-rule="nonzero"><path d="M33.25 49H4.38A4.39 4.39 0 0 1 0 44.62V7.88C0 5.47 1.58 4 4 4h41c2.42 0 4 1.47 4 3.88v25.37c0 .97-.53 1.75-1.5 1.75S45 33.97 45 33V9c0-.49-.51-1-1-1H5c-.49 0-1 .51-1 1v35c0 .49.51 1 1 1h28c.97 0 2 1.53 2 2.5s-.78 1.5-1.75 1.5ZM47 18H2c-.97 0-2-1.53-2-2.5S.78 14 1.75 14h45.5c.97 0 1.75.78 1.75 1.75S47.97 18 47 18Zm-36-7.5c-.97 0-2-.53-2-1.5V2c0-.97 1.03-2 2-2s2 1.03 2 2v7c0 .97-1.03 1.5-2 1.5Zm14 0c-.97 0-2-.53-2-1.5V2c0-.97 1.03-2 2-2s2 1.03 2 2v7c0 .97-1.03 1.5-2 1.5Zm14 0c-.97 0-2-.53-2-1.5V2c0-.97 1.03-2 2-2s2 1.03 2 2v7c0 .97-1.03 1.5-2 1.5Z"/><circle cx="10.5" cy="31.5" r="1.75"/><circle cx="10.5" cy="38.5" r="1.75"/><circle cx="38.5" cy="24.5" r="1.75"/><circle cx="24.5" cy="24.5" r="1.75"/><circle cx="24.5" cy="31.5" r="1.75"/><circle cx="24.5" cy="38.5" r="1.75"/><circle cx="17.5" cy="24.5" r="1.75"/><circle cx="17.5" cy="31.5" r="1.75"/><circle cx="17.5" cy="38.5" r="1.75"/><circle cx="31.5" cy="24.5" r="1.75"/><circle cx="31.5" cy="31.5" r="1.75"/><circle cx="38.5" cy="31.5" r="1.75"/><circle cx="31.5" cy="38.5" r="1.75"/><path d="M43.75 56C37 56 32 50.75 32 44s5-12.5 11.75-12.5S56 37 56 43.75 50.5 56 43.75 56Zm0-20C38.93 36 36 38.93 36 43.75s2.93 7.75 7.75 7.75 7.75-2.93 7.75-7.75S48.57 36 43.75 36Zm-1.5 12.17-3.17-2.84a1.75 1.75 0 1 1 2.34-2.6l1.73 1.54 2.69-3.68a1.75 1.75 0 1 1 2.82 2.06l-3.83 5.25c-.29.4-.74.66-1.23.7l-.18.02c-.43 0-.84-.16-1.17-.45Z"/></g></g></svg>