<svg enable-background="new 0 0 969.392 219.977" viewBox="0 0 969.392 219.977" xmlns="http://www.w3.org/2000/svg"><g fill="#231f20"><path d="m1.479 128.935 12.227-1.925v-113.081l-13.706-1.779.739-12.15h85.371l-2.071 34.218-17.039-.446-1.032-21.475h-26.42v50.846h11.508l2.664-11.704 11.962.293v35.111h-11.816l-2.818-11.997h-11.501v53.943h26.567l2.518-23.4 17.925.593 1.332 35.697h-86.996z"/><path d="m95.707 141.678.446-10.518 9.597-1.925v-71.296l-11.221-1.039v-10.664l28.073-3.997 2.113 6.075v3.997c6.814-7.114 14.961-11.257 25.332-11.257 15.261 0 26.518 9.186 26.518 27.557v60.631l10.183 1.925-.593 10.518h-33.109v-67.969c0-9.779-3.592-15.261-12.338-15.261-2.964 0-5.078.593-7.442 1.332-1.486 1.186-2.818 2.964-4.003 4.596v64.851l10.072 1.925-.739 10.518c-.001.001-42.889.001-42.889.001z"/><path d="m631.319 141.678.446-10.518 9.597-1.925v-71.296l-11.222-1.039v-10.664l28.073-3.997 2.106 6.075v3.997c6.814-7.114 14.961-11.257 25.332-11.257 15.261 0 26.518 9.186 26.518 27.557v60.631l10.183 1.925-.593 10.518h-33.109v-67.969c0-9.779-3.599-15.261-12.338-15.261-2.957 0-5.071.593-7.442 1.332-1.479 1.186-2.818 2.964-3.997 4.596v64.851l10.072 1.925-.739 10.518c.001.001-42.887.001-42.887.001z"/><path d="m239.68 139.711c-3.85 1.632-10.811 3.404-19.85 3.404-11.85 0-22.884-5.329-22.884-22.668v-62.557l-11.257-1.779.446-12.443 12.743-.593 5.482-18.964 16.223-.746v20.297h17.632l-1.221 12.443-16.098 1.786v62.41c0 5.182 2.818 8.593 8.146 8.593h9.59z"/><path d="m903.23 141.678.446-10.225 9.039-2.072v-71.435l-10.664-1.039v-10.671l28.994-3.997 1.925 6.961v2.225c7.561-5.629 17.925-9.332 30.229-9.332l4.296 3.704-2.964 26.818-16-.593-1.625-14.368c-3.704.593-7.261 1.632-10.225 3.704v68.032l10.079 2.072-.739 10.225h-42.79v-.009z"/><path d="m485.638 141.678.446-10.225 9.039-2.072v-71.435l-10.671-1.039v-10.671l28.994-3.997 1.925 6.961v2.225c7.561-5.629 17.925-9.332 30.229-9.332l4.296 3.704-2.964 26.818-16-.593-1.625-14.368c-3.704.593-7.261 1.632-10.225 3.704v68.032l10.078 2.072-.739 10.225h-42.783z"/><path d="m246.746 141.678.446-10.225 9.039-2.072v-71.435l-10.671-1.039v-10.671l29.001-3.997 1.925 6.961v2.225c7.554-5.629 17.925-9.332 30.222-9.332l4.296 3.704-2.964 26.818-16-.593-1.632-14.368c-3.704.593-7.261 1.632-10.225 3.704v68.032l10.078 2.072-.739 10.225h-42.776z"/><path d="m338.659 98.232c0 17.032 7.365 30.222 22.131 30.222 7.554 0 13.629-1.632 20.743-4.889l4.004 9.332c-7.261 5.775-17.82 10.218-31.156 10.218-25.814 0-40.726-22.368-40.726-51.111 0-24.446 10.741-51.195 40.447-51.195 25.8 0 35.592 23.937 35.592 50.602l-2.518 6.368zm-.447-11.41 29.817-1.332c-.593-11.857-3.048-30.752-14.717-30.752-2.769 0-4.764.446-8.321 2.371-4.798 8.147-6.841 22.87-6.779 29.713z"/><path d="m750.615 98.232c0 17.032 7.365 30.222 22.131 30.222 7.561 0 13.629-1.632 20.743-4.889l3.997 9.332c-7.254 5.775-17.82 10.218-31.156 10.218-25.814 0-40.726-22.368-40.726-51.111 0-24.446 10.734-51.195 40.447-51.195 25.8 0 35.592 23.937 35.592 50.602l-2.518 6.368zm-.446-11.41 29.817-1.332c-.593-11.857-3.048-30.752-14.717-30.752-2.769 0-4.764.446-8.321 2.371-4.798 8.147-6.835 22.87-6.779 29.713z"/><path d="m577.544 98.232c0 17.032 7.365 30.222 22.131 30.222 7.561 0 13.629-1.632 20.743-4.889l3.997 9.332c-7.254 5.775-17.82 10.218-31.156 10.218-25.814 0-40.726-22.368-40.726-51.111 0-24.446 10.734-51.195 40.44-51.195 25.8 0 35.592 23.937 35.592 50.602l-2.518 6.368zm-.447-11.41 29.817-1.332c-.593-11.857-3.048-30.752-14.717-30.752-2.769 0-4.764.446-8.321 2.371-4.798 8.147-6.834 22.87-6.779 29.713z"/><path d="m868.663 141.678-2.518-8.446c-6.521 6.221-12.889 9.925-22.814 9.925-15.261 0-28.924-7.7-28.924-28.743v-59.02l-11.222-1.039v-9.332l32.216-3.704 2.518 8.446v61.692c0 10.818 4.359 16.446 13.113 16.446 2.49 0 5.636-.3 8.446-1.479 1.625-1.632 3.111-3.557 4.443-5.482v-65.549l-11.557-1.039v-9.332l32.551-3.704 2.518 8.446v79.47l10.037 1.925-1.186 10.518c-.001.001-27.621.001-27.621.001z"/><path d="m437.944 128.935c-5.182 0-9.186-.893-12.443-2.664v-62.668c1.332-2.071 2.964-3.997 4.596-5.775 2.964-1.039 5.754-1.479 8.865-1.479 13.322 0 15.526 13.496 15.526 37.65 0 23.261-3.46 29.664-4.387 32.279-3.564 1.771-7.414 2.657-12.157 2.657zm39.735-39.316c0-29.915-8.886-48.712-30.933-48.712-14.661 0-21.629 8.46-24.502 12.031v-3.257l-2.518-8.446-28.959 4.004v10.211l11.222 1.479v120.837l-9.486 1.925-.446 10.079h42.776l.739-10.079-10.072-1.925v-38.319c4.004 2.225 9.737 3.704 15.965 3.704 35.887.013 36.214-36.695 36.214-53.532z"/><path d="m961.406 127.812c4.875 0 7.986 2.888 7.986 6.947 0 4.094-3.194 6.947-7.986 6.947-4.715 0-7.993-2.853-7.993-6.947 0-4.101 3.236-6.947 7.993-6.947zm0 11.718c3.32 0 5.489-1.96 5.489-4.778s-2.169-4.778-5.489-4.778c-3.278 0-5.454 1.925-5.454 4.778 0 2.818 2.176 4.778 5.454 4.778zm-3.481-1.639.042-.963.823-.181v-4.276l-.942-.105.042-.963h3.808c1.639 0 3.16.53 3.118 1.96-.042.997-.614 1.569-1.395 1.89.412.642.984 1.318 1.395 1.569l.572.105-.084.963h-1.925c-.656-.537-1.269-1.248-1.841-2.385h-.614v1.248l.816.181-.077.963h-3.739v-.006zm2.986-5.308v1.855h.698c.942 0 1.151-.356 1.151-.893 0-.816-.614-.963-1.395-.963h-.454z"/><path d="m705.908 169.346h30.871v5.414h-25.045v15.396h23.385v5.414h-23.385v17.485h26.298v5.409h-32.125v-49.118z"/><path d="m783.883 199.732c0 2.682-.333 5.228-1.005 7.633s-1.733 4.522-3.19 6.346c-1.457 1.829-3.365 3.286-5.725 4.37-2.36 1.09-5.228 1.632-8.604 1.632s-6.244-.542-8.599-1.632c-2.36-1.084-4.268-2.541-5.725-4.37-1.457-1.824-2.524-3.941-3.19-6.346-.672-2.405-1.011-4.951-1.011-7.633v-30.386h5.832v29.556c0 1.987.209 3.907.621 5.759.418 1.846 1.112 3.489 2.083 4.923s2.264 2.58 3.884 3.433c1.62.858 3.653 1.287 6.103 1.287s4.488-.429 6.109-1.287c1.615-.853 2.913-1.999 3.884-3.433s1.665-3.077 2.078-4.923c.418-1.852.627-3.771.627-5.759v-29.556h5.826v30.386z"/><path d="m795.885 169.346h12.556c2.36 0 4.709.141 7.046.418 2.332.277 4.426.881 6.278 1.801 1.846.926 3.354 2.281 4.505 4.059 1.157 1.784 1.739 4.2 1.739 7.249 0 3.608-1.09 6.521-3.263 8.745-2.174 2.219-5.177 3.63-9.016 4.229l13.945 22.617h-7.148l-13.318-22.064h-7.492v22.064h-5.832zm5.833 21.646h5.2c1.62 0 3.297-.045 5.03-.141 1.733-.09 3.331-.39 4.788-.898s2.659-1.31 3.608-2.394c.948-1.09 1.423-2.648 1.423-4.686 0-1.756-.35-3.167-1.044-4.229-.689-1.067-1.603-1.886-2.738-2.467-1.135-.576-2.405-.954-3.817-1.14s-2.834-.277-4.263-.277h-8.186v16.232z"/><path d="m861.1 219.712c-3.743 0-7.181-.649-10.304-1.942-3.122-1.293-5.826-3.088-8.113-5.375-2.292-2.292-4.071-5.019-5.347-8.186-1.27-3.167-1.903-6.6-1.903-10.304 0-3.698.632-7.136 1.903-10.304 1.276-3.167 3.054-5.894 5.347-8.186 2.287-2.287 4.991-4.082 8.113-5.375s6.56-1.942 10.304-1.942c3.749 0 7.181.649 10.304 1.942 3.122 1.293 5.826 3.088 8.119 5.375 2.287 2.292 4.065 5.019 5.341 8.186 1.27 3.167 1.908 6.606 1.908 10.304 0 3.704-.638 7.136-1.908 10.304-1.276 3.167-3.054 5.894-5.341 8.186-2.292 2.287-4.997 4.082-8.119 5.375-3.123 1.293-6.555 1.942-10.304 1.942zm0-5.408c2.868 0 5.493-.531 7.876-1.598 2.383-1.061 4.426-2.518 6.137-4.37s3.043-4.014 3.992-6.487c.948-2.473 1.423-5.121 1.423-7.944s-.474-5.471-1.423-7.944c-.948-2.473-2.281-4.635-3.992-6.487-1.711-1.846-3.754-3.303-6.137-4.37-2.383-1.061-5.008-1.598-7.876-1.598s-5.493.536-7.876 1.598c-2.383 1.067-4.426 2.524-6.137 4.37-1.711 1.852-3.043 4.014-3.992 6.487s-1.423 5.121-1.423 7.944.474 5.471 1.423 7.944c.948 2.473 2.281 4.635 3.992 6.487s3.754 3.308 6.137 4.37c2.383 1.067 5.008 1.598 7.876 1.598z"/><path d="m896.132 169.346h14.572c2.264 0 4.426.22 6.487.661 2.055.44 3.884 1.18 5.482 2.219 1.592 1.039 2.862 2.428 3.811 4.161.948 1.739 1.423 3.879 1.423 6.419 0 2.682-.508 4.901-1.524 6.662-1.016 1.756-2.326 3.145-3.918 4.161-1.598 1.016-3.342 1.733-5.239 2.151s-3.704.621-5.414.621h-9.846v22.064h-5.832v-49.119zm5.832 21.646h9.846c2.919 0 5.284-.661 7.114-1.976 1.824-1.321 2.738-3.365 2.738-6.143 0-2.772-.915-4.822-2.738-6.137-1.829-1.321-4.195-1.976-7.114-1.976h-9.846z"/><path d="m937.267 169.346h30.877v5.414h-25.044v15.396h23.379v5.414h-23.379v17.485h26.292v5.409h-32.125z"/></g></svg>