<svg width="56" height="56" xmlns="http://www.w3.org/2000/svg" xmlns:xlink="http://www.w3.org/1999/xlink"><defs><linearGradient x1="50%" y1="0%" x2="50%" y2="100%" id="b"><stop stop-color="#207CB0" offset="0%"/><stop stop-color="#3CB2BF" offset="37.6%"/><stop stop-color="#58E9CE" offset="79.6%"/><stop stop-color="#63FFD4" offset="100%"/></linearGradient><linearGradient x1="0%" y1="50%" x2="100%" y2="50%" id="e"><stop stop-color="#4BC3AE" offset="0%"/><stop stop-color="#DEE999" offset="100%"/></linearGradient><linearGradient x1="50%" y1="0%" x2="50%" y2="100%" id="h"><stop stop-color="#EC403D" offset="0%"/><stop stop-color="#C93B75" offset="38.4%"/><stop stop-color="#A636AC" offset="79.9%"/><stop stop-color="#9934C2" offset="100%"/></linearGradient><linearGradient x1="50%" y1="0%" x2="50%" y2="100%" id="k"><stop stop-color="#F87" offset="0%"/><stop stop-color="#FFB175" offset="61.2%"/><stop stop-color="#FFC774" offset="100%"/></linearGradient><path d="M32.2 17.6 22 11.7 2.3.3C1.2-.3 0 0 0 1.3v46.5c0 1 .7 1.5 1.7.9L22 37l10.2-5.9 9.9-5.7c1.1-.6 1-1.5 0-2l-9.9-5.8Z" id="a"/><path d="M32.2 17.6 22 11.7 2.3.3C1.2-.3 0 0 0 1.3v46.5c0 1 .7 1.5 1.7.9L22 37l10.2-5.9 9.9-5.7c1.1-.6 1-1.5 0-2l-9.9-5.8Z" id="d"/><path d="M32.2 17.6 22 11.7 2.3.3C1.2-.3 0 0 0 1.3v46.5c0 1 .7 1.5 1.7.9L22 37l10.2-5.9 9.9-5.7c1.1-.6 1-1.5 0-2l-9.9-5.8Z" id="g"/><path d="M32.2 17.6 22 11.7 2.3.3C1.2-.3 0 0 0 1.3v46.5c0 1 .7 1.5 1.7.9L22 37l10.2-5.9 9.9-5.7c1.1-.6 1-1.5 0-2l-9.9-5.8Z" id="j"/></defs><g fill="none" fill-rule="evenodd"><path d="M0 0h56v56H0z"/><g transform="translate(6 3)"><mask id="c" fill="#fff"><use xlink:href="#a"/></mask><path fill="url(#b)" fill-rule="nonzero" mask="url(#c)" d="M.1-.8v50.3l25.3-25.1z"/></g><g transform="translate(6 3)"><mask id="f" fill="#fff"><use xlink:href="#d"/></mask><path fill="url(#e)" fill-rule="nonzero" mask="url(#f)" d="M32.2 17.6 22 11.7.1-1v.2l25.3 25.2z"/></g><g transform="translate(6 3)"><mask id="i" fill="#fff"><use xlink:href="#g"/></mask><path fill="url(#h)" fill-rule="nonzero" mask="url(#i)" d="M.1 49.5v.2L22 37l10.2-5.9-6.8-6.7z"/></g><g transform="translate(6 3)"><mask id="l" fill="#fff"><use xlink:href="#j"/></mask><path fill="url(#k)" fill-rule="nonzero" mask="url(#l)" d="m32.2 17.6-6.8 6.8 6.8 6.7 11.7-6.7z"/></g></g></svg>