<svg viewBox="0 0 585.44 165.95" xmlns="http://www.w3.org/2000/svg"><path d="m63.4 27.47v46.81h-42.99v-46.81h-20.41v111.74h20.41v-45.29h42.99v45.29h20.41v-111.74z"/><path d="m149.13 103.09a16.88 16.88 0 0 1 -33.77 0v-47.86h-19.36v47.86a36.21 36.21 0 0 0 72.42 0v-47.86h-19.29z"/><path d="m292.57 60.16c0-9.81 6.49-12.92 13.6-12.92 5.73 0 13.3 4.36 18.25 9.65l12.68-14.94c-6.33-8.56-19.17-14.48-29.68-14.48-21 0-36.19 12.3-36.19 32.69 0 37.83 46.24 25.83 46.24 47 0 6.53-6.34 12.3-13.6 12.3-11.45 0-15.16-5.6-20.42-11.52l-14.07 14.63c9 11.05 20.1 16.66 33.4 16.66 19.95 0 36-12.45 36-31.91 0-42-46.24-28.95-46.24-47.16"/><path d="m578.63 121.36c-11.44 0-14.69-4.95-14.69-12.53v-33.55h17.78v-17h-17.78v-22.43l-19.63 8.81v68.34c0 17.48 12.06 26.29 28.6 26.29a39.62 39.62 0 0 0 7.74-.62l4.79-17.63c-2.16.15-4.64.3-6.81.3"/><path d="m222.82 55.79c-9.59 0-16.28 2.78-22.75 9.13v-36.78h-19.39v68.17c0 25.52 18.45 43 39.18 43 23 0 43.23-17.79 43.23-41.75 0-23.66-18.62-41.76-40.27-41.76m-.12 64a22 22 0 1 1 22-22 22 22 0 0 1 -22 22"/><path d="m433.36 96.54c0-24-20.19-41.75-43.23-41.75-20.73 0-39.18 17.48-39.18 43v68.21h19.39v-36.83c6.46 6.34 13.16 9.13 22.74 9.13 21.65 0 40.27-18.09 40.27-41.76m-18.35-.24a22 22 0 1 1 -22-22 22 22 0 0 1 22 22"/><path d="m496 53.85v-19.48a15 15 0 0 0 8.65-13.52v-.45a15 15 0 0 0 -15-15h-.45a15 15 0 0 0 -15 15v.45a15 15 0 0 0 8.65 13.52v19.48a42.48 42.48 0 0 0 -20.2 8.89l-53.42-41.61a16.75 16.75 0 0 0 .6-4.21 16.9 16.9 0 1 0 -16.92 16.87 16.72 16.72 0 0 0 8.32-2.26l52.61 40.93a42.61 42.61 0 0 0 .65 48l-16 16a13.74 13.74 0 0 0 -4-.65 13.88 13.88 0 1 0 13.89 13.89 13.7 13.7 0 0 0 -.65-4l15.83-15.83a42.68 42.68 0 1 0 32.44-76.02m-6.56 64.06a21.9 21.9 0 1 1 21.92-21.91 21.9 21.9 0 0 1 -21.9 21.9"/></svg>