<svg version="1.1" id="Layer_1" xmlns="http://www.w3.org/2000/svg" x="0" y="0" viewBox="0 0 116 34" style="enable-background:new 0 0 116 34" xml:space="preserve"><style>.st2{fill:#fff}</style><g id="nq" transform="translate(7 20)"><path id="Shape" d="M78 4.6c-3.9 0-6.3-2.3-6.3-5.9 0-3.8 2.2-6.1 5.8-6.1h.3l1.9.1v-4.6h2.5V4.2c.1 0-2.3.4-4.2.4m0-10.1c-2.5 0-3.7 1.3-3.7 4.1 0 2.5 1.4 4 3.8 4l1.7-.1v-7.8L78-5.5M43.1 4.2l-6.9-12v12h-2.4V-11h3.4L44.1.9V-11h2.4V4.2h-3.4zm21.9.2c-1.2 0-2.4-.1-3.8-.4H61V1.9h.2c1.3.3 2.4.5 3.5.5.9 0 2.9-.1 2.9-1.4 0-1.1-1.4-1.4-2.6-1.6h-.1l-.6-.1C62.8-1.2 61-1.8 61-4.1c0-2.2 1.7-3.4 4.8-3.4 1.5 0 2.5.2 3.4.3l.4.1V-5h-.2c-1-.2-2.1-.4-3.2-.4-1.2 0-2.6.2-2.6 1.3 0 .9 1.2 1.1 2.5 1.4 1.9.4 4.2.9 4.2 3.5 0 2.3-1.9 3.6-5.3 3.6m24.4 0c-2.6 0-5.1-.5-5.1-3.8 0-3.7 3.8-3.7 6-3.7l1.6.1c0-2.1 0-2.5-3-2.5-1.2 0-2.5.2-3.6.4h-.2v-2h.1c1.3-.3 2.6-.4 4-.4 2.9 0 5.3.3 5.3 3.9v7.8h-.2c-1.9.2-3.5.2-4.9.2m.9-5.6c-2.2 0-3.5.3-3.5 1.9 0 1.8 1.7 2 3.3 2l2-.1v-3.7l-1.8-.1M53.7 4.4c-2.6 0-5.1-.5-5.1-3.8 0-3.7 3.8-3.7 6-3.7l1.6.1c0-2.1 0-2.5-3-2.5-1.2 0-2.5.2-3.6.4h-.2v-2h.2c1.3-.3 2.6-.4 4-.4 2.9 0 5.3.3 5.3 3.9v7.8h-.2c-2 .2-3.6.2-5 .2m.9-5.6c-2.2 0-3.5.3-3.5 1.9 0 1.8 1.7 2 3.3 2l2-.1v-3.7l-1.8-.1" style="fill:#1e1b1c"/><g id="Clipped" transform="translate(103.2 11.8)"><defs><filter id="Adobe_OpacityMaskFilter" filterUnits="userSpaceOnUse" x="-6.6" y="-19.3" width="10.6" height="16.8"><feColorMatrix values="1 0 0 0 0 0 1 0 0 0 0 0 1 0 0 0 0 0 1 0"/></filter></defs><mask maskUnits="userSpaceOnUse" x="-6.6" y="-19.3" width="10.6" height="16.8" id="mask-3_1_"><g style="filter:url(#Adobe_OpacityMaskFilter)"><path id="path-2_1_" class="st2" d="M-7-20H4.1v17.7H-7z"/></g></mask><path id="Shape_1_" d="M1.5-2.4v-5l-2 .1c-1 0-2.1-.2-3-.6-1.9-.8-3.1-2.9-3.1-5.5 0-1.3.3-3.7 2.5-5 1.1-.6 2.3-.9 4.2-.9l2.5.1 1.4.1v15.5L1.5-2.4zM-.1-17.3C-2.7-17.3-4-16-4-13.4c0 3.3 2 4 3.6 4l1.8-.1v-7.8H-.1z" style="mask:url(#mask-3_1_);fill:#1e1b1c"/></g><g id="Clipped_1_" transform="translate(19.2)"><defs><filter id="Adobe_OpacityMaskFilter_1_" filterUnits="userSpaceOnUse" x="-6.4" y="-20" width="18.8" height="24.2"><feColorMatrix values="1 0 0 0 0 0 1 0 0 0 0 0 1 0 0 0 0 0 1 0"/></filter></defs><mask maskUnits="userSpaceOnUse" x="-6.4" y="-20" width="18.8" height="24.2" id="mask-5_1_"><g style="filter:url(#Adobe_OpacityMaskFilter_1_)"><path id="path-4_1_" class="st2" d="M-7-20h19.9V4.3H-7z"/></g></mask><path d="M3.3-20-5.1 3.1c-.2.6-.7 1-1.4 1.1h8.9c.7 0 1.3-.4 1.5-1.1L12.4-20H3.3z" style="mask:url(#mask-5_1_)"/></g><path id="Path_1_" d="M12 3.8c.5 0 1-.3 1.2-.6l.2-.4 3.1-8.5-1.8-5c-.2-.5-.7-.9-1.2-.9-.6-.1-1.1.2-1.4.6l-.2.4L8.8-2l1.8 5c.2.5.8.8 1.4.8"/><defs><filter id="Adobe_OpacityMaskFilter_2_" filterUnits="userSpaceOnUse" x="-6.3" y="-11.9" width="18.9" height="24.2"><feColorMatrix values="1 0 0 0 0 0 1 0 0 0 0 0 1 0 0 0 0 0 1 0"/></filter></defs><mask maskUnits="userSpaceOnUse" x="-6.3" y="-11.9" width="18.9" height="24.2" id="mask-7_1_"><g style="filter:url(#Adobe_OpacityMaskFilter_2_)"><path id="path-6_1_" class="st2" d="M-7-12.6h19.9v24.9H-7z"/></g></mask><path id="Path_2_" d="M12.7-11.9h-9c-.7 0-1.3.4-1.5 1.1l-8.4 23.1h9.1l8.4-23.1c.1-.7.7-1.1 1.4-1.1z" style="mask:url(#mask-7_1_)"/></g></svg>