<svg width="64" height="64" xmlns="http://www.w3.org/2000/svg"><g fill="none" fill-rule="evenodd"><circle fill="#EAF2FD" cx="32" cy="32" r="32"/><path d="M16 16h32v32H16z"/><g fill="#3079ED" fill-rule="nonzero"><path d="M40.6 48h-17a2.5 2.5 0 0 1-2.5-2.5v-14c0-1.4 1.2-2.5 2.5-2.5h17c1.4 0 2.5 1.1 2.5 2.5v14c0 1.4-1 2.5-2.5 2.5Zm-17-17c-.2 0-.5.2-.5.5v14c0 .3.3.5.5.5h17c.3 0 .5-.2.5-.5v-14c0-.3-.2-.5-.5-.5h-17Z"/><path d="M38.1 30.3a1 1 0 0 1-1-1V23a5 5 0 0 0-10 0v6.3a1 1 0 0 1-2 0V23a7 7 0 0 1 14 0v6.3c0 .5-.4 1-1 1ZM32.1 42a1 1 0 0 1-1-1v-5a1 1 0 1 1 2 0v5c0 .6-.4 1-1 1Z"/></g></g></svg>