<svg xmlns="http://www.w3.org/2000/svg" version="1.0" width="744.09" height="145.28"><path d="M420.38 698.27h1.59v-13.08h-1.59v-.35h6.15c2.16 0 5.64.35 5.64 3.23 0 2.37-2.62 3.15-4.6 3.29v.04c2.88.25 4.29 1.37 4.33 3.46.03 3.08.31 3.37 1.09 3.37.2 0 .49-.12.71-.25l.13.29c-.68.5-1.64.66-2.38.66-2.1 0-2.61-1.48-2.61-3.64 0-3.15-.76-3.62-2.78-3.66h-1.04v6.64h1.65v.35h-6.29v-.35zm4.64-7h1.1c2.25-.1 2.82-.97 2.76-3.42 0-2.43-.76-2.66-2.43-2.66h-1.43v6.09M433.97 698.27h1.35v-7.91h-1.35V690h1.39c.8 0 2.25 0 2.66-.51v8.77h1.36v.35h-5.41v-.35zm2.7-13.36a1.58 1.58 0 1 1 0 3.18c-.88 0-1.58-.7-1.58-1.59 0-.88.7-1.59 1.58-1.59M439.57 698.27h1.35v-7.91h-1.35V690h1.39c.8 0 2.25 0 2.66-.51v2.1h.04c.53-1.14 1.82-1.83 3.14-1.83 1.86 0 2.76.92 2.76 3.04v5.46h1.35v.35h-5.17v-.35h1.12v-6.19c0-1.37-.59-1.6-1.16-1.6-1.1 0-2.08 1.42-2.08 2.42v5.37h1.16v.35h-5.21v-.35" style="fill:#231f20;fill-rule:nonzero;stroke:none" transform="matrix(7.0882 0 0 7.0882 -2688.86 -4846)"/><path d="M456.07 696.86c1.92-.04 2.86.82 2.86 2.72 0 2.39-1.78 4.23-4.5 4.23-2.17 0-3.88-1.12-3.88-2.56 0-.95.9-1.73 1.69-1.94v-.04c-.83-.24-1.28-.98-1.28-1.96 0-1.63 1.2-2.15 1.96-2.25v-.04c-1.04-.47-1.62-1.31-1.62-2.4 0-1.77 1.76-2.85 3.4-2.85 1.1 0 1.88.3 2.45.7.37-.43.86-.86 1.51-.86.59 0 1.33.36 1.33 1.04 0 .53-.35 1-.98 1-.59 0-.9-.45-.9-.9 0-.4.12-.65.53-.86v-.04c-.76.1-.94.53-1.29.88.54.47.84 1.35.84 1.98 0 1.86-1.8 2.82-3.49 2.82a2.5 2.5 0 0 1-.8-.12 2.44 2.44 0 0 0-.64-.12c-.75 0-1.59.53-1.59 1.02 0 .53.66.55 1.15.55h3.25zm-3.52 2.47a2.7 2.7 0 0 0-.82 2c.04.93 1 2.13 2.76 2.13 1.98 0 3.74-1.33 3.74-2.76 0-1.2-.65-1.37-2.61-1.37h-3.07zm3.41-6.7c-.02-2.25-.32-2.5-1.24-2.5-1.02 0-1.19.86-1.19 2.44 0 2.35.41 2.6 1.19 2.6.71 0 1.22-.13 1.24-2.54M460.11 698.27h1.35v-7.91h-1.35V690h1.39c.8 0 2.25 0 2.66-.51v8.77h1.35v.35h-5.4v-.35zm2.7-13.36a1.58 1.58 0 1 1 0 3.18 1.58 1.58 0 1 1 0-3.18M468.33 693.88v1.65c0 1.33.2 2.86 2.02 2.86 1.53 0 2.66-1.14 3.09-2.96h.35c-.43 1.94-1.62 3.43-4.03 3.43a4.3 4.3 0 0 1-4.37-4.45c0-2.64 2-4.64 4.31-4.64 2.06-.04 4.02 2 4.04 4.11h-5.41zm2.47-.35v-1.68c0-1.08-.29-1.73-1.23-1.73-.67 0-1.24.41-1.24 1.73v1.68h2.47" style="fill:#231f20;fill-rule:nonzero;stroke:none" transform="matrix(7.0882 0 0 7.0882 -2688.86 -4846)"/><path d="M473.64 698.27h1.35v-7.91h-1.35V690h1.35c.8 0 2.25 0 2.66-.51v2h.04a2.8 2.8 0 0 1 2.59-1.85c.92 0 1.54.57 1.54 1.51 0 .75-.55 1.43-1.49 1.43-.76 0-1.33-.5-1.33-1.27 0-.5.14-.8.47-1.16h-.08c-1.23.55-1.7 1.6-1.7 3.12v4.99h1.8v.35h-5.85v-.35" style="fill:#231f20;fill-rule:nonzero;stroke:none" transform="matrix(7.0882 0 0 7.0882 -2688.86 -4846)"/><path d="M381.93 690.1a5.98 5.98 0 1 1 11.97 0 5.98 5.98 0 0 1-11.97 0zm5.98 3.1a3.1 3.1 0 1 0 0-6.21 3.1 3.1 0 0 0 0 6.22" style="fill:#ec008b;fill-rule:nonzero;stroke:none" transform="matrix(7.0882 0 0 7.0882 -2688.86 -4846)"/><path d="M381.93 690.1a5.98 5.98 0 1 1 11.97 0 5.98 5.98 0 0 1-11.97 0zm5.98 3.1a3.1 3.1 0 1 0 0-6.21 3.1 3.1 0 0 0 0 6.22z" style="fill:none;fill-rule:nonzero;stroke:#ec008b;stroke-width:.175;stroke-linecap:butt;stroke-linejoin:miter;stroke-miterlimit:4;stroke-dasharray:none" transform="matrix(7.0882 0 0 7.0882 -2688.86 -4846)"/><path d="M394.25 690.1a5.98 5.98 0 1 1 11.97 0 5.98 5.98 0 0 1-11.97 0zm5.98 3.1a3.1 3.1 0 1 0 0-6.21 3.1 3.1 0 0 0 0 6.22" style="fill:#fddd1b;fill-rule:nonzero;stroke:none" transform="matrix(7.0882 0 0 7.0882 -2688.86 -4846)"/><path d="M394.25 690.1a5.98 5.98 0 1 1 11.97 0 5.98 5.98 0 0 1-11.97 0zm5.98 3.1a3.1 3.1 0 1 0 0-6.21 3.1 3.1 0 0 0 0 6.22z" style="fill:none;fill-rule:nonzero;stroke:#fddd1b;stroke-width:.175;stroke-linecap:butt;stroke-linejoin:miter;stroke-miterlimit:4;stroke-dasharray:none" transform="matrix(7.0882 0 0 7.0882 -2688.86 -4846)"/><path d="M406.53 690.1a5.98 5.98 0 1 1 11.97 0 5.98 5.98 0 0 1-11.97 0zm5.94 3.1a3.1 3.1 0 1 0 0-6.21 3.1 3.1 0 0 0 0 6.22" style="fill:#00acef;fill-rule:nonzero;stroke:none" transform="matrix(7.0882 0 0 7.0882 -2688.86 -4846)"/><path d="M406.53 690.1a5.98 5.98 0 1 1 11.97 0 5.98 5.98 0 0 1-11.97 0zm5.94 3.1a3.1 3.1 0 1 0 0-6.21 3.1 3.1 0 0 0 0 6.22z" style="fill:none;fill-rule:nonzero;stroke:#00acef;stroke-width:.175;stroke-linecap:butt;stroke-linejoin:miter;stroke-miterlimit:4;stroke-dasharray:none" transform="matrix(7.0882 0 0 7.0882 -2688.86 -4846)"/></svg>