<svg version="1.1" id="Layer_1" xmlns="http://www.w3.org/2000/svg" x="0" y="0" viewBox="0 0 1488 1357" style="enable-background:new 0 0 1488 1357" xml:space="preserve"><style>.st0{fill:#dc5765}.st1{fill:#ceebf7}.st2{fill:#fff}.st3{fill:#bc4052}.st4{fill:#fcea80}.st5{fill:#4d4262}.st6{fill:#88b6ed}.st7{opacity:.5;fill:none;stroke:#fff;stroke-linecap:round;stroke-miterlimit:10;enable-background:new}.st8{fill:#9bc1f9}</style><g id="image-for-kate" transform="translate(-25.5 -39.34)"><g id="small-rocket" transform="translate(1082.16 151)"><g id="Group_66" transform="translate(33.39)"><path id="Rectangle_59" transform="rotate(-79.43 240.13 337.36)" class="st0" d="M238.8 335.6h2.6v3.5h-2.6z"/><path id="Path_94" class="st1" d="m238.5 334.4-13.8 4.1s.7-12.7 9.8-16.9c2 4 3.3 8.3 4 12.8z"/><path id="Path_95" class="st2" d="m242.3 335.1 11.4 8.7s4-12.1-3-19.3c-3.3 3.1-6.2 6.7-8.4 10.6z"/><path id="Path_96" class="st2" d="m246.2 333.2-4.3 4.8-3.7-.7s-1.8-4.8-2.2-6.1c-2-5.8-2.8-9.5-1.7-15.6l3.8-20.5 19.1 3.6-3.8 20.5c-1.1 6.2-3.1 9.3-7.2 14z"/><path id="Path_97" class="st1" d="m247.7 297 9.5 1.8-3.8 20.5c-1.1 6.1-3.2 9.2-7.2 13.9l-4.3 4.8-2-.4"/><path id="Path_98" class="st0" d="M250.1 284.2s-10.2 1.8-11.9 11.1l-1.4 7.3 9.6 1.4 10.8-5.1c1.8-9.4-7.1-14.7-7.1-14.7z"/><path id="Path_99" class="st3" d="m250.1 284.2-3.7 19.8 9.6 1.6 1.2-6.7c1.8-9.4-7.1-14.7-7.1-14.7z"/><path id="Path_100" class="st4" d="M239.7 339.5c2.2.4 3.7 2.5 3.3 4.8-.4 2.2-6.1 10.7-6.1 10.7s-2.3-10-1.9-12.2c.3-2.3 2.5-3.7 4.7-3.3z"/><path id="Path_101" class="st2" d="M239.5 340.3c1.7.5 2.7 2.3 2.2 4-.4 1.9-3.8 4.5-3.8 4.5s-2.3-3.7-1.9-5.6c.2-1.7 1.8-3 3.5-2.9z"/><g id="Group_63" transform="translate(13.7 28.15)"><circle id="Ellipse_45" class="st0" cx="230" cy="291.3" r="3.4"/><g id="Group_62" transform="translate(.71 .8)"><circle id="Ellipse_46" class="st5" cx="229.2" cy="290.5" r="2.5"/></g></g><g id="Group_65" transform="translate(14.9 20.77)"><circle id="Ellipse_47" class="st0" cx="230.1" cy="290.3" r="3.4"/><g id="Group_64" transform="translate(.74 .77)"><circle id="Ellipse_48" class="st5" cx="229.4" cy="289.5" r="2.5"/></g></g></g><path id="Path_103" class="st6" d="M257.7 405.5c-1.5 9.2-2.5 18.4-4.7 27.4-3.8 15.2-11.1 29.3-14.8 44.6-4.7 19.9-3.1 40.8-8.1 60.6-3.7 14.4-10.9 28.5-9.1 43.2 5.5-12.3 11.1-24.7 14.4-37.8 2.5-9.9 3.7-20.1 4.9-30.2 1.6-13.3 3.2-26.5 5.4-39.7 2.5-14.9 5.9-29.6 9.3-44.4l7.3-32 3.6-15.6c.7-3 2.1-10.8 3.7-22.3-3 7.5-7 22.9-8.1 27.8-1.6 6.1-2.8 12.2-3.8 18.4z"/></g><g id="lines" transform="translate(47.5 114.5)"><path id="Line_8" class="st7" d="m288.3 279.3-44.2 193.8"/><path id="Line_9" class="st7" d="m360.6 583.1-95.1 369.2"/><path id="Line_17" class="st7" d="m105.7 591.1-129.2 484.2"/><path id="Line_10" class="st7" d="m615.5-108.7-126.9 524"/><path id="Line_12" class="st7" d="m1255.5 16.3-159.8 498.8"/><path id="Line_13" class="st7" d="M1216.5-117.7 1072 367.7"/><path id="Line_14" class="st7" d="m1010.8 689.7-174.3 600.6"/><path id="Line_15" class="st7" d="M978.5 255.3 823.9 750.9"/><path id="Line_16" class="st7" d="M1318 698.1 1240.9 977"/><path id="Line_11" class="st7" d="m84.5-117.7-133 635"/><path id="Line_12_1_" class="st7" d="m1439.5 174.3-159.8 498.8"/></g><g id="big-rocket" transform="translate(25.5 39.34)"><g id="Group_51" transform="translate(84.92)"><path id="Rectangle_56" transform="rotate(-79.43 163.61 523.14)" class="st0" d="M157.4 514.8h12.4v16.6h-12.4z"/><path id="Path_76" class="st1" d="m156 508.9-65.7 19.4s3.3-60.8 46.5-80.5c14 25.8 19.2 61.1 19.2 61.1z"/><path id="Path_77" class="st2" d="m173.9 512.3 54.3 41.7s18.9-57.9-14.3-91.9c-22.4 19.1-40 50.2-40 50.2z"/><path id="Path_78" class="st2" d="M192.9 503.3c-4.2 4.9-20.4 23.1-20.4 23.1l-17.7-3.3s-8.6-22.8-10.7-28.9c-9.7-27.9-13.4-45.3-8-74.3l18.2-97.7 91 17-18.2 97.7c-5.4 29-15.1 43.9-34.2 66.4z"/><path id="Path_79" class="st1" d="m199.8 330.7 45.5 8.5-18.2 97.7c-5.4 29-15.2 44-34.3 66.4-4.2 4.9-20.4 23.1-20.4 23.1l-9.5-1.8"/><path id="Path_80" class="st0" d="M211.3 269.2s-48.7 8.7-57 53l-6.5 34.8 45.9 6.6 51.7-24.4c8.2-44.3-34.1-70-34.1-70z"/><path id="Path_81" class="st3" d="m211.3 269.2-17.6 94.3 45.7 7.5 5.9-31.9c8.3-44.2-34-69.9-34-69.9z"/><path id="Path_82" class="st4" d="M161.5 533.3c10.6 2 17.6 12.2 15.6 22.7-2 10.6-29.4 51.1-29.4 51.1s-10.9-47.7-9-58.2c2-10.5 12.2-17.5 22.8-15.6z"/><path id="Path_83" class="st2" d="M160.7 537.3c7.5 1.4 12.2 9.8 10.5 18.9-1.7 9-18 21.5-18 21.5s-10.7-17.5-9.1-26.6c1.7-9 9.1-15.1 16.6-13.8z"/><g id="Group_48" transform="translate(65.42 134.38)"><circle id="Ellipse_7" class="st0" cx="115.1" cy="303.2" r="16"/><g id="Group_47" transform="translate(3.4 3.86)"><circle id="Ellipse_8" class="st5" cx="111.5" cy="299.7" r="12"/></g></g><g id="Group_50" transform="translate(71.1 99.16)"><circle id="Ellipse_9" class="st0" cx="115.9" cy="298.5" r="16"/><g id="Group_49" transform="translate(3.52 3.68)"><circle id="Ellipse_10" class="st5" cx="112.3" cy="294.9" r="12"/></g></g></g><g id="Group_52" transform="translate(0 309.43)"><path id="Path_84" class="st6" d="M200.8 361.1c-7.1 9.2-8.4 24.3 1 31.1-25 1.5-43.9 23-42.4 48 .3 5.6 1.7 11.1 4.1 16.2 3.6 7.8 9.4 17.1 4.2 23.9-2.4 3.1-6.4 4.4-9.8 6.3-15.4 8.2-20.8 28.1-19 45.5 1.7 17.3 8.9 33.7 12 50.9 5.4 31.4-2.9 63.6-22.8 88.5-15.6 19.3-38.8 35.5-41.6 60.1-1 8.7.9 17.5-.2 26.2-1.3 10.6-6.8 20.4-7.2 31.1-.7 22.1 21.5 39.1 43.4 42.5 21.1 3.2 44.7-3.6 57.1-21 8.5-12 10.8-27.1 12.8-41.6 1.8-12.7 2.4-28.4-8.4-35.4 18.1-16.7 19.7-44.6 16.7-69.1-3-24.4-9.2-49.6-2.4-73.2 4-13.8 12.4-26.8 11.8-41.2-.6-13.3-8.9-26.6-4.5-39.1 3-8.6 11.2-14 18.2-19.7 7.1-5.7 14-13.6 12.8-22.7-1.1-8.7-9.3-15-11.3-23.5-1.1-4.6-.2-9.4.6-14l7.9-42.7c2.3-12.3-1.8-64.9-2.7-77.4-10.6 16.7-23.4 39.9-30.3 50.3z"/><ellipse id="Ellipse_11" transform="rotate(-76.93 194.14 424.72)" class="st8" cx="194.1" cy="424.7" rx="26.4" ry="24.3"/><ellipse id="Ellipse_12" class="st8" cx="213.7" cy="372.9" rx="13.2" ry="14.8"/><ellipse id="Ellipse_13" class="st8" cx="219.6" cy="353.4" rx="8.4" ry="9"/><circle id="Ellipse_14" class="st8" cx="220.5" cy="465.9" r="10.6"/><circle id="Ellipse_15" class="st6" cx="216.3" cy="474.4" r="10.6"/><circle id="Ellipse_16" class="st8" cx="163.5" cy="696.1" r="29.4"/><circle id="Ellipse_17" class="st6" cx="151.7" cy="719.7" r="29.4"/><circle id="Ellipse_18" class="st8" cx="111.7" cy="789.6" r="27.4"/><circle id="Ellipse_19" class="st6" cx="115.4" cy="813.8" r="27.4"/><circle id="Ellipse_20" class="st8" cx="151.8" cy="767" r="30.9"/><circle id="Ellipse_21" class="st6" cx="152.2" cy="794.7" r="30.9"/><circle id="Ellipse_22" class="st6" cx="213.1" cy="380.3" r="10.6"/><ellipse id="Ellipse_23" class="st6" cx="193.6" cy="440" rx="20.6" ry="17.4"/><circle id="Ellipse_24" class="st8" cx="169.8" cy="523" r="26.4"/><ellipse id="Ellipse_25" class="st6" cx="169.3" cy="540.4" rx="20.6" ry="17.4"/></g></g><g id="medium-rocket" transform="translate(955.5 242.34)"><g id="Group_51-2" transform="translate(44.52)"><path id="Rectangle_56-2" transform="rotate(-79.43 247.74 429.5)" class="st0" d="M244.5 425.1h6.5v8.7h-6.5z"/><path id="Path_76-2" class="st1" d="m243.7 422.1-34.4 10.2s1.7-31.9 24.4-42.2c7.3 13.4 10 32 10 32z"/><path id="Path_77-2" class="st2" d="m253.1 423.8 28.4 21.9s9.9-30.4-7.5-48.2c-11.6 10-20.9 26.3-20.9 26.3z"/><path id="Path_78-2" class="st2" d="M263.1 419.1c-2.2 2.6-10.7 12.1-10.7 12.1l-9.3-1.7s-4.5-12-5.6-15.2c-5.1-14.6-7-23.8-4.2-39l9.6-51.2 47.7 8.9-9.6 51.2c-2.8 15.3-7.9 23.1-17.9 34.9z"/><path id="Path_79-2" class="st1" d="m266.7 328.6 23.9 4.5-9.6 51.2c-2.8 15.2-7.9 23-18 34.8-2.2 2.6-10.7 12.1-10.7 12.1l-5-.9"/><path id="Path_80-2" class="st0" d="M272.7 296.4s-25.5 4.6-29.9 27.8l-3.4 18.2 24 3.5 27.1-12.8c4.4-23.3-17.8-36.7-17.8-36.7z"/><path id="Path_81-2" class="st3" d="m272.7 296.4-9.2 49.5 24 3.9 3.1-16.7c4.3-23.3-17.9-36.7-17.9-36.7z"/><path id="Path_82-2" class="st4" d="M246.6 434.9c5.5 1 9.2 6.4 8.2 11.9s-15.4 26.8-15.4 26.8-5.7-25-4.7-30.5c1-5.6 6.4-9.3 11.9-8.2z"/><path id="Path_83-2" class="st2" d="M246.2 437c3.9.7 6.4 5.2 5.5 9.9-.9 4.7-9.5 11.3-9.5 11.3s-5.6-9.2-4.8-13.9c1-4.8 4.9-8.1 8.8-7.3z"/><g id="Group_48-2" transform="translate(34.3 70.46)"><circle id="Ellipse_7-2" class="st0" cx="222.3" cy="314.2" r="8.4"/><g id="Group_47-2" transform="translate(1.78 2.02)"><circle id="Ellipse_8-2" class="st5" cx="220.4" cy="312.3" r="6.3"/></g></g><g id="Group_50-2" transform="translate(37.28 52)"><circle id="Ellipse_9-2" class="st0" cx="222.7" cy="311.7" r="8.4"/><g id="Group_49-2" transform="translate(1.85 1.93)"><circle id="Ellipse_10-2" class="st5" cx="220.8" cy="309.9" r="6.3"/></g></g></g><g id="Group_52-2" transform="translate(0 162.24)"><path id="Path_84-2" class="st6" d="M267.2 344.5c-3.7 4.8-4.4 12.7.5 16.3-13.1.8-23 12.1-22.2 25.2.2 2.9.9 5.8 2.2 8.5 1.9 4.1 4.9 8.9 2.2 12.5-1.2 1.6-3.3 2.3-5.2 3.3-8.1 4.3-10.9 14.7-10 23.8.9 9.1 4.7 17.7 6.3 26.7 2.8 16.5-1.5 33.4-12 46.4-8.2 10.1-20.4 18.6-21.8 31.5-.5 4.6.5 9.2-.1 13.7-.7 5.5-3.6 10.7-3.8 16.3-.4 11.6 11.3 20.5 22.7 22.3 11.1 1.7 23.5-1.9 29.9-11 4.4-6.3 5.6-14.2 6.7-21.8.9-6.7 1.2-14.9-4.4-18.5 9.5-8.8 10.3-23.4 8.8-36.2-1.6-12.8-4.8-26-1.2-38.4 2.1-7.2 6.5-14.1 6.2-21.6-.3-7-4.7-13.9-2.4-20.5 1.6-4.5 5.9-7.3 9.6-10.3 3.7-3 7.3-7.2 6.7-11.9-.6-4.6-4.9-7.8-5.9-12.3a18 18 0 0 1 .3-7.3l4.1-22.4c1.2-6.4-1-34-1.4-40.6-5.4 8.7-12.2 20.9-15.8 26.3z"/><ellipse id="Ellipse_11-2" transform="rotate(-76.93 263.74 377.9)" class="st8" cx="263.7" cy="377.9" rx="13.9" ry="12.7"/><ellipse id="Ellipse_12-2" class="st8" cx="274" cy="350.8" rx="6.9" ry="7.8"/><ellipse id="Ellipse_13-2" class="st8" cx="277.1" cy="340.5" rx="4.4" ry="4.7"/><circle id="Ellipse_14-2" class="st8" cx="277.6" cy="399.5" r="5.5"/><circle id="Ellipse_15-2" class="st6" cx="275.4" cy="403.9" r="5.5"/><circle id="Ellipse_16-2" class="st8" cx="247.7" cy="520.2" r="15.4"/><circle id="Ellipse_17-2" class="st6" cx="241.5" cy="532.5" r="15.4"/><circle id="Ellipse_18-2" class="st8" cx="220.5" cy="569.2" r="14.4"/><circle id="Ellipse_19-2" class="st6" cx="222.4" cy="581.9" r="14.4"/><circle id="Ellipse_20-2" class="st8" cx="241.6" cy="557.3" r="16.2"/><circle id="Ellipse_21-2" class="st6" cx="241.7" cy="571.9" r="16.2"/><circle id="Ellipse_22-2" class="st6" cx="273.7" cy="354.6" r="5.5"/><ellipse id="Ellipse_23-2" class="st6" cx="263.5" cy="385.9" rx="10.8" ry="9.1"/><circle id="Ellipse_24-2" class="st8" cx="251" cy="429.4" r="13.8"/><ellipse id="Ellipse_25-2" class="st6" cx="250.7" cy="438.6" rx="10.8" ry="9.1"/></g></g></g></svg>