<?xml version="1.0" encoding="UTF-8"?>
<svg width="30px" height="30px" viewBox="0 0 30 30" version="1.1" xmlns="http://www.w3.org/2000/svg" xmlns:xlink="http://www.w3.org/1999/xlink">
    <title>video-calls</title>
    <g id="video-calls" stroke="none" stroke-width="1" fill="none" fill-rule="evenodd">
        <g>
            <path d="M28.0432723,2.83655007 L28.0432723,23.1865004 C28.0432723,23.8086733 27.8301864,24.0188668 27.2109058,24.0188668 L2.83336507,24.0188668 C2.21408444,24.0188668 2.00099863,23.8086733 2.00099863,23.1865004 L2.00099863,2.83655007 C2.00099863,2.21437717 2.21408444,2.00418362 2.83336507,2.00418362 L27.2109058,2.00418362 C27.8301864,2.00418362 28.0432723,2.21437717 28.0432723,2.83655007 Z M2.49709934,0 C0.963166888,0 0,0.952840537 0,2.49709934 L0,23.6081467 C0,25.1524055 0.963166888,26.105246 2.49709934,26.105246 L27.4680927,26.105246 C29.0020252,26.105246 29.9651921,25.1524055 29.9651921,23.6081467 L29.9651921,2.49709934 C29.9651921,0.952840537 29.0020252,0 27.4680927,0 C26.4718937,0 25.7247444,0 25.2266448,0 C20.1756347,0 12.5991196,0 2.49709934,0 Z" id="Shape" fill="#3079ED" fill-rule="nonzero"></path>
            <path d="M17.5865406,25.9497047 L20.087879,28.0254695 L15.4058178,28.0254695 L10.7237565,28.0254695 L12.931234,25.9497047 L17.5865406,25.9497047 Z M8.66850199,28.3397856 C8.13340928,29.0354061 8.56362493,29.957236 9.47328255,29.957236 L20.8707574,29.957236 C21.780415,29.957236 22.3133662,29.0354061 21.7782735,28.3397856 L18.4071894,24.3835517 L12.0930954,24.3300424 L8.66850199,28.3397856 Z" id="Shape" fill="#3079ED" fill-rule="nonzero"></path>
            <ellipse id="Oval" stroke="#3079ED" stroke-width="2" cx="14.9125059" cy="10.8664764" rx="3.91250588" ry="3.8664764"></ellipse>
            <path d="M7,20.7997146 C8.12443446,17.4264112 11.3793763,15 15.1077643,15 C18.5402484,15 21.4992865,17.0121459 22.860444,19.9120032 C22.9788055,20.1487262 23.097167,20.3854493 23.1563478,20.6221723" id="Path" stroke="#3079ED" stroke-width="2"></path>
            <polygon id="Path" fill="#3079ED" fill-rule="nonzero" points="30 20 30 22 0 22 0 20"></polygon>
        </g>
    </g>
</svg>