<svg width="64" height="64" xmlns="http://www.w3.org/2000/svg"><g fill="none" fill-rule="evenodd"><circle fill="#EAF2FD" cx="32" cy="32" r="32"/><path d="M22.6 48a1 1 0 0 1-1-1.1l1-7.3A12.4 12.4 0 0 1 16 29c0-7.2 7.2-13 16-13s16 5.8 16 13-7.2 13-16 13h-1.7l-7 5.8a1 1 0 0 1-.7.2ZM32 18c-7.7 0-14 5-14 11 0 3.7 2.3 7 6.2 9.1.4.2.6.6.6 1l-.8 5.5 5.3-4.5c.2-.2.5-.2.8-.2l1.9.1c7.7 0 14-5 14-11s-6.3-11-14-11Z" fill="#3079ED" fill-rule="nonzero"/><path d="M31 33a1 1 0 0 1-.7-.3l-3-3a1 1 0 1 1 1.4-1.4l2.2 2.2 4.3-5.1a1 1 0 0 1 1.6 1.2l-5 6a1 1 0 0 1-.8.4Z" fill="#3079ED" fill-rule="nonzero"/></g></svg>